SplineFontDB: 3.0
FontName: KleiMedIta
FullName: Klei Medium Italic
FamilyName: Klei
Weight: Medium
Copyright: Copyright (c) 2015, Joseph Steck, Rocketroom, LLC. All rights reserved.
UComments: "For my beloved Alisa +ACIA-Clay+ACIA Steck+AAoA-2015-2-14: Created with FontForge (http://fontforge.org)"
Version: 001.000
ItalicAngle: 0
UnderlinePosition: -100
UnderlineWidth: 50
Ascent: 768
Descent: 232
InvalidEm: 0
LayerCount: 2
Layer: 0 0 "Back" 1
Layer: 1 0 "Fore" 0
PreferredKerning: 4
XUID: [1021 610 -1734517455 9502657]
FSType: 0
OS2Version: 3
OS2_WeightWidthSlopeOnly: 0
OS2_UseTypoMetrics: 1
CreationTime: 1424325067
ModificationTime: 1534320698
PfmFamily: 17
TTFWeight: 400
TTFWidth: 5
LineGap: 90
VLineGap: 0
Panose: 2 0 5 3 0 0 0 0 0 0
OS2TypoAscent: 0
OS2TypoAOffset: 1
OS2TypoDescent: 0
OS2TypoDOffset: 1
OS2TypoLinegap: 90
OS2WinAscent: 0
OS2WinAOffset: 1
OS2WinDescent: 0
OS2WinDOffset: 1
HheadAscent: 0
HheadAOffset: 1
HheadDescent: 0
HheadDOffset: 1
OS2Vendor: 'PfEd'
OS2CodePages: 20000001.00000000
OS2UnicodeRanges: 00000005.00000000.00000000.00000000
Lookup: 4 0 1 "'liga' Standard Ligatures in Latin lookup 0" { "'liga' ffl"  "'liga' ffi"  "'liga' fi"  "'liga' ff"  "'liga' fl"  } ['liga' ('DFLT' <'dflt' > 'latn' <'dflt' > ) ]

StartChar: s
Encoding: 115 115 0
GlifName: s
Width: 418
VWidth: 0
Flags: W
HStem: -11.2754 40.3506<100.574 212.579> 475.125 36.875<219.2 301.915>
VStem: 9.11523 75.7412<44.0472 121.72> 77.6855 107.573<350.694 435.406> 262.292 108.195<74.4588 177.101>
LayerCount: 2
Fore
SplineSet
84.8564453125 78 m 0xe8
 84.8564453125 45.513671875 128.857421875 29.0751953125 153.836914062 29.0751953125 c 0
 196.237304688 29.0751953125 262.291992188 69.3037109375 262.291992188 127.981445312 c 0
 262.291992188 159.352539062 219.114257812 208.862304688 184.416992188 237.578125 c 0
 154.16015625 262.506835938 77.685546875 315.3203125 77.685546875 374.374023438 c 0
 77.685546875 459.349609375 184.455078125 512 277.71484375 512 c 0
 332.534179688 512 395 476.629882812 395 455 c 0
 395 430.409179688 370.553710938 398.974609375 349.71484375 398.974609375 c 0
 308.556640625 398.974609375 318.926757812 475.125 272.615234375 475.125 c 0
 223.180664062 475.125 185.258789062 433.341796875 185.258789062 402.158203125 c 0xd8
 185.258789062 360.53125 233.481445312 320.8515625 262.448242188 296.221679688 c 1
 298.306640625 263.22265625 370.487304688 205.916992188 370.487304688 149.68359375 c 0
 370.487304688 25.3046875 235.241210938 -11.275390625 151.2265625 -11.275390625 c 0
 44.0244140625 -11.275390625 9.115234375 55.5205078125 9.115234375 87.8251953125 c 0
 9.115234375 108.083984375 20.2958984375 139.974609375 50.615234375 139.974609375 c 0
 65.8798828125 139.974609375 95.4296875 127.028320312 95.4296875 110 c 0
 95.4296875 97.2109375 84.8564453125 84.95703125 84.8564453125 78 c 0xe8
EndSplineSet
EndChar

StartChar: W
Encoding: 87 87 1
GlifName: W_
Width: 970
VWidth: 0
Flags: W
HStem: -9 21G<268.847 278.188> 700 30<97.7069 121.92 260.817 307.9 398.866 420.76 531.414 579.9 643.866 668.678 767.057 792.9 911.866 939.776 1032.07 1061.9>
LayerCount: 2
Fore
SplineSet
1075 730 m 1
 1075 730 1077.23925781 726.947265625 1077.23925781 724.005859375 c 0
 1077.23925781 720.961914062 1076.85546875 717.963867188 1075.29199219 714.3046875 c 0
 1071.93554688 706.447265625 1061.90039062 700 1061.90039062 700 c 1
 1055.96582031 700 l 0
 1048.58203125 700 1039.16796875 698.500976562 1031.71582031 696.27734375 c 0
 1016.71972656 691.803710938 1008.21646152 671.926064463 997.987304688 655.130859375 c 0
 862.7265625 433.046875 733.589961513 234.632570676 595.057617188 10.4306640625 c 0
 590.042898617 2.31480151695 579.816705486 -10 566.63671875 -10 c 0
 557.17578125 -10 547.571289062 -0.28125 546.379882812 9.0712890625 c 1
 545.587890625 14.5009765625 517.135742188 150.450195312 491 314 c 1
 309.38671875 24.3037109375 l 1
 302.219726562 13.2607421875 298.295898438 6.515625 298.295898438 6.515625 c 0
 298.176757812 6.3125 l 1
 298.043945312 6.1171875 l 0
 292.25 -2.404296875 282.53125 -9 273.84375 -9 c 0
 263.850585938 -9 251.869140625 1.6318359375 250.389648438 12.798828125 c 0
 238.376953125 103.474609375 146.243164062 601.651367188 134.1015625 661.193359375 c 0
 130.012695312 681.243164062 128.375976562 692.376953125 122.083007812 696.291015625 c 0
 118.633789062 698.436523438 114.037109375 700 105.965820312 700 c 0
 96.900390625 700 l 1
 96.900390625 700 96.1005859375 702.6875 96.1005859375 706.434570312 c 0
 96.1005859375 709.340820312 96.58203125 712.884765625 98.2919921875 716.3046875 c 0
 102.291992188 724.3046875 108.866210938 730 108.5 730 c 1
 179.348632812 730 250.197265625 730 321.045898438 730 c 1
 321 730 323.239257812 726.947265625 323.239257812 724.005859375 c 0
 323.239257812 720.961914062 322.85546875 717.963867188 321.291992188 714.3046875 c 0
 317.935546875 706.447265625 307.900390625 700 307.900390625 700 c 1
 303.3828125 700 l 0
 272.720703125 700 252.942382812 689.311523438 252.942382812 659.772460938 c 0
 252.942382812 659.146484375 254.013671875 648.336914062 254.317382812 645.958007812 c 1
 336.001953125 171.841796875 l 1
 475.7109375 400.478515625 l 1
 456.154296875 521.602539062 436.09765625 609.438476562 427 663 c 1
 422 687 417.158203125 700 399.540039062 700 c 0
 387.395507812 700 l 1
 386.900390625 700 386.100585938 702.6875 386.100585938 706.434570312 c 0
 386.100585938 709.340820312 386.58203125 712.884765625 388.291992188 716.3046875 c 0
 392.291992188 724.3046875 398.866210938 730 398.866210938 730 c 1
 592.338867188 730 l 1
 593 730 595.239257812 726.947265625 595.239257812 724.005859375 c 0
 595.239257812 720.961914062 594.85546875 717.963867188 593.291992188 714.3046875 c 0
 589.935546875 706.447265625 579.900390625 700 579.900390625 700 c 1
 574.67578125 700 l 2
 542 700 522.004882812 684.303710938 522.004882812 661.64453125 c 0
 522.004882812 661.546875 522.439453125 657.250976562 522.625976562 656.116210938 c 0
 554.21484375 497.51171875 l 1
 656.39453125 644.796875 l 1
 665.995117188 658.915039062 670.515625 666.959960938 670.515625 678.104492188 c 0
 670.515625 687.26953125 660.62109375 700 641.934570312 700 c 0
 631.900390625 700 l 1
 631.900390625 700 631.100585938 702.6875 631.100585938 706.434570312 c 0
 631.100585938 709.340820312 631.58203125 712.884765625 633.291992188 716.3046875 c 0
 637.291992188 724.3046875 643.866210938 730 643.866210938 730 c 1
 805.834960938 730 l 1
 806 730 808.239257812 726.947265625 808.239257812 724.005859375 c 0
 808.239257812 720.961914062 807.85546875 717.963867188 806.291992188 714.3046875 c 0
 802.935546875 706.447265625 792.900390625 700 792.900390625 700 c 1
 787.611328125 700 l 0
 779.984375 700 772.97265625 699.091796875 766.765625 696.180664062 c 0
 749.594726562 688.127929688 743.104492188 675.76171875 731.465820312 657.162109375 c 1
 577 424 l 5
 621.530273438 175.038085938 l 1
 925.747070312 642.606445312 l 0
 935.831054688 659.052734375 941.801757812 666.471679688 941.801757812 677.83984375 c 0
 941.801757812 686.794921875 931.004882812 700 909.34765625 700 c 0
 899.900390625 700 l 1
 899.900390625 700 899.100585938 702.6875 899.100585938 706.434570312 c 0
 899.100585938 709.340820312 899.58203125 712.884765625 901.291992188 716.3046875 c 0
 905.291992188 724.3046875 911.866210938 730 911.866210938 730 c 1
 1075 730 l 1
EndSplineSet
EndChar

StartChar: A
Encoding: 65 65 2
GlifName: A_
Width: 685
VWidth: 0
Flags: W
HStem: 0 30<-0.0996094 27.7693 144.997 155.9 452.9 480.929 631.995 646.9> 295 63<317.787 460.17> 715.977 20G<506.109 518.749>
LayerCount: 2
Fore
SplineSet
661.880859375 30 m 1
 661.880859375 30 662.239257812 27.947265625 662.239257812 25.005859375 c 0
 662.239257812 21.9619140625 661.85546875 17.9638671875 660.291992188 14.3046875 c 0
 656.935546875 6.447265625 646.900390625 0 646.900390625 0 c 1
 439.900390625 0 l 1
 439.900390625 0 439.100585938 2.6875 439.100585938 6.4345703125 c 0
 439.100585938 9.3408203125 439.58203125 12.884765625 441.291992188 16.3046875 c 0
 445.291992188 24.3046875 452.900390625 30 452.900390625 30 c 1
 458.434570312 30 l 0
 465.663085938 30 473.946289062 30.970703125 481.2734375 31.8623046875 c 0
 494.890625 34.8349609375 501.201171875 43.1748046875 505.567382812 58.74609375 c 1
 506.487304688 64.162109375 506.848632812 72.2099609375 506.848632812 76.505859375 c 0
 506.848632812 78.1943359375 506.733398438 80.150390625 506.498046875 81.9833984375 c 2
 470.559570312 291.723632812 l 1
 469.979492188 294.012695312 469.782226562 294.598632812 469.651367188 295 c 1
 290.282226562 295 l 0
 288.385742188 295 288.37109375 294.721679688 284.81640625 290.15625 c 1
 146.36328125 86.1044921875 l 1
 135.751953125 70.0078125 130.59765625 63.2099609375 130.59765625 51.8046875 c 0
 130.59765625 45.11328125 135.046875 38.087890625 144.786132812 32.85546875 c 0
 149.258789062 30.453125 155.413085938 30 162.434570312 30 c 0
 170.880859375 30 l 1
 170.880859375 30 171.239257812 27.947265625 171.239257812 25.005859375 c 0
 171.239257812 21.9619140625 170.85546875 17.9638671875 169.291992188 14.3046875 c 0
 165.935546875 6.447265625 155.900390625 0 155.900390625 0 c 1
 -13.099609375 0 l 1
 -13.099609375 0 -13.8994140625 2.6875 -13.8994140625 6.4345703125 c 0
 -13.8994140625 9.3408203125 -13.41796875 12.884765625 -11.7080078125 16.3046875 c 0
 -7.7080078125 24.3046875 -0.099609375 30 -0.099609375 30 c 1
 6.4345703125 30 l 0
 12.458984375 30 21.8369140625 30.376953125 28.0634765625 32.845703125 c 0
 43.4765625 38.95703125 54.486328125 58.3251953125 65.5087890625 75.025390625 c 1
 472.138671875 709.145507812 l 1
 473.166992188 709.920898438 l 0
 487.959960938 721.076171875 493.70703125 718.951171875 506.109375 728.50390625 c 0
 515.620117188 735.9765625 l 1
 622.334960938 53.9150390625 l 2
 624.260742188 44.470703125 626.198242188 37.9775390625 631.798828125 33.83984375 c 0
 635.876953125 30.826171875 647.006835938 30 653.434570312 30 c 0
 661.880859375 30 l 1
432.766601562 531.947265625 m 5
 317.787109375 358 l 5
 459.434570312 358 l 4
 459.731445312 358 460 358.032226562 460.178710938 358.048828125 c 5
 459.8828125 360.365234375 459.5078125 362.98828125 459.5078125 362.98828125 c 5
 432.766601562 531.947265625 l 5
EndSplineSet
EndChar

StartChar: O
Encoding: 79 79 3
GlifName: O_
Width: 735
VWidth: 0
Flags: W
HStem: -11 52<228.77 382.116> 685 49<353.51 546.225>
VStem: 28.1074 121.946<129.903 389.352> 618.391 112.783<345.848 591.914>
LayerCount: 2
Fore
SplineSet
28.107421875 241.868164062 m 0
 28.107421875 544.681640625 205.05269507 734 471.898633966 734 c 0
 622.143554688 734 731.173828125 643.686523438 731.173828125 473.903320312 c 0
 731.173828125 180.783203125 472.187645149 -11 292.474046497 -11 c 0
 197.598824759 -11 28.107421875 37.09375 28.107421875 241.868164062 c 0
451.275390625 685 m 0
 216.873046875 685 150.053710938 373.399414062 150.053710938 234.334960938 c 0
 150.053710938 72.1669921875 251.831054688 41 307.94140625 41 c 0
 416.057617188 41 618.390625 210.41796875 618.390625 494.999023438 c 0
 618.390625 604.614257812 580.006835938 685 451.275390625 685 c 0
EndSplineSet
EndChar

StartChar: V
Encoding: 86 86 4
GlifName: V_
Width: 651
VWidth: 0
Flags: W
HStem: 700 30<114.866 132.29 263.826 313.9 615.5 643.246 721.915 762.9>
LayerCount: 2
Fore
SplineSet
776.930664062 730 m 1
 776.930664062 730 778.239257812 726.947265625 778.239257812 724.005859375 c 0
 778.239257812 720.961914062 777.85546875 717.963867188 776.291992188 714.3046875 c 0
 772.935546875 706.447265625 762.900390625 700 762.900390625 700 c 1
 757.965820312 700 l 0
 723.727539062 700 719.828125 681.766601562 702.861328125 656.927734375 c 1
 562.375976562 436.3828125 427.959960938 220.885742188 288.827148438 5.345703125 c 0
 285.751953125 0.486328125 275.290039062 -10 264.25 -10 c 0
 252.989257812 -10 243.793945312 0.23046875 242.811523438 7.6865234375 c 1
 240.780273438 20.2099609375 170.0234375 474.333984375 145.047851562 644.813476562 c 1
 144.067382812 650.583007812 143.041992188 659.588867188 142.043945312 664.478515625 c 0
 138.940429688 679.685546875 138.592773438 689.348632812 132.528320312 694.184570312 c 0
 127.479492188 698.2109375 119.623046875 700 112.965820312 700 c 0
 102.900390625 700 l 5
 102.900390625 700 102.100585938 702.6875 102.100585938 706.434570312 c 4
 102.100585938 709.340820312 102.58203125 712.884765625 104.291992188 716.3046875 c 4
 108.291992188 724.3046875 114.866210938 730 114.866210938 730 c 5
 327 730 l 5
 327 730 329.239257812 726.947265625 329.239257812 724.005859375 c 4
 329.239257812 720.961914062 328.85546875 717.963867188 327.291992188 714.3046875 c 4
 323.935546875 706.447265625 313.900390625 700 313.900390625 700 c 5
 310.23046875 700 l 0
 303.124023438 700 290.9921875 698.498046875 284.01171875 696.1796875 c 0
 267.702148438 690.762695312 256.754882812 683.48828125 256.754882812 665.13671875 c 0
 256.754882812 662.383789062 257.986328125 651.352539062 258.495117188 648.024414062 c 0
 333.217773438 189.077148438 l 1
 629.634765625 645.723632812 l 1
 640.754882812 662.455078125 643.801757812 669.115234375 643.801757812 680.947265625 c 0
 643.801757812 691.555664062 634.587890625 700 612.918945312 700 c 0
 602.900390625 700 l 1
 602.900390625 700 602.100585938 702.6875 602.100585938 706.434570312 c 0
 602.100585938 709.340820312 602.58203125 712.884765625 604.291992188 716.3046875 c 0
 608.291992188 724.3046875 615.5 730 615.5 730 c 1
 776.930664062 730 l 1
EndSplineSet
EndChar

StartChar: H
Encoding: 72 72 5
GlifName: H_
Width: 808
VWidth: 0
Flags: W
HStem: 0 30<17.9004 44.0515 199.06 214.431 471.9 500.058 653.138 668.9> 368 61<272.919 597.987> 700 30<182.9 213.715 354.966 384.9 640.9 659.115 811.914 839.9>
LayerCount: 2
Fore
SplineSet
459 0 m 1
 458.900390625 0 458.100585938 2.6875 458.100585938 6.4345703125 c 0
 458.100585938 9.3408203125 458.58203125 12.884765625 460.291992188 16.3046875 c 0
 464.291992188 24.3046875 471.900390625 30 471.900390625 30 c 1
 476.965820312 30 l 0
 485.0625 30 494 31 500.357421875 32.77734375 c 0
 517.555664062 37.5859375 526.80859375 56.1201171875 529.143554688 66.03515625 c 0
 598 365 l 1
 597.737304688 365.359375 596.669921875 366 595.881835938 366 c 1
 543.236328125 366.000976562 481.372070312 368 419.254882812 368 c 3
 358.084960938 368 310.119140625 366.041992188 261.904296875 366.020507812 c 1
 260.721679688 365.491210938 259.075195312 363.076171875 258.6796875 362.095703125 c 1
 250.918945312 325.678710938 242.958007812 298.200195312 234.485351562 262.6875 c 1
 216.805664062 192.198242188 206.7265625 144.318359375 189.827148438 74.146484375 c 1
 188.55859375 68.884765625 186.594726562 57.107421875 186.594726562 55.8720703125 c 0
 186.594726562 45.974609375 188.205078125 37.439453125 198.776367188 32.7275390625 c 0
 204.8125 30.037109375 211.8515625 30 219.965820312 30 c 0
 228.880859375 30 l 1
 228.880859375 30 229.239257812 27.947265625 229.239257812 25.005859375 c 0
 229.239257812 21.9619140625 228.85546875 17.9638671875 227.291992188 14.3046875 c 0
 223.935546875 6.447265625 214.430664062 0 214.430664062 0 c 1
 5 0 l 1
 5 0 4.1005859375 2.6875 4.1005859375 6.4345703125 c 0
 4.1005859375 9.3408203125 4.58203125 12.884765625 6.2919921875 16.3046875 c 0
 10.2919921875 24.3046875 17.900390625 30 17.900390625 30 c 1
 21.9658203125 30 l 0
 30.0859375 30 37.072265625 30.9921875 44.39453125 32.78515625 c 1
 60.7919921875 36.1669921875 71.697265625 56.6220703125 74.154296875 67.05078125 c 1
 103.181640625 183.724609375 128.1484375 289.174804688 155.140625 405.70703125 c 0
 176.150390625 495.865234375 193.10546875 573.76171875 212.126953125 663.9765625 c 1
 212.594726562 665.961914062 214.784179688 676.602539062 214.784179688 678.31640625 c 0
 214.784179688 685.697265625 212.201171875 690.779296875 203.245117188 695.250976562 c 0
 197.73046875 698.004882812 189.850585938 700 180.965820312 700 c 0
 169.900390625 700 l 5
 169.900390625 700 169.100585938 702.6875 169.100585938 706.434570312 c 4
 169.100585938 709.340820312 169.58203125 712.884765625 171.291992188 716.3046875 c 4
 175.291992188 724.3046875 182.900390625 730 182.900390625 730 c 5
 399.077148438 730 l 5
 399.077148438 730 400.239257812 727.947265625 400.239257812 725.005859375 c 4
 400.239257812 721.961914062 399.85546875 718.963867188 398.291992188 715.3046875 c 4
 394.935546875 707.447265625 384.900390625 701 384.900390625 701 c 5
 378.965820312 701 l 0
 371.471679688 701 363.733398438 700.301757812 354.536132812 698.247070312 c 0
 340 695 330.28515625 678.4765625 326.797851562 664.15625 c 1
 313.755859375 609.3671875 303.809570312 561.075195312 290.770507812 506.297851562 c 1
 283.870117188 479.375976562 278.625976562 455.116210938 272.918945312 430.950195312 c 1
 322.642578125 430.905273438 368.396484375 429 429.724609375 429 c 0
 492.819335938 429 553.6796875 429.998046875 606.403320312 431 c 1
 612.083007812 431 612.583007812 432.756835938 613.069335938 433.876953125 c 1
 667.130859375 667.099609375 l 1
 667.556640625 669.040039062 668.784179688 676.029296875 668.784179688 677.750976562 c 3
 668.784179688 685.1953125 666.828125 689.579101562 659.362304688 695.231445312 c 0
 654.13671875 699.1875 646 700 636.965820312 700 c 2
 627.900390625 700 l 1
 627.900390625 700 627.100585938 702.6875 627.100585938 706.434570312 c 0
 627.100585938 709.340820312 627.58203125 712.884765625 629.291992188 716.3046875 c 0
 633.291992188 724.3046875 640.900390625 730 640.900390625 730 c 1
 853.930664062 730 l 1
 853.930664062 730 855.239257812 727.947265625 855.239257812 725.005859375 c 0
 855.239257812 721.961914062 854.85546875 717.963867188 853.291992188 714.3046875 c 0
 849.935546875 706.447265625 839.900390625 700 839.900390625 700 c 1
 834.965820312 700 l 0
 826.868164062 700 818.810546875 699.99609375 811.57421875 698.223632812 c 1
 795.610351562 694.749023438 784.95703125 675.787109375 781.723632812 664.701171875 c 1
 757.818359375 572.98828125 740.771484375 490.736328125 718.78515625 398.716796875 c 1
 691.7890625 283.149414062 669.80078125 182.615234375 643.793945312 67 c 1
 643.4375 65.4873046875 642.287109375 59.154296875 642.287109375 57.8251953125 c 0
 642.287109375 50.8662109375 644.552734375 37.0458984375 652.776367188 33.7265625 c 0
 660.510742188 30.6044921875 666.8515625 30 674.965820312 30 c 0
 683.880859375 30 l 1
 683.880859375 30 684.239257812 27.947265625 684.239257812 25.005859375 c 0
 684.239257812 21.9619140625 683.85546875 17.9638671875 682.291992188 14.3046875 c 0
 678.935546875 6.447265625 668.900390625 0 668.900390625 0 c 1
 459 0 l 1
EndSplineSet
EndChar

StartChar: m
Encoding: 109 109 6
GlifName: m
Width: 905
VWidth: 0
Flags: W
HStem: -10.4502 52.3506<734.394 822.12> 0 21G<3.87988 111.718 333.512 443.238> 457.941 54.5781<78.8851 158.504> 465.7 46.75<275.699 397.918 601.837 718.754>
VStem: 682.557 99.3818<42.1785 162.195> 750.255 95.6426<265.038 434.316>
LayerCount: 2
Fore
SplineSet
682.556640625 50.7080078125 m 0x98
 682.556640625 69.943359375 690.868164062 107.87109375 701.196289062 148.327148438 c 2
 744 331 l 1
 748.206054688 348.541992188 750.254882812 364.53125 750.254882812 378.548828125 c 0
 750.254882812 426.834960938 712.013671875 465.700195312 655.825195312 465.700195312 c 3
 619.998046875 465.700195312 577.670898438 444.16796875 533.229492188 397.08203125 c 1
 532.409179688 392.553710938 530.998046875 387.71875 529.368164062 380.830078125 c 0
 438.463867188 0 l 1
 333.51171875 0 l 1
 415 351 l 1
 417.686523438 362.3046875 418.978515625 373.2421875 418.978515625 383.282226562 c 0
 418.978515625 435.387695312 389.228515625 465.700195312 346.142578125 465.700195312 c 0x54
 305.837890625 465.700195312 241.013671875 431.275390625 199 390 c 1
 107 0 l 1
 3.8798828125 0 l 1
 92.083984375 376.403320312 l 0
 98.298828125 401.606445312 107.590820312 441.322265625 107.590820312 446.50390625 c 4
 107.590820312 454.768554688 100.516601562 457.94140625 89.791015625 457.94140625 c 4
 75.017578125 457.94140625 57.8271484375 442.96484375 42.75 426.224609375 c 5
 31.2890625 446.997070312 l 1
 48.7333984375 479.260742188 104.489257812 512.51953125 155.466796875 512.51953125 c 0x64
 209.422851562 512.51953125 216.41796875 489.666015625 216.41796875 473.075195312 c 0
 216.41796875 465.346679688 215 458.678710938 214 449 c 1
 260.110351562 495.5 326.896484375 512.450195312 384.19140625 512.450195312 c 0
 437.770507812 512.450195312 513.600585938 494.07421875 532.099609375 439.70703125 c 1
 584.212890625 497.655273438 638.930664062 506.522460938 697.0859375 506.522460938 c 0
 772.758789062 506.522460938 845.897460938 449.623046875 845.897460938 357.8125 c 0x14
 845.897460938 344.931640625 844.200195312 331.108398438 840.557617188 316.189453125 c 1
 796.504882812 133.19921875 l 1
 791.275390625 110.8671875 781.938476562 69.92578125 781.938476562 59.572265625 c 0
 781.938476562 50.0869140625 790.422851562 41.900390625 799.786132812 41.900390625 c 0
 811.952148438 41.900390625 830.5546875 46.0390625 852.235351562 62.5498046875 c 1
 864.810546875 51.802734375 l 17
 843.29296875 16.552734375 793.709960938 -10.4501953125 753.94140625 -10.4501953125 c 0
 714.846679688 -10.4501953125 682.556640625 14.5810546875 682.556640625 50.7080078125 c 0x98
EndSplineSet
EndChar

StartChar: w
Encoding: 119 119 7
GlifName: w
Width: 780
VWidth: 0
Flags: W
HStem: 421.487 90.1133<632.863 693.929> 442.3 69.7002<94.5812 182.765>
VStem: 115.844 107.778<190.608 442.298> 358.287 83.4648<316.903 421.971> 468.471 41.541<318.918 422.243> 694.126 52.585<342.701 420.937>
LayerCount: 2
Fore
SplineSet
223.622070312 463.171875 m 0x7c
 224.025390625 437.970703125 223.536132812 381.802734375 231.825195312 292.9765625 c 0
 241.514648438 189.180664062 255.34375 119.498046875 265.184570312 84.1142578125 c 1
 290.475585938 115.38671875 334.934570312 170.8828125 371.948242188 221.422851562 c 1
 366.173828125 271.056640625 358.287109375 329.90234375 358.287109375 377.696289062 c 0
 358.287109375 417 363.294921875 446.970703125 381.032226562 459.13671875 c 0
 392.82421875 467.225585938 415.314453125 468.229492188 426.790039062 468.229492188 c 0
 481.380859375 468.229492188 510.01171875 419.130859375 510.01171875 373.561523438 c 0
 510.01171875 329.591796875 484.340820312 274.284179688 465.109375 243.208007812 c 1
 475.100585938 164.303710938 493.583984375 118.986328125 504.396484375 92.2177734375 c 1
 555.939453125 157.858398438 694.125976562 343.044921875 694.125976562 404.993164062 c 0
 694.125976562 416.841796875 687.298828125 421.487304688 683.040039062 421.487304688 c 0
 679.6484375 421.487304688 664.556640625 413.73828125 649.5078125 413.73828125 c 0
 621.397460938 413.73828125 606.87890625 442.96484375 606.87890625 461.875 c 0
 606.87890625 492.725585938 631.150390625 511.600585938 663.118164062 511.600585938 c 0xbc
 687.314453125 511.600585938 704.533203125 499.905273438 718.03515625 485.061523438 c 0
 738.626953125 462.420898438 746.7109375 434.16015625 746.7109375 405.805664062 c 0
 746.7109375 369.259765625 733.71484375 331.717773438 715.380859375 300.3203125 c 0
 660.918945312 207.0546875 584.833007812 125.33984375 497.045898438 7.4755859375 c 0
 490.860351562 -1.328125 479.649414062 -11.5498046875 465.067382812 -11.5498046875 c 0
 448.325195312 -11.5498046875 438.654296875 1.3662109375 434.92578125 10.4453125 c 0
 417.046875 54.001953125 400.639648438 90.7685546875 385.623046875 174.271484375 c 1
 346.573242188 121.174804688 299.838867188 62.8642578125 252.9765625 5.892578125 c 0
 246.444335938 -2.048828125 235.116210938 -11.5498046875 220.403320312 -11.5498046875 c 0
 204.8125 -11.5498046875 196.444335938 0.978515625 192.921875 7.576171875 c 0
 163.3046875 61.357421875 143.219726562 104.608398438 123.551757812 272.271484375 c 0
 116.478515625 332.568359375 115.84375 371.897460938 115.84375 396.888671875 c 0
 115.84375 416.645507812 116.927734375 435.694335938 116.9609375 438.795898438 c 0
 116.443359375 439.8359375 112.302734375 442.299804688 110.211914062 442.299804688 c 0
 94.9794921875 442.299804688 77.0185546875 434.4140625 58.359375 419.107421875 c 2
 53.3115234375 414.966796875 l 1
 48.2431640625 419.08203125 l 1
 36.322265625 428.76171875 l 1
 31.0908203125 433.009765625 l 1
 34.3876953125 438.88671875 l 2
 55.5703125 476.647460938 103.591796875 512 162.340820312 512 c 0
 203.189453125 512 223.333007812 481.025390625 223.622070312 463.171875 c 0x7c
446.217773438 315.352539062 m 1
 457.645507812 340.6953125 468.470703125 359 468.470703125 386.47265625 c 0
 468.470703125 405 456 416 447.762695312 423.2109375 c 1
 442 400 441.751953125 375.543945312 441.751953125 359.234375 c 0
 441.751953125 351.991210938 444.40625 328.372070312 446.217773438 315.352539062 c 1
EndSplineSet
EndChar

StartChar: x
Encoding: 120 120 8
GlifName: x
Width: 659
VWidth: 0
Flags: W
HStem: -8.75977 58.0557<89.605 170.889 429.781 544.364> 439.563 70.9395<494.126 574.973> 454.9 57.0996<151.375 262.709>
LayerCount: 2
Fore
SplineSet
82.1669921875 102.90234375 m 0xc0
 134.94921875 102.90234375 123.854492188 49.2958984375 137.862304688 49.2958984375 c 0
 144.53515625 49.2958984375 176.251586984 72.23046875 194.054092421 92.052734375 c 0
 223.607990274 124.962890625 245.034412791 156.569335938 293.598788441 245.168945312 c 1
 273.129742832 327.166992188 225.036221122 410.566140676 210 435 c 0
 202 448 191 454.900390625 176.418945312 454.900390625 c 0
 161.090820312 454.900390625 142.859375 436.3359375 129.499023438 420.62890625 c 2
 124.0078125 414.173828125 l 1
 117.879882812 420.02734375 l 1
 108.33203125 429.147460938 l 1
 104.043945312 433.243164062 l 1
 106.71484375 438.537109375 l 2
 126.704101562 478.1484375 164.930664062 512 228.70703125 512 c 0xa0
 296.7109375 512 341.462519665 401.994140625 362.45219011 335.47265625 c 1
 404.924539193 399.397460938 423.211870117 425.865234375 463.190538749 463.272460938 c 0
 487.66195171 486.170898438 516.52734375 510.502929688 558.2890625 510.502929688 c 0
 591.657226562 510.502929688 624.350585938 493.729492188 624.350585938 454.34375 c 0
 624.350585938 433.561523438 608.2578125 406.33984375 574.807617188 406.33984375 c 0
 556.1171875 406.33984375 544.958007812 419.061523438 537.057617188 429.130859375 c 0
 530.013671875 438.115234375 527.241210938 439.563476562 525.748046875 439.563476562 c 0
 511.397460938 439.563476562 501.244225178 434.09765625 489.537837661 423.205078125 c 0
 450.236288167 386.63671875 426.325390746 353.307617188 379.041608995 280.475585938 c 0
 379.791349672 277.579101562 379.625649822 278.2265625 380.000008742 277.06640625 c 0
 403.852604364 202.942382812 420.4140625 164.159179688 461.694335938 93.53515625 c 0
 475.79296875 69.4150390625 496.853179166 50.955078125 506.020507812 50.955078125 c 0
 524.877929688 50.955078125 542.107421875 60.2236328125 559.783203125 78.9736328125 c 2
 564.567382812 84.0478515625 l 1
 570.350585938 80.0595703125 l 1
 582.28125 71.83203125 l 1
 587.720703125 68.080078125 l 1
 584.86328125 62.24609375 l 2
 566.727539062 25.2275390625 535.735351562 -6 477.799742148 -6 c 0
 381.761336772 -6 339.512989337 117.76953125 317.34603169 190.130859375 c 1
 278.657162504 118.186523438 257.207214699 87.099609375 229.545568215 58.865234375 c 0
 194.39265199 22.9853515625 153.621283461 -8.759765625 105.872070312 -8.759765625 c 0
 73.337890625 -8.759765625 30.703125 10.3701171875 30.703125 46.7001953125 c 0
 30.703125 75.76953125 50.560546875 102.90234375 82.1669921875 102.90234375 c 0xc0
EndSplineSet
EndChar

StartChar: X
Encoding: 88 88 9
GlifName: X_
Width: 672
VWidth: 0
Flags: W
HStem: 0 30<-58.1338 -12.9338 79.0952 107.9 379.866 420.947 561.379 588.431> 700 30<126.866 157.948 284.408 339 568.866 594.212 691.681 737.9>
LayerCount: 2
Fore
SplineSet
588.430664062 0 m 1
 368 0 l 1
 367.900390625 0 367.100585938 2.6875 367.100585938 6.4345703125 c 0
 367.100585938 9.3408203125 367.58203125 12.884765625 369.291992188 16.3046875 c 0
 373.291992188 24.3046875 379.866210938 30 379.866210938 30 c 1
 385.965820312 30 l 2
 408 30 425.732421875 41.4072265625 425.732421875 59.208984375 c 0
 425.732421875 65.384765625 423.965820312 74.5849609375 420.40234375 84.5634765625 c 1
 319.875976562 310.858398438 l 1
 110.104492188 86.24609375 l 1
 95.18359375 68.330078125 84.505859375 55.8193359375 81.73828125 50.2294921875 c 0
 79.9580078125 46.6337890625 79.08984375 43.5390625 79.08984375 40.923828125 c 0
 79.08984375 33.30078125 86.4609375 29.75 100.090820312 29.75 c 0
 103.114257812 29.75 106.669921875 30 110.965820312 30 c 0
 121 30 l 1
 121 30 123.239257812 26.947265625 123.239257812 24.005859375 c 0
 123.239257812 20.9619140625 122.85546875 17.9638671875 121.291992188 14.3046875 c 0
 117.935546875 6.447265625 107.900390625 0 107.900390625 0 c 1
 -70.099609375 0 l 1
 -70.099609375 0 -70.8994140625 2.6875 -70.8994140625 6.4345703125 c 0
 -70.8994140625 9.3408203125 -70.41796875 12.884765625 -68.7080078125 16.3046875 c 0
 -64.7080078125 24.3046875 -58.1337890625 30 -58.1337890625 30 c 1
 -53.0341796875 30 l 0
 -17.984375 30 -9.927734375 49.2880859375 12.806640625 73.0419921875 c 1
 290.896484375 367.459960938 l 1
 239.9609375 497.594726562 187.767578125 620.694335938 162 677 c 1
 155.05859375 693.317382812 147.875976562 700 121.965820312 700 c 0
 114.900390625 700 l 1
 114.900390625 700 114.100585938 702.6875 114.100585938 706.434570312 c 0
 114.100585938 709.340820312 114.58203125 712.884765625 116.291992188 716.3046875 c 0
 120.291992188 724.3046875 126.866210938 730 126.866210938 730 c 1
 339 730 l 1
 339 730 341.239257812 726.947265625 341.239257812 724.005859375 c 0
 341.239257812 720.961914062 340.85546875 717.963867188 339.291992188 714.3046875 c 0
 335.935546875 706.447265625 325.900390625 700 326.430664062 700 c 1
 320.965820312 700 l 0
 293.594726562 700 278.76953125 687.362304688 278.76953125 666.754882812 c 0
 278.76953125 662.033203125 282.49609375 653.0859375 285.47265625 645.580078125 c 0
 374.536132812 447.005859375 l 1
 568.775390625 642.697265625 l 1
 587.625 663.641601562 595.275390625 669.681640625 595.275390625 680.924804688 c 0
 595.275390625 686.442382812 586.810546875 700 567.965820312 700 c 0
 556.900390625 700 l 1
 556.900390625 700 556.100585938 702.6875 556.100585938 706.434570312 c 0
 556.100585938 709.340820312 556.58203125 712.884765625 558.291992188 716.3046875 c 0
 562.291992188 724.3046875 568.866210938 730 568.866210938 730 c 1
 751 730 l 1
 751 730 753.239257812 726.947265625 753.239257812 724.005859375 c 0
 753.239257812 720.961914062 752.85546875 717.963867188 751.291992188 714.3046875 c 0
 747.935546875 706.447265625 737.900390625 700 737.900390625 700 c 1
 732.965820312 700 l 0
 697.87890625 700 685.911132812 679.72265625 664.1171875 656.951171875 c 1
 407.352539062 389.764648438 l 1
 413.21875 375.079101562 l 1
 476.499023438 238.977539062 527.530273438 117.8359375 554.397460938 58.37890625 c 1
 561.915039062 40.70703125 568.719726562 30 592.965820312 30 c 0
 601 30 l 1
 601 30 603.239257812 26.947265625 603.239257812 24.005859375 c 0
 603.239257812 20.9619140625 602.85546875 17.9638671875 601.291992188 14.3046875 c 0
 597.935546875 6.447265625 587.900390625 0 588.430664062 0 c 1
EndSplineSet
EndChar

StartChar: d
Encoding: 100 100 10
GlifName: d
Width: 598
VWidth: 0
Flags: W
HStem: -6.7998 42.3496<176.191 303.29> 475.85 36.0508<276.148 389.931> 754.15 20G<591.493 597.23>
VStem: 30.2793 106.312<75.9114 300.591> 483.119 120.942<670.564 764.516>
LayerCount: 2
Fore
SplineSet
467.465820312 59.580078125 m 1
 467.465820312 22.5595703125 l 1
 435.0703125 7.904296875 399.669921875 -6.7998046875 362.18359375 -6.7998046875 c 0
 341.263671875 -6.7998046875 326.293711403 10.69921875 326.293711403 23.2353515625 c 0
 326.293711403 23.2353515625 257.039560062 -9.9501953125 209.22264059 -9.9501953125 c 0
 108.479492188 -9.9501953125 30.279296875 41.587890625 30.279296875 161.98828125 c 0
 30.279296875 383.969726562 164.479492188 511.900390625 327.388671875 511.900390625 c 0
 366.370117188 511.900390625 401.46484375 503.635742188 432.209960938 475.251953125 c 1
 478.817382812 671.631835938 l 1
 480.422851562 678.053710938 483.119140625 686.342773438 483.119140625 693.811523438 c 0
 483.119140625 700.366210938 482.750976562 708.141601562 479.094726562 711.638671875 c 0
 473.751953125 716.75 463.622070312 719.100585938 456.801757812 719.100585938 c 0
 448.584960938 719.100585938 l 1
 453.959960938 744.471679688 l 1
 491.499255775 753.922944746 549.609375 762.803710938 586.677734375 772.725585938 c 0
 587.420898438 772.958007812 589.760742188 774.150390625 593.224609375 774.150390625 c 0
 601.236328125 774.150390625 604.061523438 766.616210938 604.061523438 762.415039062 c 0
 604.061523438 757.73828125 602.610351562 752.530273438 601.129882812 746.608398438 c 1
 441.791015625 69.6435546875 l 1
 437.71875 52.4677734375 l 1
 467.465820312 59.580078125 l 1
342 89 m 1
 408 368 l 1
 409.3671875 375.1015625 412.517578125 390.247070312 412.517578125 396.291015625 c 0
 412.517578125 437.248046875 393.013671875 475.849609375 341.083007812 475.849609375 c 0
 219.849609375 475.849609375 136.591796875 318.9765625 136.591796875 165.94140625 c 0
 136.591796875 98.5302734375 163.483398438 35.5498046875 231.416015625 35.5498046875 c 4
 281.608398438 35.5498046875 335.010742188 72.3447265625 342 89 c 1
EndSplineSet
EndChar

StartChar: f
Encoding: 102 102 11
GlifName: f
Width: 492
VWidth: 0
Flags: W
HStem: -179.2 38.1504<-99.1878 -26.6498> 437.063 64.9268<102.4 138.121 255.772 366.181> 732.775 36.0498<354.181 427.116>
LayerCount: 2
Fore
SplineSet
384.006835938 484.899414062 m 0
 384.006835938 477.924804688 372.595703125 448.948242188 370 444 c 2
 366.180664062 437.063476562 l 1
 361.467773438 437.063476562 l 0
 355.899414062 437.063476562 282.713867188 440.797851562 244.05859375 441.155273438 c 1
 142.749023438 16.6806640625 l 0
 110.549804688 -123.77734375 39.687828806 -179.200195312 -89.4501953125 -179.200195312 c 0
 -137.66015625 -179.200195312 -174.852539062 -155.87109375 -201.645507812 -106.751953125 c 1
 -201.645507812 -106.751953125 -205.012695312 -97.9775390625 -205.012695312 -95.6181640625 c 0
 -205.012695312 -72.9560546875 -172.559570312 -60.849609375 -158.75 -60.849609375 c 0
 -94.630859375 -60.849609375 -120.512695312 -141.049804688 -69.884765625 -141.049804688 c 0
 -18.6220703125 -141.049804688 21.2324445442 -78.98046875 43.0302884697 24.125 c 0
 138.12109375 440.807617188 l 1
 114.453125 440.04296875 95.2587890625 436.942382812 95.1650390625 436.927734375 c 0
 82.34375 434.916015625 l 1
 102.400390625 497.560546875 l 1
 151.881835938 497.560546875 l 1
 153.66796875 504.46875 156.553710938 515.831054688 159.557617188 528.693359375 c 0
 161.815429688 538.568359375 165.029296875 548.916992188 167.194335938 557.333007812 c 1
 214.3515625 718.221679688 288.688476562 768.825195312 417.41796875 768.825195312 c 0
 466.096679688 768.825195312 502.1328125 753.033203125 527.194335938 700.774414062 c 1
 530.298828125 695.022460938 531.107421875 690.452148438 531.107421875 687.188476562 c 0
 531.107421875 663.235351562 503.673828125 649.125 488.517578125 649.125 c 0
 427.875976562 649.125 447.879882812 732.775390625 397.854492188 732.775390625 c 0
 345.973632812 732.775390625 295.920898438 666.279296875 267.078125 547.616210938 c 0
 255.772460938 501.990234375 l 1
 353.66015625 501.990234375 l 0
 370.134765625 501.990234375 384.006835938 497.936523438 384.006835938 484.899414062 c 0
EndSplineSet
EndChar

StartChar: j
Encoding: 106 106 12
GlifName: j
Width: 353
VWidth: 0
Flags: W
HStem: -165.7 52.2998<-84.8652 22.4849> 463.3 48.25<159.655 257.494> 608.008 116<233.417 304.73>
VStem: 194.666 106.978<365.175 488.297> 213 112.573<629.147 703.589>
LayerCount: 2
Fore
SplineSet
281.313476562 724.0078125 m 0xe8
 307.765625 724.0078125 325.573242188 703.342773438 325.573242188 677.569335938 c 0
 325.573242188 638.040039062 289.516601562 608.0078125 257.313476562 608.0078125 c 0
 230.212890625 608.0078125 213 628.482421875 213 654 c 0
 213 693.62890625 247.865234375 724.0078125 281.313476562 724.0078125 c 0xe8
301.643554688 472.362304688 m 0xf0
 301.643554688 446.08984375 287.29296875 393.94140625 277.68359375 354.377929688 c 2
 211.643554688 82.474609375 l 1
 208.444335938 67.880859375 204.15234375 53.54296875 200.841796875 39.3583984375 c 1
 187.131835938 -14.115234375 165.881835938 -49.7177734375 113.51171875 -92.5576171875 c 1
 79.0908203125 -120.572265625 0.50390625 -165.700195312 -74.3896484375 -165.700195312 c 4
 -95.3408203125 -165.700195312 -126.213867188 -161.28515625 -146.975585938 -152.54296875 c 1
 -154.737304688 -149.217773438 -158.037109375 -142.54296875 -158.037109375 -136.325195312 c 0
 -158.037109375 -102.088867188 -115.375 -88.2001953125 -90.5400390625 -88.2001953125 c 0
 -57.6435546875 -88.2001953125 -41.6337890625 -113.400390625 -17.71875 -113.400390625 c 0
 -10.5625 -113.400390625 -0.2451171875 -110.668945312 10.2548828125 -105.739257812 c 0
 67.98828125 -79.30859375 78.5908203125 -41.158203125 95.4208984375 25.6162109375 c 0
 177.505859375 366.48046875 l 1
 183.06640625 389.90234375 194.424804688 436.954101562 194.666015625 448.087890625 c 1
 194.666015625 454.8671875 191.568359375 463.299804688 183.661132812 463.299804688 c 0
 165.909179688 463.299804688 149.69140625 456.166015625 127.072265625 436.73828125 c 0
 112.7890625 448.142578125 l 1
 133.73046875 482.966796875 190.213867188 511.549804688 243.810546875 511.549804688 c 4
 271.176757812 511.549804688 301.643554688 500.650390625 301.643554688 472.362304688 c 0xf0
EndSplineSet
EndChar

StartChar: g
Encoding: 103 103 13
GlifName: g
Width: 572
VWidth: 0
Flags: W
HStem: -271.65 40.25<82.77 258.236> 435.302 71.1982<468.461 544.214> 467.2 44.4502<265.601 377.715>
VStem: -40.1611 99.4219<-209.511 -115.765> 85.8613 105.904<168.065 355.511> 351.614 93.4717<-138.687 -27.5288> 393.859 93.4736<241.736 436.112>
LayerCount: 2
Fore
SplineSet
163.166015625 -231.400390625 m 0x9c
 259.459960938 -231.400390625 351.614257812 -174.094726562 351.614257812 -99.3349609375 c 0
 351.614257812 -51.474609375 289.375976562 -47.9970703125 216.248046875 -40.384765625 c 1
 127.638671875 -65.5537109375 59.2607421875 -84.0751953125 59.2607421875 -165.913085938 c 0
 59.2607421875 -209.376953125 100.169921875 -231.400390625 163.166015625 -231.400390625 c 0x9c
191.765625 249.908203125 m 0
 191.765625 188.44140625 205.081054688 136.799804688 255.572265625 136.799804688 c 0
 356.071289062 136.799804688 393.859375 265.961914062 393.859375 375.750976562 c 0
 393.859375 433.856445312 380.646484375 467.200195312 322.704101562 467.200195312 c 0xba
 234.872070312 467.200195312 191.765625 351.436523438 191.765625 249.908203125 c 0
445.0859375 -60.328125 m 0xdc
 445.0859375 -202.841796875 260.58203125 -271.650390625 143.595703125 -271.650390625 c 0
 58.1591796875 -271.650390625 -40.1611328125 -254.416992188 -40.1611328125 -180.487304688 c 0
 -40.1611328125 -83.6943359375 72.9130859375 -52.6943359375 148.798828125 -30.70703125 c 1
 129.252929688 -28.45703125 112.80078125 -25.57421875 99.583984375 -22.2392578125 c 1
 75.3486328125 -16.71484375 53.0400390625 1.615234375 53.0400390625 24.7060546875 c 0
 53.0400390625 69.1845703125 146.724609375 93.3681640625 192.357421875 106.224609375 c 1
 139.580078125 121.1640625 85.861328125 164.924804688 85.861328125 246.74609375 c 0
 85.861328125 409.139648438 209.228515625 511.650390625 336.318359375 511.650390625 c 0xbc
 373.141601562 511.650390625 416.791992188 501.150390625 441.829101562 476.864257812 c 1
 475.046875 497.013671875 500.625 506.5 537.3359375 506.5 c 0
 549.0078125 506.5 554.375 496.3359375 554.375 487.184570312 c 0
 554.375 442.044921875 510.049804688 435.301757812 480.971679688 435.301757812 c 0
 477.96484375 435.301757812 470.294921875 435.705078125 468 436 c 1
 477 418 487.333007812 388.02734375 487.333007812 363.354492188 c 0xda
 487.333007812 118.680664062 299.971679688 110.384765625 181.947265625 57.4541015625 c 0
 175.673828125 54.640625 170.786132812 49.09375 170.786132812 45.591796875 c 0
 170.786132812 41.376953125 174.837890625 36.904296875 183.77734375 34.6337890625 c 0
 187.948242188 33.5751953125 210.171875 31.0947265625 223.795898438 29.884765625 c 0
 249.811523438 27.5751953125 262.251953125 27.44140625 291.889648438 25.673828125 c 0
 374.228515625 20.763671875 445.0859375 5.2705078125 445.0859375 -60.328125 c 0xdc
EndSplineSet
EndChar

StartChar: q
Encoding: 113 113 14
GlifName: q
Width: 598
VWidth: 0
Flags: W
HStem: -9.59961 45.5996<181.839 321.098> 475.15 37.0996<271.918 388.607>
VStem: 35.793 106.091<81.3446 303.886>
LayerCount: 2
Fore
SplineSet
534.458984375 521.326171875 m 2
 537.575195312 523.875976562 520.487304688 526 525.032226562 526 c 0
 528.48046875 526 556.983398438 523.669921875 556.983398438 514.6171875 c 0
 556.983398438 509.821289062 555.251953125 502.91796875 553.883789062 497.447265625 c 2
 381.0546875 -232 l 1
 275.153320312 -232 l 1
 340 22 l 1
 306 0 255.228351842 -9.599609375 213.658642293 -9.599609375 c 0
 101.62890625 -9.599609375 35.79296875 40.91796875 35.79296875 173.159179688 c 4
 35.79296875 371.392578125 154.176495912 512.25 337.952847955 512.25 c 0
 372.466802458 512.25 418.630597102 499.359375 451.678710938 470.342773438 c 1
 534.458984375 521.326171875 l 2
141.883789062 184.109375 m 4
 141.883789062 103.5703125 170.384765625 36 233 36 c 0
 268.760742188 36 324 50 352 74 c 1
 427.807617188 404.47265625 l 1
 427.901367188 404.745117188 l 1
 428.224609375 405.774414062 l 1
 428.1328125 405.978515625 l 2
 409.564453125 446.088867188 380.80078125 475.150390625 327.74609375 475.150390625 c 0
 222.819335938 475.150390625 141.883789062 306.310546875 141.883789062 184.109375 c 4
EndSplineSet
EndChar

StartChar: p
Encoding: 112 112 15
GlifName: p
Width: 575
VWidth: 0
Flags: W
HStem: -12.0254 40.1006<199.848 313.851> 453.925 58.0498<96.6043 179.687> 466.325 45.5<288.823 414.165>
VStem: 441.759 106.015<202.882 429.125>
LayerCount: 2
Fore
SplineSet
-17 -232 m 1xb0
 124.438476562 373.6484375 l 2
 127.560546875 385.911132812 146.706054688 428.442382812 146.706054688 441.6328125 c 4
 146.706054688 447.958984375 138.841796875 453.924804688 130.383789062 453.924804688 c 4
 114.1796875 453.924804688 93.77734375 444.57421875 74.228515625 426.717773438 c 5
 56.30859375 445.3984375 l 1
 77.5078125 482.934570312 115.981445312 511.974609375 165.778320312 511.974609375 c 0xd0
 193.595703125 511.974609375 250.21875 500.829101562 250.21875 475.575195312 c 0
 250.21875 473.374023438 249.70703125 467.814453125 249.056640625 461.848632812 c 1
 284.326171875 492.809570312 322.75390625 511.825195312 366.110351562 511.825195312 c 0
 460.596679688 511.825195312 547.7734375 460.614257812 547.7734375 338.23828125 c 0
 547.7734375 113.977539062 407.938476562 -12.025390625 244.728515625 -12.025390625 c 0
 211.11328125 -12.025390625 178.012695312 -1.6552734375 145.056640625 20.3095703125 c 1
 85.2314453125 -232 l 1
 -17 -232 l 1xb0
366.04296875 466.325195312 m 0xb0
 321.865234375 466.325195312 275.110351562 445.1015625 238.303710938 410.388671875 c 1
 168.373046875 118.547851562 l 1
 175.12109375 63.1064453125 200.486328125 28.0751953125 261.037109375 28.0751953125 c 0
 342.509765625 28.0751953125 441.758789062 168.016601562 441.758789062 327.634765625 c 0
 441.758789062 394.7578125 432.213867188 466.325195312 366.04296875 466.325195312 c 0xb0
EndSplineSet
EndChar

StartChar: o
Encoding: 111 111 16
GlifName: o
Width: 534
VWidth: 0
Flags: W
HStem: -10.375 45.5<145.974 270.958> 465.875 45.5<242.808 354.856>
VStem: 12.6758 105.146<65.9658 286.068> 389.483 104.418<215.713 428.607>
LayerCount: 2
Fore
SplineSet
493.901367188 349.989257812 m 0
 493.901367188 108.9453125 356.359375 -10.375 199.682617188 -10.375 c 0
 89.060546875 -10.375 12.67578125 29.427734375 12.67578125 149.85546875 c 0
 12.67578125 361.249023438 150.693359375 511.375 310.65625 511.375 c 0
 418.828125 511.375 493.901367188 473.053710938 493.901367188 349.989257812 c 0
304.962890625 465.875 m 0
 190.955078125 465.875 117.821289062 288.885742188 117.821289062 150.247070312 c 0
 117.821289062 82.66796875 139.109375 35.125 209.013671875 35.125 c 0
 318.37109375 35.125 389.483398438 225.03125 389.483398438 344.278320312 c 0
 389.483398438 399.455078125 366.75390625 465.875 304.962890625 465.875 c 0
EndSplineSet
EndChar

StartChar: I
Encoding: 73 73 17
GlifName: I_
Width: 357
VWidth: 0
Flags: W
HStem: 0 31<-2.09961 26.0066 178.586 202.9> 700 30<169.5 186.803 338.539 359.9>
LayerCount: 2
Fore
SplineSet
217.077148438 31 m 1
 217.077148438 31 218.239257812 27.947265625 218.239257812 25.005859375 c 0
 218.239257812 21.9619140625 217.85546875 18.9638671875 216.291992188 15.3046875 c 0
 212.935546875 7.447265625 202.900390625 0 202.900390625 0 c 1
 -15.099609375 0 l 1
 -15.099609375 0 -15.8994140625 2.6875 -15.8994140625 6.4345703125 c 0
 -15.8994140625 9.3408203125 -15.41796875 12.884765625 -13.7080078125 16.3046875 c 0
 -9.7080078125 24.3046875 -2.099609375 30 -2.099609375 30 c 1
 2.9658203125 30 l 0
 11.0859375 30 18.099609375 30.8232421875 26.39453125 33.78515625 c 0
 41 39 51.529296875 52.8544921875 55.154296875 67.0498046875 c 0
 105.431640625 263.927734375 154.576171875 466.9609375 196.135742188 662.014648438 c 4
 196.54296875 663.92578125 197.78515625 670.625976562 197.78515625 672.315429688 c 4
 197.78515625 683.443359375 197 689 187.041992188 695.3046875 c 4
 181.965820312 698.518554688 175.012695312 700 166.965820312 700 c 4
 156.900390625 700 l 5
 156.900390625 700 156.100585938 702.6875 156.100585938 706.434570312 c 4
 156.100585938 709.340820312 156.58203125 712.884765625 158.291992188 716.3046875 c 4
 162.291992188 724.3046875 169.5 730 169.5 730 c 5
 373.930664062 730 l 5
 373.930664062 730 375.239257812 726.947265625 375.239257812 724.005859375 c 4
 375.239257812 720.961914062 374.85546875 717.963867188 373.291992188 714.3046875 c 4
 369.935546875 706.447265625 359.900390625 700 359.900390625 700 c 5
 353.965820312 700 l 4
 350.295898438 700 345.849609375 699.469726562 338.181640625 697.145507812 c 4
 324.432617188 692.977539062 314.33984375 674.950195312 311.771484375 664.888671875 c 4
 264.3203125 478.963867188 211.551757812 252.545898438 171 69 c 0
 169.85546875 63.818359375 168.122070312 58.033203125 168.122070312 52.36328125 c 0
 168.122070312 45.0703125 170.833007812 37.6142578125 178.31640625 34.7265625 c 0
 184.025390625 32.5244140625 192.8515625 31 200.965820312 31 c 0
 217.077148438 31 l 1
EndSplineSet
EndChar

StartChar: y
Encoding: 121 121 18
GlifName: y
Width: 539
VWidth: 0
Flags: W
HStem: 452.925 59.25<71.311 155.266>
VStem: 426.814 85.2578<411.04 505.763>
LayerCount: 2
Fore
SplineSet
216.185614025 466.015625 m 0
 218.60698481 441.771484375 235.408960749 337.424804688 237.763697706 290.3125 c 0
 243.286104319 234.38671875 246.974542966 166.395507812 248.560428065 125.705078125 c 1
 278.308844159 162.127929688 318.845789525 216.075195312 356.463148101 276.286132812 c 0
 405.76171875 358.317382812 420.408203125 404.80859375 421.274414062 408.767578125 c 0
 424.28125 428.869140625 422.330078125 452.096679688 426.814453125 476.7578125 c 0
 430.80859375 498.734375 452.095703125 512.040039062 471.4765625 512.040039062 c 0
 504.53125 512.040039062 512.072265625 481.685546875 512.072265625 464.875 c 0
 512.072265625 443.990234375 491.05859375 413.0546875 486.388671875 403.71875 c 0
 466.779296875 364.508789062 469.106445312 363.745117188 411.388671875 268.05859375 c 0
 358.204853844 184.899414062 290.8083251 112.786132812 247.829506232 51.26953125 c 0
 220.730041074 12.4814453125 186.343910573 -40.939453125 168.899174481 -61.37890625 c 0
 138.367554628 -100.036132812 25.2099609375 -251.174804688 -40.6611328125 -251.174804688 c 0
 -62.1845703125 -251.174804688 -65.6064453125 -228.473632812 -65.6064453125 -219.659179688 c 0
 -65.6064453125 -203.841796875 -58.6884765625 -190.689453125 -54.9765625 -183.265625 c 2
 -54.8291015625 -182.970703125 l 1
 -54.6611328125 -182.668945312 l 2
 -20.375 -121.189453125 27.798828125 -137.239257812 60.6438077259 -103.215820312 c 0
 79.7820681775 -84.9052734375 126.587719026 -19.9033203125 137.122014618 -2.330078125 c 0
 140.671034795 7.6025390625 145.785437355 54.3642578125 145.785437355 95.3369140625 c 0
 145.785437355 142.397460938 142.563285667 205.820145838 135.418238901 278.341796875 c 0
 133.149613351 301.368164062 114.071388639 429.678751123 112 439 c 0
 110 448 106 452.924804688 100.706115211 452.924804688 c 0
 85.7914143003 452.924804688 64.3619753116 438.276367188 50.9541015625 421.104492188 c 2
 45.7744140625 414.228515625 l 1
 39.2958984375 419.897460938 l 1
 29.376953125 428.578125 l 1
 24.728515625 432.646484375 l 1
 27.48828125 438.171875 l 2
 44.4658203125 472.174804688 80.8256564328 512.174804688 140.237402347 512.174804688 c 0
 170.295409455 512.174804688 212.628392762 501.625976562 216.185614025 466.015625 c 0
EndSplineSet
EndChar

StartChar: v
Encoding: 118 118 19
GlifName: v
Width: 539
VWidth: 0
Flags: W
HStem: 421.487 90.1133<374.026 435.745> 442.3 69.25<73.6233 166.194>
VStem: 93.1162 109.318<192.323 442.298> 435.896 53.5342<334.703 420.928>
LayerCount: 2
Fore
SplineSet
202.434570312 445.758789062 m 0x70
 202.473632812 414.8828125 203.911132812 365.19921875 211.1640625 293.004882812 c 0
 221.56640625 189.45703125 235.674804688 124.220703125 245.235351562 90.58984375 c 1
 302.44921875 153.314453125 435.895507812 336.40234375 435.895507812 402.85546875 c 0
 435.895507812 414.908203125 427.499023438 421.487304688 423.758789062 421.487304688 c 0
 421.028320312 421.487304688 406.693359375 412.73828125 391.2265625 412.73828125 c 0
 362.893554688 412.73828125 346.447265625 442.752929688 346.447265625 461.875 c 0
 346.447265625 493.237304688 374.232421875 511.600585938 405.836914062 511.600585938 c 0xb0
 430.034179688 511.600585938 447.251953125 499.90234375 460.75390625 485.056640625 c 0
 481.346679688 462.413085938 489.4296875 434.146484375 489.4296875 405.787109375 c 0
 489.4296875 369.234375 476.43359375 331.686523438 458.099609375 300.282226562 c 0
 404.045898438 207.698242188 335.649414062 119.490234375 232.580078125 5.6552734375 c 0
 225.501953125 -2.630859375 215.952148438 -11.5498046875 200.169921875 -11.5498046875 c 0
 183.814453125 -11.5498046875 174.795898438 0.78515625 170.955078125 7.4677734375 c 0
 138.739257812 61.8173828125 120.912109375 104.837890625 101.270507812 272.271484375 c 0
 94.763671875 327.74609375 93.1162109375 365.432617188 93.1162109375 390.749023438 c 0
 93.1162109375 413.423828125 93.6240234375 432.265625 93.677734375 437.348632812 c 0
 92.1123046875 439.295898438 85.3359375 442.299804688 82.9306640625 442.299804688 c 0
 68.1923828125 442.299804688 54.3720703125 437.0390625 35.4541015625 419.436523438 c 2
 29.8740234375 414.243164062 l 1
 24.41796875 419.567382812 l 1
 14.4970703125 429.247070312 l 1
 10.0908203125 433.545898438 l 1
 13.1171875 438.90625 l 2
 34.19921875 476.244140625 84.8134765625 511.549804688 139.295898438 511.549804688 c 0
 193.091796875 511.549804688 203.48828125 472.6328125 203.48828125 457 c 0
 203.48828125 452.00390625 202.72265625 447.500976562 202.434570312 445.758789062 c 0x70
EndSplineSet
EndChar

StartChar: u
Encoding: 117 117 20
GlifName: u
Width: 561
VWidth: 0
Flags: W
HStem: -9.59961 53.5996<144.892 287.046> -7.5 21G<346.836 378.213> 441.75 70.25<86.2345 144.224>
VStem: 36.1523 98.1641<54.2127 206.703> 109.802 108.379<361.229 482.819>
LayerCount: 2
Fore
SplineSet
36.15234375 104.435546875 m 0xb0
 36.15234375 117.508789062 37.9521484375 131.522460938 41.7470703125 146.786132812 c 2
 95.43359375 361.970703125 l 2
 100.576171875 384.142578125 109.618164062 421.88671875 109.801757812 430.080078125 c 0
 109.801757812 435.475585938 101.250976562 441.75 96.0458984375 441.75 c 0
 79.8271484375 441.75 64.2099609375 437.26171875 47.900390625 420.212890625 c 2
 42.3154296875 414.375 l 1
 36.533203125 420.017578125 l 1
 26.6123046875 429.697265625 l 1
 22.2060546875 433.99609375 l 1
 25.232421875 439.356445312 l 2
 46.443359375 476.920898438 95.978515625 512 150.432617188 512 c 0
 178.65234375 512 217.920898438 503.491210938 218.180664062 462.147460938 c 0xa8
 218.180664062 433.916992188 202.428710938 387.856445312 193.890625 349.515625 c 2
 143.119140625 158.294921875 l 2
 140.41015625 147.69921875 134.31640625 122.5 134.31640625 111.641601562 c 0
 134.31640625 57.5478515625 156.119140625 44 202.43359375 44 c 0xb0
 234.375976562 44 281.98046875 54.25390625 327.54296875 80.076171875 c 1
 434.434570312 505.6171875 l 1
 435.875976562 511.799804688 l 1
 442.225585938 511.799804688 l 1
 520.65234375 511.799804688 l 1
 530.686523438 511.799804688 l 1
 528.451171875 502.017578125 l 1
 423.73828125 40.3486328125 l 1
 446.249023438 46.287109375 l 1
 455.416015625 48.705078125 l 1
 456.258789062 39.2666015625 l 1
 458.399414062 15.3046875 l 1
 458.8984375 12 l 1
 453.815429688 10.595703125 l 2
 422.938476562 2.068359375 395.086914062 -7.5 361.33984375 -7.5 c 0x70
 332.333007812 -7.5 322.625 14.728515625 320.803710938 27.908203125 c 1
 275.19921875 3.41796875 234.604492188 -9.599609375 177.557617188 -9.599609375 c 0
 108.772460938 -9.599609375 36.15234375 21.4716796875 36.15234375 104.435546875 c 0xb0
EndSplineSet
EndChar

StartChar: n
Encoding: 110 110 21
GlifName: n
Width: 533
VWidth: 0
Flags: W
HStem: -9.4502 48.3506<393.711 484.366> 0.200195 21G<6.4248 113.716> 456.75 55.7002<82.4544 184.594> 465.5 46.9609<272.605 374.959>
VStem: 343.859 97.9258<39.0049 154.062> 406.295 101.2<296.441 430.442>
LayerCount: 2
Fore
SplineSet
217.708007812 469.471679688 m 0x64
 217.708007812 463.899414062 217.439453125 457.325195312 216.045898438 449.360351562 c 1
 251.012695312 480.686523438 290.838867188 512.4609375 360.124023438 512.4609375 c 0
 442.14453125 512.4609375 507.495117188 446.782226562 507.495117188 359.705078125 c 0x14
 507.495117188 347.25390625 506.916992188 337.942382812 503.522460938 323.55859375 c 2
 458.35546875 133.19140625 l 1
 453.08984375 110.706054688 441.78515625 67.779296875 441.78515625 57.5732421875 c 0
 441.78515625 49.130859375 452.178710938 38.900390625 460.631835938 38.900390625 c 0
 475.545898438 38.900390625 495.353515625 46.00390625 514.08203125 64.5498046875 c 1
 527.784179688 54.0185546875 l 0
 507.086914062 19.2236328125 460.008789062 -9.4501953125 409.594726562 -9.4501953125 c 4
 377.827148438 -9.4501953125 343.859375 12.3251953125 343.859375 46.9853515625 c 0x98
 343.859375 72.5009765625 352.204101562 104.310546875 361.05859375 143.717773438 c 1
 400 310 l 2
 402.227539062 319.38671875 406.294921875 335.491210938 406.294921875 343.853515625 c 0
 406.294921875 409.473632812 382.262695312 465.5 319.82421875 465.5 c 0x94
 270.77734375 465.5 244.5234375 432.876953125 200.775390625 389.739257812 c 1
 109.00390625 0.2001953125 l 1
 6.4248046875 0.2001953125 l 1
 93.6865234375 375.208984375 l 0
 100.561523438 402.556640625 107.912109375 437.34765625 107.912109375 447.260742188 c 0
 107.912109375 452.657226562 99.5166015625 456.75 93.1123046875 456.75 c 0
 79.0126953125 456.75 59.11328125 448.094726562 44.1875 424.060546875 c 1
 34.791015625 445.322265625 l 1
 54.7491969431 480.669189818 105.383789062 512.450195312 161.553710938 512.450195312 c 0
 207.633789062 512.450195312 217.708007812 493.318359375 217.708007812 469.471679688 c 0x64
EndSplineSet
EndChar

StartChar: b
Encoding: 98 98 22
GlifName: b
Width: 559
VWidth: 0
Flags: W
HStem: -3.65039 33.2734<5.94727 39.4706 195.312 300.6> 471.4 40.5<269.345 389.883> 754 20G<299.792 304.164>
VStem: 194.562 119.336<682.523 765.301> 435.996 106.315<198.809 421.076>
LayerCount: 2
Fore
SplineSet
311.345703125 745.498046875 m 0
 247.874023438 480.833984375 l 1
 280.973632812 501.122070312 312.788085938 511.900390625 356.319335938 511.900390625 c 0
 463.860351562 511.900390625 542.311523438 480.563476562 542.311523438 329.053710938 c 0
 542.311523438 124.735351562 424.1015625 -9.9501953125 230.793945312 -9.9501953125 c 0
 193.442382812 -9.9501953125 163.903320312 -0.8251953125 133.66796875 22.7724609375 c 1
 107.561523438 3.890625 63.28515625 -3.650390625 6.4267578125 -3.650390625 c 0
 -2.2001953125 -3.650390625 l 1
 5.947265625 29.623046875 l 1
 11.626953125 29.623046875 l 0
 31.5478515625 29.623046875 44.044921875 46.0703125 46.6064453125 56.9453125 c 0
 190.89453125 677.578125 l 0
 191.9765625 682.010742188 194.561523438 693.323242188 194.561523438 697.165039062 c 0
 194.561523438 705.987304688 192.418945312 712.471679688 187.81640625 715.48828125 c 0
 184.9140625 717.390625 177.693359375 718.950195312 168.850585938 718.950195312 c 0
 159.565429688 718.950195312 l 1
 164.971679688 745.25390625 l 1
 289.3671875 770.701171875 l 0
 291.318359375 771.208007812 297.185546875 774 302.3984375 774 c 0
 305.928710938 774 313.897460938 770.192382812 313.897460938 760.41015625 c 0
 313.897460938 755.986328125 312.879882812 751.799804688 311.345703125 745.498046875 c 0
236 429 m 1
 158 104 l 2
 156.954671884 99.6444661814 157.501953125 97.263671875 157.501953125 93.8681640625 c 0
 157.501953125 60.06640625 196.38671875 35.150390625 252.521484375 35.150390625 c 0
 363.276367188 35.150390625 435.99609375 184.23828125 435.99609375 338.88671875 c 0
 435.99609375 405.890625 396.327148438 471.400390625 340.051757812 471.400390625 c 4
 304.197265625 471.400390625 272.627929688 456.823242188 236 429 c 1
EndSplineSet
EndChar

StartChar: h
Encoding: 104 104 23
GlifName: h
Width: 617
VWidth: 0
Flags: W
HStem: -9.97461 53.582<406.683 494.658> -0.325195 21G<7.58008 114.812> 472.375 39.5498<286.649 396.676> 753.949 20G<276.441 279.28>
VStem: 171.637 118.965<671.556 768.104> 362.131 94.0537<26.7208 155.038> 425.133 94.5205<249.73 438.553>
LayerCount: 2
Fore
SplineSet
362.130859375 44.2265625 m 1xbc
 362.130859375 70.5517578125 370.697265625 100.813476562 380.387695312 140.296875 c 2
 421 315 l 2
 423.803710938 326.7578125 425.1328125 340.994140625 425.1328125 351.494140625 c 0
 425.1328125 420.54296875 406.3203125 472.375 348.75390625 472.375 c 0
 318.284179688 472.375 267.327148438 451.02734375 202.731445312 388.499023438 c 1
 110.044921875 -0.3251953125 l 1
 7.580078125 -0.3251953125 l 1
 166.915039062 675.568359375 l 5
 168.030273438 680.30078125 171.63671875 695.86328125 171.63671875 699.423828125 c 4
 171.63671875 708.061523438 169.96484375 711.384765625 164.797851562 715.438476562 c 4
 162.168945312 717.501953125 149.498046875 718.899414062 144.591796875 718.899414062 c 4
 135.525390625 718.899414062 l 5
 141.146484375 745.28125 l 1
 264.926757812 770.649414062 l 0
 267.470703125 771.307617188 275.33203125 773.94921875 277.55078125 773.94921875 c 0
 281.008789062 773.94921875 290.6015625 772.836914062 290.6015625 763.370117188 c 0
 290.6015625 759.028320312 289.639648438 754.01171875 288.033203125 747.422851562 c 0
 216.415039062 446.698242188 l 1
 266.528320312 496.115234375 322.073242188 511.924804688 374.400390625 511.924804688 c 0
 441.215820312 511.924804688 519.653320312 455.934570312 519.653320312 358.564453125 c 0x7a
 519.653320312 345.8046875 518.028320312 332.15625 514.53515625 317.424804688 c 2
 468.754882812 129.737304688 l 2
 463.5078125 107.336914062 456.184570312 69.39453125 456.184570312 59.0751953125 c 0
 456.184570312 47.7861328125 464.286132812 43.607421875 473.005859375 43.607421875 c 0
 487.61328125 43.607421875 512.567382812 52.3388671875 525.482421875 65.0244140625 c 1
 539.981445312 52.1572265625 l 0
 519.377929688 19.888671875 466.61328125 -9.974609375 422.1875 -9.974609375 c 0
 391.178710938 -9.974609375 362.399414062 9.8310546875 362.130859375 44.2265625 c 1xbc
EndSplineSet
EndChar

StartChar: t
Encoding: 116 116 24
GlifName: t
Width: 384
VWidth: 0
Flags: W
HStem: -13.875 68.9502<122.73 214.466> 441.643 52.5635<96.0133 157.932> 448.151 58.8486<274.04 342.357>
VStem: 75.6846 98.4502<33.625 159.851>
LayerCount: 2
Fore
SplineSet
140.78515625 -13.875 m 0xb0
 104.67578125 -13.875 75.6845703125 14.6669921875 75.6845703125 52.5830078125 c 0
 75.6845703125 80.140625 88.5615234375 125.918945312 98.1787109375 164.240234375 c 2
 157.931640625 440.610351562 l 1
 139.673828125 440.713867188 117.8203125 440.294921875 109.671875 441.642578125 c 0
 94.62109375 444.1328125 95.361328125 461.266601562 95.361328125 463.213867188 c 0
 95.361328125 471.5703125 96.2568359375 494.206054688 117.799804688 494.206054688 c 0xd0
 121.741210938 494.206054688 151.940429688 494.30078125 170.713867188 494.809570312 c 1
 179.518554688 527.077148438 194.4921875 603.360351562 204.080078125 632.440429688 c 0
 212.43359375 657.776367188 279.744140625 653.483398438 279.744140625 653.483398438 c 2
 291.943359375 653.483398438 302.185546875 643.518554688 302.185546875 629.654296875 c 0
 302.185546875 624.118164062 301.279296875 618.44140625 299.619140625 610.97265625 c 0
 294.3984375 590.16796875 281.498046875 536.84375 274.040039062 506.063476562 c 1
 297.950195312 506.33984375 313.294921875 507 322.549804688 507 c 0
 335.619140625 507 355.974609375 503.502929688 355.974609375 483.404296875 c 0
 355.974609375 474.163085938 353.044921875 467.440429688 349.482421875 460.6875 c 2
 344.657226562 452.198242188 l 1
 342.357421875 448.151367188 l 1
 337.702148438 448.151367188 l 1
 333.215820312 448.151367188 l 2
 329.150390625 448.151367188 287.494140625 448.94921875 260.663085938 449.154296875 c 1
 234.641601562 347.233398438 214.20703125 235.990234375 189.494140625 135.2890625 c 0
 184.171875 113.19140625 174.134765625 74.623046875 174.134765625 66.7734375 c 0
 174.134765625 61.4462890625 177.856445312 55.0751953125 184.982421875 55.0751953125 c 0
 203.861328125 55.0751953125 223.606445312 63.58203125 235.969726562 78.296875 c 2
 241.60546875 85.00390625 l 1
 247.774414062 78.7841796875 l 1
 258.111328125 68.36328125 l 1
 262.344726562 64.095703125 l 1
 259.422851562 58.8408203125 l 2
 236.087890625 16.880859375 197.26171875 -13.875 140.78515625 -13.875 c 0xb0
EndSplineSet
EndChar

StartChar: z
Encoding: 122 122 25
GlifName: z
Width: 521
VWidth: 0
Flags: W
HStem: -9.93945 68.001<178.714 379.251> 418.29 67.625<213.491 366.905> 439.265 63.085<145.656 359.292>
VStem: 64.8242 82.2871<389.128 433.978> 378.683 86.374<65.7788 114.629>
LayerCount: 2
Fore
SplineSet
106.809570312 383.728515625 m 0xb8
 79.931640625 383.728515625 64.82421875 407.196289062 64.82421875 423.359375 c 0
 64.82421875 455.091796875 103.900390625 502.349609375 209.6796875 502.349609375 c 0xb8
 292.235351562 502.349609375 294.348632812 485.915039062 372.831054688 485.915039062 c 0
 425.080078125 485.915039062 457.25390625 502.540039062 480.89453125 502.540039062 c 0
 490.884765625 502.540039062 505.028320312 500.936523438 505.028320312 489.470703125 c 0
 505.028320312 473.571289062 489.090820312 462.374023438 483.596679688 456.162109375 c 0
 461.994140625 431.7421875 365.419921875 327.62109375 281.611328125 241.0390625 c 0
 230.919921875 188.669921875 164.373046875 124.749023438 128.241210938 86.5439453125 c 1
 194.65234375 81.7626953125 249.813476562 58.0615234375 308.762695312 58.0615234375 c 0
 322.461914062 58.0615234375 359.345703125 62.0595703125 380.481445312 65.5859375 c 1
 379.064453125 69.7138671875 378.682617188 72.94921875 378.682617188 76.9951171875 c 0
 378.682617188 97.904296875 395.90625 120.583007812 421.459960938 120.583007812 c 0
 445.891601562 120.583007812 465.056640625 100.427734375 465.056640625 75.8681640625 c 0
 465.056640625 5.71875 378.44921875 -9.939453125 296.744140625 -9.939453125 c 0
 211.24609375 -9.939453125 171.327148438 11.2451171875 95.2451171875 11.2451171875 c 0
 56.2626953125 11.2451171875 21.1171875 -9.607421875 -5.693359375 -9.607421875 c 0
 -16.970703125 -9.607421875 -28.2001953125 -1.08203125 -28.2001953125 12.1142578125 c 0
 -28.2001953125 20.0859375 -23.94921875 25.5009765625 -22.115234375 27.7265625 c 0
 21.509765625 80.6875 143.313476562 184.521484375 224.993164062 267.973632812 c 0
 278.370117188 322.508789062 333.952148438 381.395507812 366.905273438 418.500976562 c 5
 362.72265625 418.333007812 359.802734375 418.290039062 356.022460938 418.290039062 c 4xd8
 288.901367188 418.290039062 243.806640625 439.264648438 175.884765625 439.264648438 c 0
 163.735351562 439.264648438 152.384765625 436.645507812 145.0234375 434.215820312 c 1
 147.020507812 429.079101562 147.111328125 427.748046875 147.111328125 424.014648438 c 0
 147.111328125 405.303710938 134.124023438 383.728515625 106.809570312 383.728515625 c 0xb8
EndSplineSet
EndChar

StartChar: l
Encoding: 108 108 26
GlifName: l
Width: 308
VWidth: 0
Flags: W
HStem: -9.65039 53.4229<90.0054 174.322> 753.851 20G<281.36 285.696>
VStem: 27.3105 103.449<44.4988 154.144> 173.105 120.851<670.069 765.46>
LayerCount: 2
Fore
SplineSet
27.310546875 48.34375 m 0
 27.310546875 74.0615234375 36.111328125 106.390625 45.4453125 145.969726562 c 2
 169.18359375 677.592773438 l 5
 170.474609375 683.1875 173.10546875 696.09765625 173.10546875 700.06640625 c 4
 173.10546875 708.6875 169.469726562 713.013671875 165.46875 715.489257812 c 4
 161.250976562 718.098632812 148.877929688 718.900390625 144.5 718.900390625 c 4
 135.701171875 718.900390625 l 5
 144.782226562 745.254882812 l 1
 275.849609375 772.62890625 l 0
 277.994140625 773.181640625 279.969726562 773.850585938 282.75 773.850585938 c 0
 288.641601562 773.850585938 293.956054688 768.831054688 293.956054688 762.08984375 c 0
 293.956054688 758.016601562 293.03125 753.453125 291.619140625 747.419921875 c 1
 145.33984375 134.869140625 l 1
 140.141601562 112.010742188 130.759765625 70.9296875 130.759765625 60.51171875 c 0
 130.759765625 46.61328125 145.264648438 43.7724609375 156.767578125 43.7724609375 c 0
 173.176757812 43.7724609375 193.780273438 57.3916015625 208.484375 68.4208984375 c 1
 217.07421875 58.9345703125 l 1
 195.404296875 20.427734375 156.083984375 -9.650390625 105.412109375 -9.650390625 c 0
 74.5986328125 -9.650390625 27.310546875 13.091796875 27.310546875 48.34375 c 0
EndSplineSet
EndChar

StartChar: r
Encoding: 114 114 27
GlifName: r
Width: 447
VWidth: 0
Flags: W
HStem: -0.200195 21G<31.5 138.797> 432.138 69.8418<295.791 407.269> 452.95 59.25<103.139 190.376>
LayerCount: 2
Fore
SplineSet
31.5 -0.2001953125 m 1xc0
 119.7421875 371.736328125 l 2
 126.060546875 398.3671875 138.96484375 430.637695312 139.20703125 439.768554688 c 1
 139.20703125 446.544921875 131.109375 452.950195312 125.451171875 452.950195312 c 0
 108.557617188 452.950195312 95.142578125 448.78125 73.9443359375 431.388671875 c 9
 56.9580078125 449.791992188 l 1
 75.232421875 482.154296875 134.231445312 512.200195312 175.205078125 512.200195312 c 0xa0
 205.546875 512.200195312 243.232421875 501.033203125 243.232421875 472.702148438 c 0
 243.232421875 462.627929688 241.504882812 452.734375 240.908203125 445.923828125 c 1
 278.504882812 473.274414062 326.508789062 501.979492188 378.901367188 501.979492188 c 0
 386.583984375 501.979492188 439.856445312 501.069335938 439.856445312 464.724609375 c 0
 439.856445312 427.756835938 401.609375 410.895507812 378.901367188 410.895507812 c 0
 350.267578125 410.895507812 325.197265625 432.137695312 304.359375 432.137695312 c 0
 280.348632812 432.137695312 237.134765625 395.041992188 223.71484375 375.08984375 c 1
 134.016601562 -0.2001953125 l 1
 31.5 -0.2001953125 l 1xc0
EndSplineSet
EndChar

StartChar: k
Encoding: 107 107 28
GlifName: k
Width: 549
VWidth: 0
Flags: W
HStem: -9.9248 49.3496<385.535 469.941> 0.724609 21G<-2.57031 104.561> 288.775 37.4492<180.12 202.407> 460.626 51.3594<385.914 432.009> 753.85 20G<265.882 271.55>
LayerCount: 2
Fore
SplineSet
130.826171875 745.174804688 m 1x78
 249.814453125 769.4453125 l 2
 253.661132812 770.65234375 263.7890625 773.849609375 267.974609375 773.849609375 c 0
 275.125 773.849609375 279.4765625 768.454101562 279.4765625 762.584960938 c 0
 279.4765625 759.196289062 278.783203125 750.747070312 277.975585938 747.43359375 c 0
 180.833984375 341.905273438 l 1
 180.3515625 339.63671875 180.116210938 337.396484375 180.116210938 335.762695312 c 0
 180.116210938 327.03125 185.065429688 326.34375 192.201171875 326.224609375 c 1
 203.754882812 329.584960938 267.768887361 389.951171875 305.35519334 424.017578125 c 0
 327.027791781 443.661132812 339.812073191 454.358398438 357.278565253 469.197265625 c 0
 392.952148438 500.57421875 429.866210938 511.985351562 450.831054688 511.985351562 c 0
 477.493164062 511.985351562 496.578125 495.091796875 496.578125 469.62890625 c 0
 496.578125 444.950195312 472.700195312 432.106445312 451.63671875 432.106445312 c 0
 437.424804688 432.106445312 429.364257812 439.71484375 421.517578125 450.296875 c 0
 416.44140625 457.14453125 413.741210938 460.533203125 413.545898438 460.625976562 c 1
 412.134765625 460.625976562 402.9453125 454.26953125 390.1328125 442.747070312 c 1
 356.383789062 411.89453125 l 1
 338.748046875 395.155273438 296.319335938 355.065429688 273 332 c 1
 277.401367188 313.619140625 314.705078125 244.208984375 339.479492188 197.758789062 c 0
 366.091796875 147.864257812 399.774414062 85.8876953125 407.836914062 70.72265625 c 0
 412.627929688 61.7109375 424.201171875 39.4248046875 442.243164062 39.4248046875 c 0
 460.323242188 39.4248046875 478.458984375 46.884765625 496.0703125 63.095703125 c 1
 511.66015625 51.609375 l 1
 491.991210938 18.6572265625 440.931640625 -9.9248046875 402.748046875 -9.9248046875 c 0xb8
 368.321289062 -9.9248046875 340.46451238 8.9736328125 320.872665948 40.892578125 c 0
 311.765486169 55.728515625 289.328424003 97.685546875 245.787184185 182.928710938 c 0
 204.996769057 262.7890625 201.47836885 288.775390625 177.794515102 288.775390625 c 0
 173.897513459 288.775390625 170.161287768 287.797851562 167.673928188 286.424804688 c 1
 99.810546875 0.724609375 l 1
 -2.5703125 0.724609375 l 1
 154.935546875 675.534179688 l 1
 156.385742188 682.022460938 160.198242188 694.999023438 160.198242188 699.533203125 c 3
 160.198242188 707.684570312 157.651367188 711.4140625 153.1015625 714.518554688 c 0
 148 718 137.708984375 718.899414062 133.731445312 718.899414062 c 0
 124.384765625 718.899414062 l 1
 130.826171875 745.174804688 l 1x78
EndSplineSet
EndChar

StartChar: e
Encoding: 101 101 29
GlifName: e
Width: 532
VWidth: 0
Flags: W
HStem: -10.4502 57.6504<176.672 328.95> 470.866 41.584<254.086 372.842>
VStem: 16.6162 113.767<96.895 219.446> 385.336 105.28<363.441 458.152>
LayerCount: 2
Fore
SplineSet
490.616210938 427.643554688 m 0
 490.616210938 257.020507812 218.217773438 240.301757812 133.850585938 221.783203125 c 1
 131.53515625 207.758789062 130.3828125 187.096679688 130.3828125 173.983398438 c 0
 130.3828125 105.862304688 171.287109375 47.2001953125 240.990234375 47.2001953125 c 0
 292.364257812 47.2001953125 357.451171875 64.8388671875 414.930664062 103.958007812 c 1
 417.66015625 96.853515625 418.844726562 83.2421875 418.844726562 74.4853515625 c 0
 418.844726562 72.1357421875 418.254882812 70.2080078125 416.813476562 68.958984375 c 0
 351.780273438 14.5322265625 302.147460938 -10.4501953125 208.815429688 -10.4501953125 c 0
 106.471679688 -10.4501953125 16.6162109375 48.7646484375 16.6162109375 165.73046875 c 0
 16.6162109375 396.784179688 164.237304688 512.450195312 330.999023438 512.450195312 c 0
 426.09375 512.450195312 490.616210938 486.993164062 490.616210938 427.643554688 c 0
321.798828125 470.866210938 m 0
 256.678710938 470.866210938 154.985351562 405.892578125 128.658203125 274.61328125 c 1
 226.739257812 292.836914062 385.3359375 328.1875 385.3359375 409.684570312 c 0
 385.3359375 449.35546875 362.000976562 470.866210938 321.798828125 470.866210938 c 0
EndSplineSet
EndChar

StartChar: c
Encoding: 99 99 30
GlifName: c
Width: 492
VWidth: 0
Flags: W
HStem: -10.4248 58.0996<177.82 317.728> 474.325 37.0996<261.225 354.021>
VStem: 13.6279 112.743<105.795 304.811>
LayerCount: 2
Fore
SplineSet
323.125976562 511.424804688 m 0
 376.291992188 511.424804688 435.956054688 490.00390625 474.177734375 417.225585938 c 0
 475.799258835 414.138023394 477.709960938 410.9765625 477.709960938 406.657226562 c 0
 477.709960938 381.821289062 439.676757812 370.875 423.047851562 370.875 c 0
 354.81640625 370.875 389.072265625 474.325195312 313.639648438 474.325195312 c 0
 230.337890625 474.325195312 126.37109375 332.743164062 126.37109375 195.65625 c 0
 126.37109375 122.196289062 160.448242188 47.6748046875 239.961914062 47.6748046875 c 0
 281.373046875 47.6748046875 342.600585938 63.650390625 390.69140625 101.138671875 c 1
 407.208007812 72.3486328125 l 1
 340.063476562 11.693359375 289.00390625 -10.4248046875 198.379882812 -10.4248046875 c 0
 97.4697265625 -10.4248046875 13.6279296875 38.0185546875 13.6279296875 174.26953125 c 0
 13.6279296875 381.377929688 153.362304688 511.424804688 323.125976562 511.424804688 c 0
EndSplineSet
EndChar

StartChar: a
Encoding: 97 97 31
GlifName: a
Width: 565
VWidth: 0
Flags: W
HStem: -7.27539 55.3506<170.405 299.506> 471.375 40.0498<258.805 384.515> 483.09 20G<518.714 527.46>
VStem: 22.2217 112.355<87.2301 301.75>
LayerCount: 2
Fore
SplineSet
457.255859375 52.537109375 m 1xb0
 457.255859375 21.8349609375 l 1
 432.203125 5.6533203125 410.296875 -7.275390625 382.446289062 -7.275390625 c 0
 358.598632812 -7.275390625 328.05078125 11.8076171875 325.30078125 28.58984375 c 1
 286.704101562 3.9091796875 245.325195312 -10.4248046875 195.9453125 -10.4248046875 c 0
 80.49609375 -10.4248046875 22.2216796875 52.966796875 22.2216796875 166.870117188 c 0
 22.2216796875 377.188476562 155.98046875 511.424804688 320.352539062 511.424804688 c 0xd0
 359.702148438 511.424804688 395.243164062 503.09765625 424.61328125 474.8515625 c 1
 426.954101562 485.383789062 l 1
 431.647460938 486.13671875 l 2
 459.358398438 490.581054688 505.346679688 496.211914062 532.081054688 503.08984375 c 1
 429.826171875 60.4814453125 l 0
 426.041992188 44.5205078125 l 1
 436.26171875 47.068359375 446.9296875 49.796875 457.255859375 52.537109375 c 1xb0
332 83 m 1
 399 362 l 1
 399.373046875 368.484375 404.5390625 387.395507812 404.5390625 393.235351562 c 0
 404.5390625 439.094726562 385.390625 471.375 322.947265625 471.375 c 0
 216.62109375 471.375 134.577148438 339.806640625 134.577148438 169.764648438 c 0
 134.577148438 131.276367188 151.372070312 48.0751953125 223.381835938 48.0751953125 c 0
 268.192382812 48.0751953125 325.254882812 69.7080078125 332 83 c 1
EndSplineSet
EndChar

StartChar: i
Encoding: 105 105 32
GlifName: i
Width: 326
VWidth: 0
Flags: W
HStem: -9.22461 53.3496<94.0889 188.493> 462.825 50.25<104.565 196.651> 610 116<170.103 241.417>
VStem: 47 105.671<44.6319 158.852> 136.897 104.977<364.768 489.955> 149.687 112.573<631.139 705.582>
LayerCount: 2
Fore
SplineSet
218 726 m 4xe4
 244.452148438 726 262.259765625 705.3359375 262.259765625 679.5625 c 4
 262.259765625 640.032226562 226.203125 610 194 610 c 4
 166.899414062 610 149.686523438 630.475585938 149.686523438 655.9921875 c 4
 149.686523438 695.62109375 184.551757812 726 218 726 c 4xe4
241.874023438 474.575195312 m 1xe8
 241.874023438 447.422851562 226.903320312 394.032226562 217.709960938 354.940429688 c 2
 165.556640625 133.36328125 l 0
 159.412109375 108.681640625 152.670898438 75.16796875 152.670898438 61.537109375 c 0
 152.670898438 53.3896484375 157.98046875 44.125 166.846679688 44.125 c 0
 183.311523438 44.125 205.903320312 52.228515625 226.724609375 67.845703125 c 1
 237.3125 58.359375 l 1
 215.612304688 19.783203125 159.697265625 -9.224609375 111.001953125 -9.224609375 c 0
 77.17578125 -9.224609375 47 15.310546875 47 48.189453125 c 0xf0
 47 69.650390625 54.8779296875 104.639648438 65.16015625 143.9453125 c 0
 113.484375 350.796875 l 1
 118.776367188 375.711914062 136.663085938 442.875 136.897460938 452.654296875 c 1
 136.897460938 459.403320312 131.799804688 462.825195312 126.141601562 462.825195312 c 0
 107.993164062 462.825195312 94.4931640625 455.455078125 77.2158203125 438.817382812 c 1
 63.294921875 449.497070312 l 1
 86.7685546875 486.53515625 125.239257812 513.075195312 183.041015625 513.075195312 c 0
 210.26171875 513.075195312 241.678710938 502.29296875 241.874023438 474.575195312 c 1xe8
EndSplineSet
EndChar

StartChar: period
Encoding: 46 46 33
GlifName: period
Width: 212
VWidth: 0
Flags: W
HStem: -18 116<53.4167 124.73>
VStem: 33 112.573<3.13898 77.5819>
LayerCount: 2
Fore
SplineSet
101.313476562 98 m 0
 127.765676349 98 145.573242188 77.3360224183 145.573242188 51.5625 c 0
 145.573242188 12.0323881482 109.517249705 -18 77.3134765625 -18 c 0
 50.2136563003 -18 33 2.47535386892 33 27.9921875 c 0
 33 67.6212828652 67.8646279766 98 101.313476562 98 c 0
EndSplineSet
Validated: 1
EndChar

StartChar: comma
Encoding: 44 44 34
GlifName: comma
Width: 170
VWidth: 0
Flags: W
HStem: -86 26<-7.25914 24.7019>
VStem: 45.2598 93.0498<-24.3086 71.7804>
LayerCount: 2
Fore
SplineSet
93 98 m 0
 121.061787138 98 138.309570312 76.0868374636 138.309570312 51.943359375 c 0
 138.309570312 -30.6464298108 71.2245974935 -86 17 -86 c 0
 3.15033771014 -86 -4.15397500831 -81.7987180503 -5.99438256119 -80.7948593851 c 1
 -7.27921785403 -80.0940401344 l 1
 -17.3262379212 -60 l 1
 -6 -60 l 0
 8.0722045076 -60 45.259765625 -41.2989521176 45.259765625 -23.900390625 c 0
 45.259765625 -21.2115142793 43.9464475704 -17.9750205247 42.1993719516 -14.935237114 c 1
 32.2250330412 -2.21059497005 20.41015625 4.8390132747 20.41015625 24.8505859375 c 0
 20.41015625 65.4930102274 58.77092395 98 93 98 c 0
EndSplineSet
Validated: 1
EndChar

StartChar: D
Encoding: 68 68 35
GlifName: D_
Width: 817
VWidth: 0
Flags: W
HStem: -3 47<223.079 432.005> 0 30<55.9004 102.619> 682 48<364.152 570.499> 700 30<217.9 236.209>
VStem: 668.703 116.287<322.612 582.651>
LayerCount: 2
Fore
SplineSet
205.291015625 700 m 1x58
 204.900390625 700 204.100585938 702.6875 204.100585938 706.434570312 c 0
 204.100585938 709.340820312 204.58203125 712.884765625 206.291992188 716.3046875 c 0
 210.291992188 724.3046875 217.900390625 730 217.900390625 730 c 1
 356.358390284 730 l 0
 406.666711938 730 457.070468616 731 506.546998695 731 c 0
 663.759624858 731 784.990234375 641.958007812 784.990234375 467.926757812 c 0
 784.990234375 170.607421875 559.869057943 -3 322.411650027 -3 c 0
 314.182137237 -3 l 0x98
 302.892676211 -3 281.303264668 -2.0537109375 279.992288814 -1.99609375 c 1
 276.639003452 -1.9248046875 186.074179598 0 170.165663419 0 c 0
 42.900390625 0 l 1
 42.900390625 0 42.1005859375 2.6875 42.1005859375 6.4345703125 c 0
 42.1005859375 9.3408203125 42.58203125 12.884765625 44.2919921875 16.3046875 c 0
 48.2919921875 24.3046875 55.900390625 30 55.900390625 30 c 1
 59.9658203125 30 l 0
 68.0859375 30 75.072265625 30.9921875 82.39453125 32.78515625 c 1
 98.79296875 36.1669921875 105.696289062 46.6171875 108.15625 57.056640625 c 1
 137.180664062 172.741210938 157 268 188.897460938 402.796875 c 24
 214 509 226.39453125 574.759765625 247 666 c 1
 247.466796875 667.926757812 248.669921875 675.614257812 248.669921875 677.3125 c 0
 248.669921875 687.58203125 245.868164062 695.674804688 236.49609375 698.223632812 c 0
 230.384765625 699.885742188 224 700 215.513671875 700 c 2
 205.291015625 700 l 1x58
364.125976562 675.872070312 m 1
 361.055664062 660.779296875 l 1
 311.592773438 454.930664062 223.873046875 55.30859375 223.873046875 55.30859375 c 1
 223.16015625 51.693359375 222.751953125 48.42578125 222.751953125 46.5869140625 c 0
 222.751953125 44.8671875 223.071289062 44.12890625 223.071289062 44.126953125 c 1
 223.208007812 44.037109375 225.409179688 43.30859375 228.356445312 43.0029296875 c 1
 299.361328125 44 l 1
 317.923828125 44 l 0
 551.946289062 44 668.703125 260.383789062 668.703125 480.3828125 c 0
 668.703125 626.278320312 587.013671875 682 458.255859375 682 c 0
 371.444335938 682 l 0xa8
 368.2578125 682 364.63671875 678.787109375 364.125976562 675.872070312 c 1
EndSplineSet
EndChar

StartChar: N
Encoding: 78 78 36
GlifName: N_
Width: 809
VWidth: 0
Flags: W
HStem: -9 21G<607.969 617.823> 0 30<-2.5 23.0339 130.051 146.9> 700 30<166.5 183.778 694.5 711.788 816.891 843.9>
LayerCount: 2
Fore
SplineSet
681.900390625 700 m 1x60
 681.900390625 700 681.100585938 702.6875 681.100585938 706.434570312 c 0
 681.100585938 709.340820312 681.58203125 712.884765625 683.291992188 716.3046875 c 0
 687.291992188 724.3046875 694.5 730 694.5 730 c 1
 857.400390625 730 l 1
 857.400390625 730 859.239257812 726.947265625 859.239257812 724.005859375 c 0
 859.239257812 720.961914062 858.85546875 717.963867188 857.291992188 714.3046875 c 0
 853.935546875 706.447265625 843.900390625 700 843.900390625 700 c 1
 839.965820312 700 l 0
 832.034179688 700 823.431640625 699.266601562 816.568359375 697.221679688 c 0
 801.708984375 692.794921875 791.9921875 676.876953125 788.723632812 665.663085938 c 1
 764.809570312 573.8515625 746.383789062 490.869140625 725.78515625 398.501953125 c 0
 696.498046875 267.174804688 665.53125 136.99609375 632.563476562 5.68359375 c 0
 630.178710938 -3.814453125 621.52734375 -9 614.118164062 -9 c 0xa0
 601.8203125 -9 597.53515625 3.46484375 597.53515625 3.46484375 c 1
 472.467773438 207.393554688 365.029296875 377.072265625 241.81640625 579.537109375 c 1
 229.966796875 528.833007812 224.516601562 510.055664062 212.782226562 460.41015625 c 1
 146.79296875 170.456054688 l 1
 138.817382812 134.564453125 128.688476562 98.8876953125 120.879882812 63.845703125 c 1
 120.787109375 63.001953125 119.547851562 56.357421875 119.547851562 53.662109375 c 0
 119.547851562 46.646484375 120.521484375 35.326171875 129.776367188 32.7626953125 c 0
 135.595703125 31.150390625 143.90625 30 151.965820312 30 c 0
 160.930664062 30 l 1
 160.930664062 30 162.239257812 26.947265625 162.239257812 24.005859375 c 0
 162.239257812 20.9619140625 161.85546875 17.9638671875 160.291992188 14.3046875 c 0
 156.935546875 6.447265625 146.900390625 0 146.900390625 0 c 1
 -15 0 l 1
 -15 0 -15.8994140625 2.6875 -15.8994140625 6.4345703125 c 0
 -15.8994140625 9.3408203125 -15.41796875 12.884765625 -13.7080078125 16.3046875 c 0
 -9.7080078125 24.3046875 -2.5 30 -2.5 30 c 1
 0.9658203125 30 l 0
 9.0859375 30 15.6845703125 30.703125 23.39453125 32.78515625 c 0
 39 37 50.63671875 58.3037109375 54.1513671875 69.974609375 c 1
 54.1513671875 69.974609375 103.826171875 267.271484375 134.140625 399.83203125 c 0
 158.715820312 507.296875 192.08984375 663.870117188 192.08984375 663.870117188 c 1
 192.08984375 663.870117188 194.877929688 675.6328125 194.877929688 677.350585938 c 0
 194.877929688 686.392578125 192.625 689.377929688 184.041992188 695.3046875 c 0
 178.459960938 699.159179688 169.984375 700 161.965820312 700 c 0
 153.900390625 700 l 1
 153.900390625 700 153.100585938 702.6875 153.100585938 706.434570312 c 0
 153.100585938 709.340820312 153.58203125 712.884765625 155.291992188 716.3046875 c 0
 159.291992188 724.3046875 166.5 730 166.5 730 c 1
 291.932617188 730 l 1
 609.345703125 207.48046875 l 1
 722.090820312 666.33984375 l 1
 722.090820312 666.33984375 723.78515625 673.807617188 723.78515625 675.30859375 c 0
 723.78515625 682.943359375 722.638671875 691.533203125 712.041992188 696.26953125 c 0
 706.6640625 698.672851562 698.984375 700 690.965820312 700 c 0
 681.900390625 700 l 1x60
EndSplineSet
EndChar

StartChar: L
Encoding: 76 76 37
GlifName: L_
Width: 578
VWidth: 0
Flags: W
HStem: 0 35<-0.5 24.1149 167.615 408.934> 700 30<165.5 183.981 334.471 363.9>
LayerCount: 2
Fore
SplineSet
-13 0 m 1
 -13 0 -13.8994140625 2.6875 -13.8994140625 6.4345703125 c 0
 -13.8994140625 9.3408203125 -13.41796875 12.884765625 -11.7080078125 16.3046875 c 0
 -7.7080078125 24.3046875 -0.5 30 -0.5 30 c 1
 9.97683001822 30.9668100301 15.0440890385 30.3666441585 24.5576171875 32.232421875 c 0
 40.6494140625 35.5537109375 49.701171875 56.0654296875 52.15625 66.4921875 c 1
 81.171875 182.241210938 107.682617188 287.834960938 134.829101562 403.47265625 c 0
 156.506680096 495.814087534 174.1171875 575.736328125 194.1328125 666.982421875 c 1
 194.586914062 668.912109375 195.78515625 675.602539062 195.78515625 677.299804688 c 0
 195.78515625 684.688476562 194.202148438 691.775390625 184.245117188 696.25 c 0
 178.623046875 698.776367188 172.850585938 700 164.965820312 700 c 0
 152.900390625 700 l 1
 152.900390625 700 152.100585938 702.6875 152.100585938 706.434570312 c 0
 152.100585938 709.340820312 152.58203125 712.884765625 154.291992188 716.3046875 c 0
 158.291992188 724.3046875 165.5 730 165.5 730 c 1
 377.930664062 730 l 1
 377.930664062 730 379.239257812 726.947265625 379.239257812 724.005859375 c 0
 379.239257812 720.961914062 378.85546875 717.963867188 377.291992188 714.3046875 c 0
 373.935546875 706.447265625 363.900390625 700 363.900390625 700 c 1
 360.965820312 700 l 2
 349 700 341.677734375 699.326171875 334.116210938 696.395507812 c 0
 321.098632812 691.350585938 311.126953125 673.909179688 308.775390625 663.931640625 c 1
 283.749023438 571.76171875 267.869140625 490.75 246.783203125 398.756835938 c 0
 220.680664062 284.87890625 196.844726562 184.672851562 171.235351562 70.9912109375 c 1
 170.79296875 69.294921875 167.602539062 54.7763671875 167.602539062 53.2099609375 c 0
 167.602539062 45.517578125 171.955078125 39.1142578125 183.645507812 37.8935546875 c 0
 203.518554688 35.9345703125 212.861328125 35 233.538085938 35 c 0
 296.3671875 35 342.498046875 36.0634765625 387.635742188 45.80078125 c 1
 448.107421875 60.2509765625 478.080078125 100.024414062 503.54296875 158.783203125 c 0
 505.248046875 162.71875 l 1
 532.057617188 164.64453125 l 1
 475.931640625 0 l 1
 -13 0 l 1
EndSplineSet
EndChar

StartChar: M
Encoding: 77 77 38
GlifName: M_
Width: 820
VWidth: 0
Flags: W
HStem: 0 30<-6.5 22.3445 125.455 142.9 517.5 543.411 698.38 713.821> 700 30<162.5 191.176 856.18 884.9>
LayerCount: 2
Fore
SplineSet
898.791015625 730 m 1
 898.791015625 730 900.239257812 726.947265625 900.239257812 724.005859375 c 0
 900.239257812 720.961914062 899.85546875 717.963867188 898.291992188 714.3046875 c 0
 894.935546875 706.447265625 884.900390625 700 884.900390625 700 c 1
 880.356445312 700 l 0
 872.379882812 700 864.267578125 698.004882812 855.782226562 696.1796875 c 0
 841 693 832.576171875 678.1015625 829.169921875 664.920898438 c 0
 813.501953125 604.291992188 804 564 787.1796875 492.768554688 c 24
 748 321 724.169921875 214.875976562 688.23828125 69.24609375 c 1
 688.23828125 69.24609375 686.611328125 57.33203125 686.611328125 55.3115234375 c 0
 686.611328125 48.341796875 687.73046875 37.7734375 698.053710938 33.75390625 c 0
 704.981445312 31.056640625 714.336914062 30 722.356445312 30 c 0
 727.930664062 30 l 1
 727.930664062 30 729.239257812 26.947265625 729.239257812 24.005859375 c 0
 729.239257812 20.9619140625 728.85546875 17.9638671875 727.291992188 14.3046875 c 0
 723.935546875 6.447265625 713.821289062 0 713.821289062 0 c 1
 505.390625 0 l 1
 505.390625 0 504.100585938 2.6875 504.100585938 6.4345703125 c 0
 504.100585938 9.3408203125 504.58203125 12.884765625 506.291992188 16.3046875 c 0
 510.291992188 24.3046875 517.5 30 517.5 30 c 1
 520.356445312 30 l 0
 528.4765625 30 535.797851562 30.4765625 543.78515625 32.8232421875 c 0
 558 37 571.083984375 56.9521484375 573.549804688 67.6357421875 c 1
 589.552734375 131.6484375 602.755859375 185.66796875 618.541015625 249.598632812 c 0
 638.547851562 330.627929688 654.629882812 397.581054688 674.268554688 479.600585938 c 5
 681.669921875 509.684570312 687.056640625 541.48046875 693.431640625 569.043945312 c 5
 405.172851562 149.015625 l 1
 402.021484375 144.463867188 388.374023438 127 375.541015625 127 c 0
 364.709960938 127 349.608398438 141.337890625 348.038085938 149.571289062 c 0
 348.038085938 149.571289062 260.69140625 482.498046875 236.603515625 587.666992188 c 1
 116.216796875 69.564453125 l 1
 115.733398438 66.5595703125 114.002929688 56.375 113.978515625 56.0947265625 c 1
 114.245117188 46.9267578125 114.715820312 39.51171875 125.166992188 33.7626953125 c 0
 131.266601562 30.4072265625 140.2421875 30 148.356445312 30 c 0
 156.610351562 30 l 1
 156.610351562 30 158.239257812 26.947265625 158.239257812 24.005859375 c 0
 158.239257812 20.9619140625 157.85546875 17.9638671875 156.291992188 14.3046875 c 0
 152.935546875 6.447265625 142.900390625 0 142.900390625 0 c 1
 -18.609375 0 l 1
 -18.609375 0 -19.8994140625 2.6875 -19.8994140625 6.4345703125 c 0
 -19.8994140625 9.3408203125 -19.41796875 12.884765625 -17.7080078125 16.3046875 c 0
 -13.7080078125 24.3046875 -6.5 30 -6.5 30 c 1
 -2.6435546875 30 l 0
 5.4765625 30 13.3603515625 30.4921875 22.78515625 32.78515625 c 0
 36 36 47.1181640625 58.12890625 49.62890625 70.306640625 c 1
 104.54296875 273.736328125 139.583984375 456.649414062 189.573242188 663.288085938 c 1
 190.404296875 666.434570312 192.181640625 676.478515625 192.181640625 677.596679688 c 0
 192.181640625 696.055664062 178 700 158.356445312 700 c 2
 149.900390625 700 l 1
 149.900390625 700 149.100585938 702.6875 149.100585938 706.434570312 c 0
 149.100585938 709.340820312 149.58203125 712.884765625 151.291992188 716.3046875 c 0
 155.291992188 724.3046875 162.5 730 162.5 730 c 1
 318.95703125 730 l 1
 440.466796875 298.084960938 l 1
 732.692382812 730 l 1
 898.791015625 730 l 1
EndSplineSet
EndChar

StartChar: slash
Encoding: 47 47 39
GlifName: slash
Width: 552
VWidth: 0
Flags: W
HStem: 710.8 20G<496.684 513.124>
LayerCount: 2
Fore
SplineSet
14.2177397208 -108.37281391 m 2
 181.014618247 184.308353971 309.981143384 431.757223772 442.182005124 701.403030567 c 2
 442.975782051 703.022071601 l 1
 443.882955682 704.87240421 l 1
 445.57118132 706.054177859 l 1
 447.048378755 707.088229803 l 2
 469.252859951 722.631573153 488.368447638 730.799804688 505 730.799804688 c 0
 521.247101561 730.799804688 536.552836497 720.100723018 536.552836497 701.264295592 c 0
 536.552836497 697.970121713 536.118985268 694.690109247 535.36579744 691.426606622 c 2
 535.13994752 690.448016982 l 1
 534.881833326 689.329628823 l 1
 534.319686045 688.328926347 l 1
 533.827807173 687.453311679 l 2
 388.44120198 428.644382591 130.842099321 -68.6576551768 123.998596172 -81.8740448662 c 0
 101.362597034 -141.484016546 58.4960989531 -120.273674186 32.4355963467 -129.874945559 c 2
 14.4362806117 -136.506295595 l 1
 -6.13436594234 -144.08498135 l 1
 4.72009041119 -125.038492049 l 1
 14.2177397208 -108.37281391 l 2
EndSplineSet
EndChar

StartChar: S
Encoding: 83 83 40
GlifName: S_
Width: 538
VWidth: 0
Flags: W
HStem: -10 50<139.699 286.749> 696 46<304.289 433.305>
VStem: -13.9883 87.8496<110.144 168.067> 121.27 114.569<507.014 615.234> 373.903 112.317<146.291 271.139>
LayerCount: 2
Fore
SplineSet
73.861328125 171.626953125 m 0
 73.861328125 139.073242188 116.295898438 40 203.638671875 40 c 0
 302.51953125 40 373.903320312 119.685546875 373.903320312 202.548828125 c 0
 373.903320312 264.198242188 321.8984375 317.314453125 261.63671875 365.1640625 c 0
 198.815429688 415.045898438 121.26953125 453.823242188 121.26953125 535.592773438 c 0
 121.26953125 655.251953125 251.555643212 742 396.187846632 742 c 0
 474.705078125 742 556.034179688 715.724609375 556.034179688 688.426757812 c 0
 556.034179688 687.435546875 556.170898438 686.548828125 555.71875 684.508789062 c 1
 552.732421875 670.576171875 527.025390625 598 508.87890625 598 c 0
 480.227539062 598 457.413085938 696 373.212890625 696 c 0
 295.538085938 696 235.838867188 624.690429688 235.838867188 558.649414062 c 0
 235.838867188 507.936523438 288.014648438 479.572265625 342.76953125 435.62890625 c 0
 416.069335938 376.801757812 486.220703125 320.463867188 486.220703125 243.133789062 c 0
 486.220703125 140.840820312 422.83984375 75.7861328125 366.64453125 37.41015625 c 0
 321.69921875 6.53125 259.526463992 -10 182.106771601 -10 c 0
 52.0791015625 -10 -13.98828125 66.662109375 -13.98828125 114.758789062 c 0
 -13.98828125 118.158203125 -13.666015625 121.357421875 -12.9404296875 124.579101562 c 1
 -7.3759765625 147.94921875 40.1435546875 201 62.87890625 201 c 0
 63.1416015625 201 75.0751953125 200.844726562 75.0751953125 191.40234375 c 0
 75.0751953125 189.831054688 75.015625 190.181640625 74.65234375 187.564453125 c 1
 74.28125 184.149414062 73.861328125 177.104492188 73.861328125 171.626953125 c 0
EndSplineSet
EndChar

StartChar: T
Encoding: 84 84 41
GlifName: T_
Width: 673
VWidth: 0
Flags: W
HStem: 0 30<135.5 182.321 315.212 332.9> 695 35<163.789 326.478 453.097 645.771>
VStem: 71 27.7549<590 609.579> 650.271 52.9092<642.877 732.093>
LayerCount: 2
Fore
SplineSet
346.930664062 30 m 1
 346.930664062 30 348.239257812 26.947265625 348.239257812 24.005859375 c 0
 348.239257812 20.9619140625 347.85546875 17.9638671875 346.291992188 14.3046875 c 0
 342.935546875 6.447265625 332.900390625 0 332.900390625 0 c 1
 122.900390625 0 l 1
 122.900390625 0 122.100585938 2.6875 122.100585938 6.4345703125 c 0
 122.100585938 9.3408203125 122.58203125 12.884765625 124.291992188 16.3046875 c 0
 128.291992188 24.3046875 135.5 30 135.5 30 c 1
 140.051757812 30 l 2
 148 30 158.681640625 31.466796875 166.900390625 35.6044921875 c 0
 179.672851562 42.0341796875 186.888671875 46.083984375 189.243164062 56.076171875 c 1
 212.25 147.188476562 234.24609375 239.232421875 256.2265625 330.233398438 c 1
 332.3984375 663.880859375 l 1
 333.181640625 667.580078125 336.021484375 679 336.021484375 682.33203125 c 3
 336.021484375 690.067382812 330.772460938 693.365234375 326.708984375 694.131835938 c 1
 321.84765625 694.896484375 312.359375 695 298.965820312 695 c 0
 266.211914062 695 215.614257812 691.993164062 186.30078125 687.112304688 c 0
 145.763671875 679.390625 106 618 98.7548828125 590 c 1
 71 590 l 1
 120.619140625 728.787109375 l 2
 122.997724715 733.571461388 127.548881293 736 132.051757812 736 c 0
 139.1875 736 151.857421875 734 158.154296875 734 c 1
 192.384765625 732.993164062 308.600585938 730 425.728515625 730 c 1
 529.462890625 731 569.227539062 731.993164062 653.926757812 735 c 1
 656.973632812 735 679.978515625 737 687.051757812 737 c 0
 689.971679688 737 703.1796875 735.201171875 703.1796875 727.971679688 c 0
 703.1796875 724.999023438 702.224609375 721.821289062 701.829101562 720.25 c 1
 668 590 l 1
 642.752929688 589.504882812 l 1
 644.28515625 597.915039062 650.270507812 622.366210938 650.270507812 645.0078125 c 0
 650.270507812 673.51953125 646.463867188 685.9453125 630.338867188 689.211914062 c 0
 607.165039062 693.90625 583.83203125 695 526.865234375 695 c 0
 510.561523438 695 492.904296875 694 474.984375 694 c 0
 456.446289062 694 449.620117188 671.23046875 446.8515625 659.90625 c 1
 417.767578125 545.204101562 397.922851562 461.9609375 368.3125 327.142578125 c 0
 345 221 334 176 307.883789062 68.9921875 c 0
 307.3671875 66.875 306.232421875 59.376953125 306.232421875 57.6806640625 c 0
 306.232421875 50.162109375 306.874023438 39.80078125 314.974609375 34.6953125 c 0
 319.951171875 31.55859375 330.032226562 30 338.051757812 30 c 0
 346.930664062 30 l 1
EndSplineSet
EndChar

StartChar: Q
Encoding: 81 81 42
GlifName: Q_
Width: 770
VWidth: 0
Flags: W
HStem: -147 45<367.25 494.244> 684 49<363.286 553.714>
VStem: 30.1045 123.056<123.624 385.463> 212.638 127.079<-76.1877 -13.4998> 630.553 114.017<323.678 585.527>
LayerCount: 2
Fore
SplineSet
463.475585938 684 m 0
 226.571289062 684 153.16015625 375.0078125 153.16015625 220.567382812 c 0
 153.16015625 52.1767578125 258.154296875 30 315.188476562 30 c 0
 446.256835938 30 630.552734375 178.624023438 630.552734375 487.700195312 c 0
 630.552734375 591.044921875 594.65234375 684 463.475585938 684 c 0
30.1044921875 236.560546875 m 0
 30.1044921875 543.561523438 247.501825801 733 480.053154239 733 c 0
 632.0625 733 744.569335938 641.9453125 744.569335938 470.434570312 c 0
 744.569335938 172.004882812 511.537109375 4.3466796875 344.575195312 -14.455078125 c 1
 341.068359375 -22.8681640625 339.716796875 -29.6416015625 339.716796875 -36.5087890625 c 0
 339.716796875 -72.5732421875 375.999450658 -102 464.597093363 -102 c 0
 471.14680041 -102 479.471539448 -101 488.296386706 -101 c 0
 495.7718474 -101 l 1
 494.244353883 -142.5 l 1
 487.819422328 -142.979492188 l 0
 461.074198238 -144.975585938 437.216923022 -147 414.107294502 -147 c 0
 298.478651581 -147 212.638144736 -114.555664062 212.638144736 -36.1181640625 c 0
 212.638144736 -27.720703125 213.893949682 -17.8798828125 215.773632085 -9.2919921875 c 1
 131.657226562 9.8544921875 30.1044921875 76.3291015625 30.1044921875 236.560546875 c 0
EndSplineSet
EndChar

StartChar: P
Encoding: 80 80 43
GlifName: P_
Width: 642
VWidth: 0
Flags: W
HStem: 0 30<34.5 59.5261 215.414 230.9> 267 61<290.534 415.413> 690 42<344.772 495.438> 700 30<203.5 222.019>
VStem: 552.987 106.574<465.078 643.996>
LayerCount: 2
Fore
SplineSet
190.900390625 700 m 1xd8
 190.900390625 700 190.100585938 702.6875 190.100585938 706.434570312 c 0
 190.100585938 709.340820312 190.58203125 712.884765625 192.291992188 716.3046875 c 0
 196.291992188 724.3046875 203.5 730 203.5 730 c 1
 229.56640625 730 l 0xd8
 291.74609375 730 378.235351562 732 439.69140625 732 c 0
 563.51171875 732 659.561523438 687.30859375 659.561523438 567.904296875 c 0
 659.561523438 369.966796875 479.546875 267 342.331054688 267 c 0
 330.46484375 267 318.801757812 267.030273438 308.361328125 269.03515625 c 0
 298.362304688 270.955078125 288.825195312 285.434570312 288.825195312 296.67578125 c 0
 288.825195312 310.155273438 299.768554688 328 314.279296875 328 c 0
 428.993164062 328 552.987304688 401.884765625 552.987304688 575.352539062 c 0
 552.987304688 649.185546875 501.009765625 690 396.172851562 690 c 0
 349.376953125 690 l 1xe8
 324.514648438 590.432617188 304.639648438 493.705078125 282.661132812 394.677734375 c 0
 257.41015625 280.905273438 233.634765625 176.669921875 205.640625 62.0146484375 c 1
 205.213867188 60.267578125 204.040039062 54.796875 204.040039062 53.3056640625 c 0
 204.040039062 47.8525390625 204.856445312 37.16015625 215.124023438 32.7255859375 c 0
 221.26953125 30.0712890625 229.737304688 30 238.137695312 30 c 0
 244.930664062 30 l 1
 244.930664062 30 246.239257812 26.947265625 246.239257812 24.005859375 c 0
 246.239257812 20.9619140625 245.85546875 17.9638671875 244.291992188 14.3046875 c 0
 240.935546875 6.447265625 230.900390625 0 230.900390625 0 c 1
 21.900390625 0 l 1
 21.900390625 0 21.1005859375 2.6875 21.1005859375 6.4345703125 c 0
 21.1005859375 9.3408203125 21.58203125 12.884765625 23.2919921875 16.3046875 c 0
 27.2919921875 24.3046875 34.5 30 34.5 30 c 1
 37.4345703125 30 l 0
 45.53125 30 52.6484375 30.0185546875 59.8642578125 31.78515625 c 1
 76.087890625 35.130859375 89.095703125 56.3203125 91.625 67.056640625 c 1
 120.631835938 182.669921875 140.752929688 267.2890625 171.567382812 401.788085938 c 0
 195.086914062 504.4453125 228.845703125 654.220703125 228.845703125 654.220703125 c 1
 229.650390625 657.82421875 233.196289062 673.216796875 233.196289062 677.049804688 c 0
 233.196289062 687.232421875 230.211914062 692.322265625 222.221679688 697.345703125 c 0
 218 700 207.784179688 700 199.514648438 700 c 0
 190.900390625 700 l 1xd8
EndSplineSet
EndChar

StartChar: R
Encoding: 82 82 44
GlifName: R_
Width: 669
VWidth: 0
Flags: W
HStem: 0 30<-9.5 21.1204 173.045 180.9 494.159 601.863> 352.555 42.4453<240.084 348.591> 700 30<160.5 189.774 306.445 437.02>
VStem: 415.584 118.901<34.8952 234.04> 427.715 120.51<94.0253 298.936> 495.969 109.635<498.391 659.498>
LayerCount: 2
Fore
SplineSet
147.900390625 700 m 5xe8
 147.900390625 700 147.100585938 702.6875 147.100585938 706.434570312 c 4
 147.100585938 709.340820312 147.58203125 712.884765625 149.291992188 716.3046875 c 4
 153.291992188 724.3046875 160.5 730 160.5 730 c 5
 188.158203125 730 l 4
 250.181640625 730 336.669335254 734 398.28589182 734 c 4
 520.603515625 734 605.603515625 691.567382812 605.603515625 588.39453125 c 4xe4
 605.603515625 459.518554688 533.1484375 392.076171875 419.185602814 366.200195312 c 5
 496.819335938 350.635742188 548.224609375 301.362304688 548.224609375 234.170898438 c 4xe8
 548.224609375 231.372070312 548.133789062 228.547851562 547.952148438 225.698242188 c 4
 544.349609375 169.302734375 537.627929688 148.368164062 534.951171875 107.251953125 c 4
 534.63671875 102.4140625 534.485351562 97.94921875 534.485351562 93.83203125 c 4
 534.485351562 58.8544921875 544.41015625 31.9287109375 567.6875 31.9287109375 c 4
 579.098632812 31.9287109375 595.489257812 35.5888671875 600.834960938 38.2607421875 c 5
 604.264648438 9.388671875 l 4
 580.817382812 1.232421875 535.786132812 -4.916015625 496.97265625 -5 c 5
 443.21875 -5 415.583984375 35.599609375 415.583984375 78.4169921875 c 4xf0
 415.583984375 80.044921875 415.616210938 82.564453125 415.694335938 84.3046875 c 4
 417.78515625 130.469726562 422.6875 198.96484375 426.188476562 233.676757812 c 4
 426.54296875 237.182617188 427.71484375 248.548828125 427.71484375 251.783203125 c 4
 427.71484375 317.846679688 340.625 343.592773438 231.491210938 352.5546875 c 5
 162.188476562 62.4609375 l 4
 161.83203125 60.9384765625 159.661132812 52.5126953125 159.661132812 51.1982421875 c 4
 159.661132812 44.1015625 161.135742188 36.55859375 172.75390625 32.7626953125 c 4
 178.936523438 30.7431640625 186.299804688 30 194.930664062 30 c 5
 194.930664062 30 196.239257812 26.947265625 196.239257812 24.005859375 c 4
 196.239257812 20.9619140625 195.85546875 17.9638671875 194.291992188 14.3046875 c 4
 190.935546875 6.447265625 180.900390625 0 180.900390625 0 c 5
 -22.099609375 0 l 5
 -22.099609375 0 -22.8994140625 2.6875 -22.8994140625 6.4345703125 c 4
 -22.8994140625 9.3408203125 -22.41796875 12.884765625 -20.7080078125 16.3046875 c 4
 -16.7080078125 24.3046875 -9.5 30 -9.5 30 c 5
 -4.0341796875 30 l 4
 4.0859375 30 15.6357421875 31.8037109375 21.39453125 33.78515625 c 4
 34.5556640625 38.3125 45.697265625 56.6220703125 48.154296875 67.05078125 c 5
 78.1806640625 183.720703125 103.393554688 288.891601562 130.196289062 405.701171875 c 4
 149.98046875 491.922851562 166.739257812 566.056640625 185.426757812 652.19140625 c 5
 186.24609375 655.864257812 190.6484375 673.500976562 190.6484375 678.032226562 c 4
 190.6484375 689.7265625 184.973632812 693.561523438 178.305664062 696.212890625 c 4
 172.032226562 698.708007812 165.166015625 700 157.067382812 700 c 4
 147.900390625 700 l 5xe8
246.413085938 422.788085938 m 0
 244.234375 413.102539062 242.110351562 403.942382812 240.083984375 395.081054688 c 1
 249.124023438 395.049804688 256.818359375 395 265.30078125 395 c 0
 389.565429688 395 495.96875 454.325195312 495.96875 591.836914062 c 0
 495.96875 666.391601562 449.223632812 700 349.766601562 700 c 0
 310.017578125 700 l 1
 284.137695312 600.743164062 268.579101562 521.3203125 246.413085938 422.788085938 c 0
EndSplineSet
EndChar

StartChar: U
Encoding: 85 85 45
GlifName: U_
Width: 744
VWidth: 0
Flags: W
HStem: -9.65527 55<229.329 423.735> 700 30<123.5 152.228 293.991 321.9 631.5 649.715 766.912 791.9>
VStem: 52.5527 116.081<106.952 324.523>
LayerCount: 2
Fore
SplineSet
804.931640625 730 m 1
 805.930664062 730 807.239257812 726.947265625 807.239257812 724.005859375 c 0
 807.239257812 720.961914062 806.85546875 717.963867188 805.291992188 714.3046875 c 0
 801.935546875 706.447265625 791.900390625 700 791.900390625 700 c 1
 786.965820312 700 l 2
 779 700 773.810546875 699.99609375 766.57421875 698.221679688 c 0
 749.768554688 694.557617188 738.982421875 678.58984375 735.728515625 665.663085938 c 0
 729.376953125 640.426757812 707.132379417 541.393649748 686.78515625 454.206054688 c 0
 667.784179688 372.787109375 655.814349227 313.471135775 647 279 c 0
 585.87890625 39.9677734375 470.748046875 -9.6552734375 310.362304688 -9.6552734375 c 0
 192.599609375 -9.6552734375 52.552734375 37.7685546875 52.552734375 206.389648438 c 0
 52.552734375 232.952148438 60.0185546875 262.327148438 67.5400390625 294.982421875 c 2
 151.162109375 665.131835938 l 2
 151.748046875 667.705078125 153.08203125 676.897460938 153.08203125 679.020507812 c 0
 153.08203125 687.96484375 148.311523438 693.619140625 141.364257812 696.220703125 c 0
 136.280273438 698.125 128 700 120.965820312 700 c 2
 110.900390625 700 l 1
 110.900390625 700 110.100585938 702.6875 110.100585938 706.434570312 c 0
 110.100585938 709.340820312 110.58203125 712.884765625 112.291992188 716.3046875 c 0
 116.291992188 724.3046875 123.5 730 123.5 730 c 1
 334.931640625 730 l 1
 334.931640625 730 337.239257812 726.947265625 337.239257812 724.005859375 c 0
 337.239257812 720.961914062 336.85546875 717.963867188 335.291992188 714.3046875 c 0
 331.935546875 706.447265625 321.900390625 700 321.900390625 700 c 1
 317.965820312 700 l 2
 310 700 302.58984375 699.069335938 293.569335938 696.223632812 c 0
 277.166992188 691.048828125 268.540039062 676.0859375 264.965820312 662.73046875 c 0
 262.374023438 654.49609375 262.102539062 652.130859375 259.782226562 642.41015625 c 0
 241.774414062 566.967773438 186.216796875 319.125 186.158203125 318.899414062 c 0
 174.131835938 267.598632812 168.633789062 228.087890625 168.633789062 192.962890625 c 0
 168.633789062 97.0966796875 218.290039062 45.3447265625 318.63671875 45.3447265625 c 0
 456.4609375 45.3447265625 530.278320312 119.833984375 577.494140625 308.358398438 c 0
 585.096327841 338.712586523 652.913085938 635.788085938 660.166992188 666.092773438 c 0
 660.772460938 668.622070312 662.0625 677.266601562 662.0625 678.861328125 c 0
 662.0625 685.078125 657.563476562 691.1015625 650.04296875 695.3046875 c 0
 643.079101562 699.197265625 634 700 625.965820312 700 c 2
 618.900390625 700 l 1
 618.900390625 700 618.100585938 702.6875 618.100585938 706.434570312 c 0
 618.100585938 709.340820312 618.58203125 712.884765625 620.291992188 716.3046875 c 0
 624.291992188 724.3046875 631.5 730 631.5 730 c 1
 804.931640625 730 l 1
EndSplineSet
EndChar

StartChar: J
Encoding: 74 74 46
GlifName: J_
Width: 306
VWidth: 0
Flags: W
HStem: 699.891 30<150.396 167.699 319.435 340.797>
LayerCount: 2
Fore
SplineSet
292.66796875 664.779296875 m 5
 277.668945312 604.736328125 258.735351562 520.0546875 236.689453125 422.846679688 c 0
 196.580854227 245.99396461 151.247070312 60.6416015625 145.889648438 37.9873046875 c 1
 110.765625 -99.2529296875 3.7998046875 -175 -177.91015625 -179.99609375 c 0
 -187 -180.288085938 l 1
 -176.029296875 -138.413085938 l 1
 -172.0703125 -137.2734375 l 0
 -39.9912109375 -100.340820312 3.0341796875 -66.12890625 42.2802734375 84.91015625 c 1
 49.7470703125 112.346679688 100.340820312 318.154296875 133.686523438 467.431640625 c 0
 151.960787725 549.239291269 165.032226562 606.821289062 177.032226562 661.905273438 c 0
 177.439453125 663.81640625 178.681640625 670.516601562 178.681640625 672.206054688 c 0
 178.681640625 683.333984375 177.896484375 688.890625 167.938476562 695.1953125 c 0
 162.862304688 698.409179688 155.909179688 699.890625 147.862304688 699.890625 c 0
 137.796875 699.890625 l 1
 137.796875 699.890625 136.997070312 702.578125 136.997070312 706.325195312 c 0
 136.997070312 709.231445312 137.478515625 712.775390625 139.188476562 716.1953125 c 0
 143.188476562 724.1953125 150.396484375 729.890625 150.396484375 729.890625 c 1
 354.827148438 729.890625 l 1
 354.827148438 729.890625 356.135742188 726.837890625 356.135742188 723.896484375 c 0
 356.135742188 720.852539062 355.751953125 717.854492188 354.188476562 714.1953125 c 0
 350.83203125 706.337890625 340.796875 699.890625 340.796875 699.890625 c 1
 334.862304688 699.890625 l 0
 331.192382812 699.890625 326.74609375 699.360351562 319.078125 697.036132812 c 0
 305.32895254 692.868655679 295.236328125 674.840820312 292.66796875 664.779296875 c 5
EndSplineSet
EndChar

StartChar: plus
Encoding: 43 43 47
GlifName: plus
Width: 395
VWidth: 0
Flags: W
HStem: 271.275 55.1992<51.593 163.649 233.998 345.645>
VStem: 50.2402 296.893<271.448 326.475>
LayerCount: 2
Fore
SplineSet
189.856605733 143.601592052 m 6
 187.394286775 131.287706724 170.78672442 129.674804688 160.962890625 129.674804688 c 4
 153.908500157 129.674804688 132.896484375 131.776303611 132.896484375 143.415039062 c 4
 132.896484375 146.788948059 134.937404498 153.6669686 135.158380199 154.484562183 c 4
 145.615127487 193.173745885 154.610363593 232.026001613 163.649414062 271.275390625 c 5
 60.814453125 271.275390625 l 5
 51.864467176 274.856781258 50.240234375 284.2578125 50.240234375 291.978515625 c 4
 50.240234375 304.599609375 54.642578125 326.474609375 70.662109375 326.474609375 c 4
 172.512695312 326.474609375 l 4
 174.58984375 326.474609375 175.243164062 327.815429688 176.268554688 330.826171875 c 5
 202.284226172 444.477749687 l 5
 205.99950216 445.716047027 l 4
 215.724209692 448.957281194 224.742411866 451.325195312 233.412109375 451.325195312 c 4
 242.12173024 451.325195312 249.721027221 448.792720484 255.913477666 445.077941337 c 4
 260.286873403 442.454391997 l 5
 233.9296875 327.287109375 l 4
 233.9296875 327.287109375 328.01953125 326.474609375 337.362304688 326.474609375 c 4
 346.091796875 326.474609375 347.1328125 314.150390625 347.1328125 311.103515625 c 4
 347.1328125 302.881835938 346.255859375 271.275390625 328.862304688 271.275390625 c 4
 222.762695312 271.275390625 l 6
 221.359375 271.275390625 220.420223411 270.339261931 220.206054688 269.451171875 c 6
 189.856605733 143.601592052 l 6
EndSplineSet
Validated: 1
EndChar

StartChar: B
Encoding: 66 66 48
GlifName: B_
Width: 616
VWidth: 0
Flags: W
HStem: -2 41<161.378 311.781> 0 30<-2.09961 23.0515> 351 61<243.638 362.539> 692.055 41.9453<303.657 352.455> 700 30<156.9 177.864 307.087 402.58>
VStem: 421.461 101.332<139.943 298.283> 463.036 93.6416<497.442 658.612>
LayerCount: 2
Fore
SplineSet
143.970703125 700 m 1x6c
 143.970703125 700 143.100585938 702.6875 143.100585938 706.434570312 c 0
 143.100585938 709.340820312 143.58203125 712.884765625 145.291992188 716.3046875 c 0
 149.291992188 724.3046875 156.900390625 730 156.900390625 730 c 1
 188.555439986 730 l 0x6c
 250.834475314 730 303.018064542 734 364.95664359 734 c 0
 485.001953125 734 556.677734375 673.322265625 556.677734375 585.2265625 c 0x32
 556.677734375 483.217773438 482.583007812 418.801757812 395.15234375 390.651367188 c 1
 459.881835938 375.8984375 522.79296875 323.447265625 522.79296875 235.920898438 c 0
 522.79296875 68.1953125 379.671694067 -2 260.577233173 -2 c 0xb4
 192.524711706 -2 161.282241693 0 65.9658203125 0 c 0
 -15.099609375 0 l 1
 -15.099609375 0 -15.8994140625 2.6875 -15.8994140625 6.4345703125 c 0
 -15.8994140625 9.3408203125 -15.41796875 12.884765625 -13.7080078125 16.3046875 c 0
 -9.7080078125 24.3046875 -2.099609375 30 -2.099609375 30 c 1
 0.9658203125 30 l 0
 9.0859375 30 16.072265625 29.9921875 23.39453125 31.78515625 c 1
 39.79296875 35.1669921875 49.6962890625 56.6171875 52.15625 67.056640625 c 1
 82.1728515625 182.709960938 104.145507812 288.18359375 131.284179688 403.7421875 c 0
 151.560053192 490.078447432 185.849609375 653.2421875 185.849609375 653.2421875 c 1
 186.6484375 656.80078125 190 673.499023438 190 677 c 0
 190 689.966796875 185.611328125 696.005859375 178.1328125 698.345703125 c 1
 172.436523438 699.873046875 164.63671875 700 156.329101562 700 c 0
 143.970703125 700 l 1x6c
232.002929688 349.33984375 m 1
 165.171875 66.21875 l 6
 164.654296875 63.5478515625 161.375 49.7490234375 161.375 47.8388671875 c 4
 161.375 40.8115234375 165.380859375 40 171.671875 40 c 4
 187.653320312 40 193.310546875 39 208.642578125 39 c 4xa4
 366.526367188 39 421.4609375 143.081054688 421.4609375 233.940429688 c 0
 421.4609375 306.993164062 353.46875 351 279.533203125 351 c 0
 263.231445312 351 242.219726562 349.848632812 232.002929688 349.33984375 c 1
319.560546875 692.0546875 m 1x32
 310.288085938 691.03125 307.852539062 689 305.416992188 680.647460938 c 2
 267.873046875 517.655273438 l 1
 243.637695312 412 l 1
 274.314453125 412 l 0
 397.536132812 412 463.036132812 482.696289062 463.036132812 591.899414062 c 0
 463.036132812 643.010742188 433.466796875 694 353.16796875 694 c 0
 337.986328125 694 320.73828125 692.09765625 319.560546875 692.0546875 c 1x32
EndSplineSet
EndChar

StartChar: C
Encoding: 67 67 49
GlifName: C_
Width: 736
VWidth: 0
Flags: W
HStem: -10 56<254.634 450.466> 691 51<389.634 582.276>
VStem: 52.3896 121.309<129.873 393.881>
LayerCount: 2
Fore
SplineSet
511.452225098 742 m 0
 643.432270939 742 688.955078125 657 710.391601562 657 c 0
 727.96875 657 732.809570312 684 749.391601562 684 c 0
 755.2109375 684 760.2265625 679.325195312 760.2265625 670.500976562 c 0
 760.2265625 668.63671875 760.078125 665.924804688 759.631835938 663.588867188 c 1
 716.3125 462.138671875 l 1
 714.764648438 455.264648438 708.134765625 450.732421875 700.786132812 450.732421875 c 0
 695.865234375 450.732421875 688.391601562 456.616210938 688.391601562 466 c 0
 688.391601562 565.634765625 637.8359375 691 488.783203125 691 c 0
 279.002929688 691 173.698242188 432.790039062 173.698242188 237.337890625 c 0
 173.698242188 77.2353515625 275.991210938 46 332.1640625 46 c 0
 510.129882812 46 613.373046875 184.74609375 626 203 c 1
 662.4609375 188.655273438 l 1
 658.634890721 181.823249036 554.585834993 -10 324.95082898 -10 c 0
 220.067943534 -10 52.3896484375 37.263671875 52.3896484375 241.982421875 c 0
 52.3896484375 504.516601562 235.938433108 742 511.452225098 742 c 0
EndSplineSet
EndChar

StartChar: E
Encoding: 69 69 50
GlifName: E_
Width: 638
VWidth: 0
Flags: W
HStem: 0 35<27.9004 77.9185 195.391 426.467> 368 43<278.979 451.151> 699.564 30.4355<191.9 210.322 344.969 525.754>
VStem: 469.291 18.3457<308 330.267> 506.61 21.3408<441.871 470> 590.941 22.3652<567.498 618.457>
LayerCount: 2
Fore
SplineSet
179.173828125 699.564453125 m 1
 179.173828125 699.564453125 178.100585938 702.6875 178.100585938 706.434570312 c 0
 178.100585938 709.340820312 178.58203125 712.884765625 180.291992188 716.3046875 c 0
 184.291992188 724.3046875 191.900390625 730 191.900390625 730 c 1
 635.0625 730 l 1
 613.306640625 565.54296875 l 1
 590.94140625 567.498046875 l 1
 591.165039062 574.232421875 l 0
 591.248046875 576.751953125 591.291015625 579.20703125 591.291015625 581.59765625 c 0
 591.291015625 633.844726562 572.4921875 667.013671875 525.76171875 684.423828125 c 1
 498.770507812 693.819335938 464.069335938 695 418.440429688 695 c 0
 399.017578125 695 381.102539062 694.060546875 361.448242188 692.1171875 c 1
 347.681640625 690.501953125 340.751953125 681.43359375 338.475585938 672.87890625 c 1
 278.979492188 415.26171875 l 1
 307.564453125 413.263671875 346.654296875 411 374.578125 411 c 0
 410.163085938 411 436.928710938 411.374023438 466.782226562 416.909179688 c 0
 482.053710938 419.741210938 490.51171875 426.150390625 496.693359375 438.901367188 c 0
 501.446289062 449.1953125 504 459 506.610351562 470 c 1
 527.951171875 470 l 1
 487.63671875 308 l 1
 469.291015625 308 l 1
 470.896484375 315.703125 471.909179688 323.626953125 471.909179688 330.594726562 c 0
 471.909179688 335.385742188 471.4296875 339.724609375 470.3359375 343.229492188 c 0
 466.84765625 354.404296875 460.875 361.765625 452.43359375 363.090820312 c 0
 425.075195312 367.38671875 397.259765625 368 365.306640625 368 c 0
 335.6796875 368 291.265625 365.240234375 265.482421875 362.690429688 c 1
 195.881835938 59.9423828125 l 1
 195.4296875 58.0908203125 195.209960938 56.2734375 195.209960938 54.40625 c 0
 195.209960938 45.8056640625 205.33984375 39.0048828125 215.375 37.8916015625 c 0
 233.075195312 35.927734375 235.833007812 35 253.194335938 35 c 0
 313.364257812 35 362.7265625 36.0712890625 405.172851562 45.80078125 c 1
 465.216796875 60.2509765625 498.352539062 100.024414062 524.73828125 158.783203125 c 0
 526.443359375 162.71875 l 1
 552.252929688 164.64453125 l 1
 494.353515625 0 l 1
 15.1953125 0 l 1
 15.1953125 0 14.1005859375 2.6875 14.1005859375 6.4345703125 c 0
 14.1005859375 9.3408203125 14.58203125 12.884765625 16.2919921875 16.3046875 c 0
 20.2919921875 24.3046875 27.900390625 30 27.900390625 30 c 1
 31.1611328125 29.435546875 l 0
 41.166015625 29.435546875 42.6455078125 29.470703125 51.7529296875 31.2578125 c 1
 67.837890625 34.580078125 76.90625 46.1435546875 79.33984375 56.490234375 c 0
 79.4150390625 56.80859375 l 1
 79.51953125 57.1181640625 l 0
 85.1357421875 73.6494140625 129.260742188 250.381835938 165.66015625 411.663085938 c 0
 193.756835938 536.155273438 215.858398438 636.321289062 220.890625 661.079101562 c 0
 224.657226562 679.850585938 l 0
 224.657226562 687.1328125 222.28125 695.857421875 210.67578125 697.78515625 c 0
 203.064453125 699.049804688 199.87537021 699.564453125 191.487304688 699.564453125 c 2
 179.173828125 699.564453125 l 1
EndSplineSet
EndChar

StartChar: F
Encoding: 70 70 51
GlifName: F_
Width: 633
VWidth: 0
Flags: W
HStem: 0 30<20.9004 50.0501 198.568 215.9> 350 42.9258<269.98 456.827> 700.588 29.4121<184.9 221.809 345.776 543.233>
VStem: 455.029 18.3086<290 317.261> 493.293 21.6436<424.739 452> 613.743 23.4189<567.466 618.739>
LayerCount: 2
Fore
SplineSet
230.880859375 30 m 1
 230.880859375 30 231.239257812 27.947265625 231.239257812 25.005859375 c 0
 231.239257812 21.9619140625 230.85546875 17.9638671875 229.291992188 14.3046875 c 0
 225.935546875 6.447265625 215.900390625 0 215.900390625 0 c 1
 8 0 l 1
 8 0 7.1005859375 2.6875 7.1005859375 6.4345703125 c 0
 7.1005859375 9.3408203125 7.58203125 12.884765625 9.2919921875 16.3046875 c 0
 13.2919921875 24.3046875 20.900390625 30 20.900390625 30 c 1
 25.9658203125 30 l 0
 34.0859375 30 43.072265625 30.9921875 50.39453125 32.787109375 c 1
 67.0478515625 37.224609375 75.751953125 55.88671875 78.2900390625 66.576171875 c 0
 84.0029296875 84.310546875 121.196289062 241.565429688 158.08203125 397.241210938 c 0
 189.252929688 528.798828125 217.33984375 661.5546875 217.3671875 661.67578125 c 1
 217.748046875 663.237304688 222.083984375 682.142578125 222.083984375 682.888671875 c 0
 222.083984375 690.162109375 218.553710938 696.267578125 207.168945312 698.799804688 c 1
 198.952148438 700.526367188 198.118164062 700.587890625 187.748046875 700.587890625 c 0
 172.44921875 700.587890625 l 1
 172.44921875 700.587890625 171.100585938 702.6875 171.100585938 706.434570312 c 0
 171.100585938 709.340820312 171.58203125 712.884765625 173.291992188 716.3046875 c 0
 177.291992188 724.3046875 184.900390625 730 184.900390625 730 c 1
 658.810546875 730 l 1
 637.162109375 565.571289062 l 1
 613.743164062 567.465820312 l 1
 613.969726562 574.234375 l 0
 614.065429688 577.10546875 614.114257812 579.907226562 614.114257812 582.635742188 c 0
 614.114257812 635.009765625 597.532226562 670.828125 550.075195312 684.259765625 c 1
 514.479492188 693.895507812 464.416992188 695 407.438476562 695 c 0
 387.998046875 695 378.16015625 694.064453125 358.415039062 692.106445312 c 0
 342.538085938 690.532226562 332.1015625 668.66796875 329.498046875 658.037109375 c 1
 269.98046875 396.326171875 l 1
 305.663085938 394.096679688 350.8046875 392.92578125 387.926757812 392.92578125 c 0
 433.961914062 392.92578125 463.470703125 394.19921875 479.39453125 418.90234375 c 0
 485.534179688 428.427734375 489 437 493.29296875 452 c 1
 514.936523438 452 l 1
 473.337890625 290 l 1
 455.029296875 290 l 1
 455.96875 300.352539062 457.076171875 312.377929688 457.076171875 327.229492188 c 0
 457.076171875 339.2421875 447.775390625 342.608398438 438.215820312 344.088867188 c 0
 411.212890625 348.26953125 383.091796875 350 351.209960938 350 c 0
 321.471679688 350 281.63671875 347.284179688 255.319335938 344.670898438 c 1
 233.178710938 248.196289062 214.650390625 164.109375 190.165039062 66.9794921875 c 0
 189.658203125 64.9697265625 188.471679688 58.2744140625 188.471679688 56.6201171875 c 0
 188.471679688 49.8525390625 188.892578125 37.5322265625 198.243164062 33.4921875 c 0
 205.184570312 30.4931640625 211 30 221.788085938 30 c 2
 230.880859375 30 l 1
EndSplineSet
EndChar

StartChar: G
Encoding: 71 71 52
GlifName: G_
Width: 760
VWidth: 0
Flags: W
HStem: -10 56<239.705 419.467> 284 25<516.146 549.576 669.114 711.276> 691 51<376.719 568.192>
VStem: 28.0381 123.656<139.896 387.282>
LayerCount: 2
Fore
SplineSet
705.810546875 284 m 2
 676.604492188 284 657.137695312 266.150390625 652.615234375 247.008789062 c 2
 633.607421875 167.037109375 l 1
 627.301757812 141.384765625 618.448858138 134.321289062 599.4010767 113.421875 c 1
 548.632148415 58.298828125 435.814543829 -10 303.389698403 -10 c 0
 202.359983914 -10 28.0380859375 36.73828125 28.0380859375 243.392578125 c 0
 28.0380859375 505.3203125 214.057314037 742 488.85652749 742 c 0
 620.83360415 742 666.374023438 657 687.810546875 657 c 0
 706.369140625 657 707.352539062 684 727.810546875 684 c 0
 736.383789062 684 741.481445312 676.6484375 741.481445312 669.293945312 c 0
 741.481445312 668.157226562 741.421875 667.37109375 741.201171875 665.998046875 c 1
 700 470 l 2
 698.54296875 462.967773438 694.291992188 453 684 453 c 0
 677.397460938 453 667.810546875 459.884765625 667.810546875 468 c 0
 667.810546875 567.634765625 629.254882812 691 470.188476562 691 c 0
 271.603515625 691 151.694335938 445.551757812 151.694335938 241.036132812 c 0
 151.694335938 87.5341796875 259.09765625 46 315.75390625 46 c 0
 410.435546875 46 519.53515625 107.31640625 535.698242188 172.711914062 c 1
 551.244140625 247.225585938 l 1
 551.716796875 249.159179688 552.91796875 258.815429688 552.91796875 260.501953125 c 0
 552.91796875 276.165039062 537.7421875 284 519.041015625 284 c 2
 510.350585938 284 l 1
 516.146484375 309 l 1
 718.776367188 309 l 1
 711.276367188 284 l 1
 705.810546875 284 l 2
EndSplineSet
EndChar

StartChar: K
Encoding: 75 75 53
GlifName: K_
Width: 669
VWidth: 0
Flags: W
HStem: 0 30<29.5 54.4975 208.602 225.9 412.5 438.486 582.626 608.431> 700 30<197.5 214.781 366.935 394.9 547.5 566.641 670.825 699.9>
LayerCount: 2
Fore
SplineSet
608.430664062 0 m 1
 400.53125 0 l 1
 400.53125 0 399.100585938 2.6875 399.100585938 6.4345703125 c 0
 399.100585938 9.3408203125 399.58203125 12.884765625 401.291992188 16.3046875 c 0
 405.291992188 24.3046875 412.5 30 412.5 30 c 1
 415.965820312 30 l 2
 422 30 431.247070312 30.8076171875 438.84375 32.9111328125 c 0
 450 36 458.90234375 47.125 458.90234375 60.119140625 c 0
 458.90234375 65.220703125 457.208007812 74.1923828125 452.538085938 84.220703125 c 0
 408.5625 178.658203125 354.455078125 263.344726562 307.063476562 356.708007812 c 1
 293.970703125 346.669921875 276.3203125 337.33984375 265 334 c 1
 202 74 l 2
 200.666992188 68.4306640625 198.09765625 59.4677734375 198.09765625 53.203125 c 0
 198.09765625 45.3056640625 199.9140625 35.87890625 208.227539062 32.890625 c 0
 216.205078125 30.0224609375 224.471679688 30 230.965820312 30 c 0
 239.930664062 30 l 1
 239.930664062 30 241.239257812 26.947265625 241.239257812 24.005859375 c 0
 241.239257812 20.9619140625 240.85546875 17.9638671875 239.291992188 14.3046875 c 0
 235.935546875 6.447265625 225.900390625 0 225.900390625 0 c 1
 16.900390625 0 l 1
 16.900390625 0 16.1005859375 2.6875 16.1005859375 6.4345703125 c 0
 16.1005859375 9.3408203125 16.58203125 12.884765625 18.2919921875 16.3046875 c 0
 22.2919921875 24.3046875 29.5 30 29.5 30 c 1
 32.9658203125 30 l 0
 39.15234375 30 47.4306640625 30.96875 54.845703125 31.875 c 1
 71.7802734375 35.7294921875 81.689453125 55.7900390625 85.142578125 67.0048828125 c 1
 115.1796875 182.73828125 139.131835938 288.125976562 166.137695312 403.732421875 c 0
 187.150390625 494.884765625 206.102539062 574.767578125 225.125 665.96875 c 1
 225.596679688 667.969726562 226.784179688 675.598632812 226.784179688 677.31640625 c 0
 226.784179688 683.102539062 225.2890625 689.874023438 215.041992188 695.3046875 c 0
 209.525390625 698.228515625 200.966796875 700 193.965820312 700 c 0
 184.900390625 700 l 1
 184.900390625 700 184.100585938 702.6875 184.100585938 706.434570312 c 0
 184.100585938 709.340820312 184.58203125 712.884765625 186.291992188 716.3046875 c 0
 190.291992188 724.3046875 197.5 730 197.5 730 c 1
 408.400390625 730 l 1
 408.400390625 730 410.239257812 726.947265625 410.239257812 724.005859375 c 0
 410.239257812 720.961914062 409.85546875 717.963867188 408.291992188 714.3046875 c 0
 404.935546875 706.447265625 394.900390625 700 394.900390625 700 c 1
 391.965820312 700 l 0
 384.885742188 700 375.02734375 698.796875 366.536132812 696.176757812 c 0
 353 692 342.131835938 674.590820312 339.786132812 664.427734375 c 0
 277.784179688 406.430664062 l 5
 294.078125 414.227539062 312.849609375 425.415039062 339.828125 450.754882812 c 5
 547.8671875 643.796875 l 1
 566.883789062 663.869140625 574.508789062 671.014648438 574.508789062 678.725585938 c 0
 574.508789062 683.627929688 573.512695312 688.962890625 566.814453125 694.095703125 c 0
 563.174804688 696.884765625 554.96875 700 546.965820312 700 c 0
 535.166992188 700 l 1
 535.166992188 700 534.100585938 702.6875 534.100585938 706.434570312 c 0
 534.100585938 709.340820312 534.58203125 712.884765625 536.291992188 716.3046875 c 0
 540.291992188 724.3046875 547.5 730 547.5 730 c 1
 713.930664062 730 l 1
 713.930664062 730 715.239257812 726.947265625 715.239257812 724.005859375 c 0
 715.239257812 720.961914062 714.85546875 717.963867188 713.291992188 714.3046875 c 0
 709.935546875 706.447265625 699.900390625 700 699.900390625 700 c 1
 696.965820312 700 l 0
 690.584960938 700 679.202148438 699.122070312 670.411132812 696.208984375 c 1
 658.533203125 692.881835938 644.314453125 672.829101562 629.095703125 656.928710938 c 1
 382.26171875 415.624023438 l 1
 404.298828125 374.77734375 l 1
 484.26953125 241.620117188 548.342773438 119.25390625 574.405273438 59.361328125 c 0
 581.848632812 42.2509765625 593 30 612.965820312 30 c 2
 621.930664062 30 l 1
 621.930664062 30 623.239257812 26.947265625 623.239257812 24.005859375 c 0
 623.239257812 20.9619140625 622.85546875 17.9638671875 621.291992188 14.3046875 c 0
 617.935546875 6.447265625 608.430664062 0 608.430664062 0 c 1
EndSplineSet
EndChar

StartChar: Y
Encoding: 89 89 55
GlifName: Y_
Width: 633
VWidth: 0
Flags: W
HStem: 0 30<126.866 157.003 310.659 349> 700 30<94.7069 135.284 261.191 299.9 559.866 588.167 665.321 712.9>
LayerCount: 2
Fore
SplineSet
725.930664062 730 m 1
 726 730 728.239257812 726.947265625 728.239257812 724.005859375 c 0
 728.239257812 720.961914062 727.85546875 717.963867188 726.291992188 714.3046875 c 0
 722.935546875 706.447265625 712.900390625 700 712.900390625 700 c 1
 705.965820312 700 l 0
 674.868164062 700 659.798828125 680.883789062 650.229492188 669.806640625 c 1
 387.284179688 391.950195312 l 1
 374.563476562 346.952148438 366.243164062 302.263671875 355.67578125 256.681640625 c 0
 339.993164062 189.036132812 329.763671875 146.348632812 312.840820312 79.0654296875 c 1
 312.840820312 79.0654296875 308.146484375 62.572265625 308.146484375 56.6005859375 c 0
 308.146484375 41.677734375 318.697265625 30 340.186523438 30 c 0
 349 30 l 1
 349 30 351.239257812 26.947265625 351.239257812 24.005859375 c 0
 351.239257812 20.9619140625 350.85546875 17.9638671875 349.291992188 14.3046875 c 0
 345.935546875 6.447265625 335.900390625 0 336.7421875 0 c 1
 115 0 l 1
 114.900390625 0 114.100585938 2.6875 114.100585938 6.4345703125 c 0
 114.100585938 9.3408203125 114.58203125 12.884765625 116.291992188 16.3046875 c 0
 120.291992188 24.3046875 126.866210938 30 126.866210938 30 c 1
 132.965820312 30 l 0
 141.0859375 30 149.040039062 30.9931640625 157.39453125 33.78515625 c 0
 173 39 182.712890625 56.6875 185.153320312 67.0478515625 c 0
 202.1953125 135.78125 217.16796875 193.262695312 233.147460938 260.763671875 c 0
 242.905273438 301.862304688 253.184570312 345.392578125 261.723632812 384.930664062 c 1
 213.596679688 508.671875 162.438476562 626.96875 137.546875 680.610351562 c 1
 130.5 697.176757812 125.604492188 700 101.965820312 700 c 0
 93.900390625 700 l 1
 93.900390625 700 93.1005859375 702.6875 93.1005859375 706.434570312 c 0
 93.1005859375 709.340820312 93.58203125 712.884765625 95.2919921875 716.3046875 c 0
 99.2919921875 724.3046875 105.866210938 730 105.5 730 c 1
 312.400390625 730 l 1
 313 730 315.239257812 726.947265625 315.239257812 724.005859375 c 0
 315.239257812 720.961914062 314.85546875 717.963867188 313.291992188 714.3046875 c 0
 309.935546875 706.447265625 299.900390625 700 299.900390625 700 c 1
 293.965820312 700 l 0
 270.171875 700 255.19921875 685.211914062 255.19921875 667.791015625 c 0
 255.19921875 662.625976562 256.97265625 655.391601562 260.521484375 645.455078125 c 1
 353.61328125 431.012695312 l 1
 558.80078125 641.724609375 l 0
 576.682617188 661.271484375 588.553710938 673.87890625 588.553710938 682.006835938 c 0
 588.553710938 692.407226562 577.7421875 700 556.965820312 700 c 0
 547.900390625 700 l 1
 547.900390625 700 547.100585938 702.6875 547.100585938 706.434570312 c 0
 547.100585938 709.340820312 547.58203125 712.884765625 549.291992188 716.3046875 c 0
 553.291992188 724.3046875 559.866210938 730 559.866210938 730 c 1
 725.930664062 730 l 1
EndSplineSet
EndChar

StartChar: Z
Encoding: 90 90 56
GlifName: Z_
Width: 713
VWidth: 0
Flags: W
HStem: 0 43<196.56 505.967> 690 40<307.876 592.928>
LayerCount: 2
Fore
SplineSet
718.697265625 671.640625 m 2
 195.072265625 49.01953125 l 1
 226.75 45.060546875 262.000976562 43 298.862304688 43 c 0
 341.10546875 43 431.6328125 43.0595703125 480.251953125 49.9296875 c 0
 544.7421875 58.716796875 583.318359375 108.241210938 612.4296875 176.744140625 c 1
 636.758789062 178.592773438 l 1
 565.969726562 0 l 1
 64.3701171875 0 l 0
 56.720703125 0 37.3701171875 3.435546875 37.3701171875 23.525390625 c 0
 37.3701171875 33.232421875 44.9111328125 44.5439453125 48.9541015625 49.498046875 c 1
 592.927734375 686.734375 l 1
 565.469726562 687.907226562 512.186523438 690 471.749023438 690 c 0
 415.041992188 690 381.211914062 688.956054688 340.907226562 680.168945312 c 0
 271.615234375 665.137695312 234.03125 627.669921875 206.004882812 567.294921875 c 1
 184.350585938 565.25 l 1
 255.659179688 726.8828125 l 0
 259.296875 732.171875 266.62109375 734 272.990234375 734 c 0
 284.359375 734 302.356445312 730 307 730 c 0
 734.392578125 730 l 1
 734.392578125 730 735.202148438 720.745117188 735.370117188 716.1171875 c 0
 735.370117188 700.814453125 729.326171875 683.546875 718.697265625 671.640625 c 2
EndSplineSet
EndChar

StartChar: zero
Encoding: 48 48 57
GlifName: zero
Width: 480
VWidth: 0
Flags: W
HStem: -7 46<141.914 236.174> 595 45<289.777 375.554>
VStem: 20.2607 95.1367<90.1356 317.847> 402.47 93.1768<306.147 546.492>
LayerCount: 2
Fore
SplineSet
402.469726562 448.135742188 m 0
 402.469726562 538.336914062 382.477539062 595 337.77734375 595 c 0
 250.146484375 595 115.397460938 367.135742188 115.397460938 187.288085938 c 0
 115.397460938 96.169921875 134.098632812 39 180.091796875 39 c 0
 275.176757812 39 402.469726562 258.083984375 402.469726562 448.135742188 c 0
174.30078125 -7 m 0
 74.296875 -7 20.2607421875 87.4091796875 20.2607421875 207.385742188 c 0
 20.2607421875 423.041015625 179.901367188 640 343.568359375 640 c 4
 442.938476562 640 495.646484375 547.379882812 495.646484375 428.46484375 c 0
 495.646484375 212.991210938 342.587890625 -7 174.30078125 -7 c 0
EndSplineSet
EndChar

StartChar: one
Encoding: 49 49 58
GlifName: one
Width: 480
VWidth: 0
Flags: W
HStem: 0 32<127.8 163.548 265.193 288.658>
VStem: 119 295.03
LayerCount: 2
Fore
SplineSet
265.185546875 43.8515625 m 5
 265.325195312 38.8740234375 266.780273438 32 278.838867188 32 c 6
 294.458007812 32 l 5
 288.658203125 0 l 5
 119 0 l 5
 127.799804688 32 l 5
 137.838867188 32 l 4
 152.875976562 32 162.903320312 42.392578125 165.16796875 52.162109375 c 5
 290.182617188 526.70703125 l 4
 291.775390625 533.27734375 294.497070312 545.205078125 294.497070312 546.403320312 c 4
 294.497070312 548.375 293.935546875 552.137695312 293.440429688 553.633789062 c 5
 282.90234375 553.310546875 263.478515625 550.862304688 263.069335938 550.811523438 c 5
 244.888671875 549.305664062 l 5
 254.79296875 581.990234375 l 5
 260.998046875 584.401367188 l 4
 297.110351562 598.435546875 344.548828125 618.26171875 380.317382812 638.24609375 c 5
 382.595703125 639.57421875 387.765625 643 394.838867188 643 c 4
 399.11328125 643 414.030273438 644.565429688 414.030273438 633.958007812 c 4
 414.030273438 633.892578125 l 5
 266.732421875 50.3466796875 l 5
 266.41796875 48.8837890625 265.39453125 44.822265625 265.185546875 43.8515625 c 5
EndSplineSet
EndChar

StartChar: two
Encoding: 50 50 59
GlifName: two
Width: 480
VWidth: 0
Flags: W
HStem: 0 70<167.043 349.465> 508.594 21G<153.182 187.772> 585 57<261.456 381.48>
VStem: 399.78 92.7627<447.583 567.235>
LayerCount: 2
Fore
SplineSet
321.447265625 585 m 0
 265.983398438 585 229.62109375 556.9375 187.772460938 517.81640625 c 2
 177.907226562 508.59375 l 1
 149.245117188 531.778320312 l 1
 156.639648438 540.854492188 l 1
 157.564453125 542.001953125 237.724609375 642 354.3828125 642 c 0
 438.145507812 642 492.54296875 604.682617188 492.54296875 538.043945312 c 0
 492.54296875 441.580078125 417.781012908 362.071656663 343.572265625 276.431640625 c 0
 275.3203125 197.666015625 213.775390625 113.014648438 167.04296875 70 c 1
 290.779296875 70 l 0
 337.137695312 70 362.885742188 86.349609375 378.213867188 114.099609375 c 0
 382.7265625 122.590820312 l 1
 412.821289062 115.38671875 l 1
 349.46484375 0 l 1
 28 0 l 1
 32.091796875 15.662109375 l 0
 35.0322265625 26.919921875 40.025390625 47.9384765625 40.025390625 47.9384765625 c 0
 40.876953125 51.5234375 l 1
 43.60546875 54.1123046875 l 0
 169.041992188 171.584960938 239 268 307.129882812 347.528320312 c 0
 362.885869665 412.612535913 399.780273438 457.24609375 399.780273438 520.322265625 c 0
 399.780273438 559.537109375 369.1640625 585 321.447265625 585 c 0
EndSplineSet
EndChar

StartChar: hyphen
Encoding: 45 45 60
GlifName: hyphen
Width: 388
VWidth: 0
Flags: W
HStem: 267.9 60.1992<65.2899 330.951>
VStem: 55.7158 277.942<268.529 328.1>
LayerCount: 2
Fore
SplineSet
64.0383774742 268.400887046 m 2
 57.4627662838 271.030642267 55.7158203125 280.995117188 55.7158203125 287.604492188 c 0
 55.7158203125 300.227539062 60.118611411 328.099609375 77.1376953125 328.099609375 c 0
 323.887695312 328.099609375 l 0
 333.418919531 328.099609375 333.657742277 316.158980775 333.657742277 313.72942717 c 0
 333.657742277 305.635154229 331.891118658 267.900390625 313.387695312 267.900390625 c 0
 65.289851315 267.900390625 l 1
 64.0383774742 268.400887046 l 2
EndSplineSet
EndChar

StartChar: backslash
Encoding: 92 92 61
GlifName: backslash
Width: 398
VWidth: 0
Flags: W
LayerCount: 2
Fore
SplineSet
363.072726216 -109.316317972 m 2
 352.04438217 -115.034718588 339.50924405 -118.052364588 327.000000706 -118.052364588 c 0
 297.342259005 -118.052364588 277.242558417 -97.5583187584 267.668505832 -61.8879566038 c 2
 267.668505832 -61.8879566038 117.906005871 419.864211429 28.8624389472 670.987079945 c 2
 28.4599674386 672.122140042 l 1
 28 673.419351582 l 1
 28 674.795697405 l 1
 28 676 l 2
 28 697.766433638 44.4195613849 711.25617942 63.9999991844 711.25617942 c 0
 81.2984377831 711.25617942 100.300580897 702.677558748 119.377077955 687.84028326 c 2
 121.197740104 686.424212699 l 1
 123.278496845 684.805846344 l 1
 123.989615965 682.267546151 l 1
 124.611845196 680.046533479 l 2
 196.5458646 423.282047553 269.406325468 187.735438676 370.272235483 -90.8941543376 c 2
 372.361575961 -96.6656988279 l 1
 374.74939365 -103.261749674 l 1
 368.521837685 -106.490852766 l 1
 363.072726216 -109.316317972 l 2
EndSplineSet
Validated: 1
EndChar

StartChar: parenleft
Encoding: 40 40 62
GlifName: parenleft
Width: 376
VWidth: 0
Flags: W
VStem: 33.3714 61.8763<3.84841 276.497>
LayerCount: 2
Fore
SplineSet
341.310563469 752.134734865 m 2
 305.825437652 711.274135533 201.946762047 647.186103785 125.494763352 315.197999163 c 0
 103.197115613 218.792611217 95.2476856124 145.943402226 95.2476856124 90.2403962976 c 0
 95.2476856124 -32.0221887423 132.460550957 -70.4273682465 144.108598492 -100.711714056 c 0
 144.902698699 -102.776335205 l 1
 130.181760057 -161.660089773 l 1
 121.370053784 -149.280641527 l 1
 120.39682632 -147.913367002 33.3714029369 -25.2582461736 33.3714029369 168.145010838 c 0
 33.3714029369 214.720317658 38.4314260692 265.405379547 50.9542599355 319.397510839 c 0
 123.001392064 631.957487273 337.791568555 792.785598991 339.941049599 794.399945186 c 1
 354.566757283 805.384436355 l 1
 342.448105777 753.444598067 l 1
 341.310563469 752.134734865 l 2
EndSplineSet
Validated: 1
EndChar

StartChar: parenright
Encoding: 41 41 63
GlifName: parenright
Width: 382
VWidth: 0
Flags: W
VStem: 281.859 62.2414<375.334 649.41>
LayerCount: 2
Fore
SplineSet
233.861325706 756.187141277 m 1
 244.827131678 803.179706372 l 1
 253.817647885 792.806317993 l 1
 255.056670688 791.376715065 344.100187839 687.899851258 344.100187839 488.375200311 c 0
 344.100187839 437.230337211 338.251214498 379.828937628 323.5943731 316.243589167 c 0
 258.928731171 37.4422704248 37.1399006517 -150.234266852 36.7535336793 -150.562103604 c 0
 20.1534642416 -164.647450529 l 1
 36.3287057158 -99.9464846325 l 1
 37.3809730508 -98.7029337083 l 0
 72.9214489819 -56.7018278873 176.834070646 10.6436270556 248.00373009 318.346254155 c 0
 273.082773115 427.251844318 281.85874779 507.395481833 281.85874779 567.156790205 c 0
 281.85874779 689.75167852 246.088859969 725.211176039 234.663731029 754.154410976 c 0
 233.861325706 756.187141277 l 1
EndSplineSet
Validated: 1
EndChar

StartChar: three
Encoding: 51 51 64
GlifName: three
Width: 480
VWidth: 0
Flags: W
HStem: -7 36<125.394 262.517> 582 58<287.216 389.823>
VStem: 391.884 84.8184<143.821 260.956> 398.496 107.701<489.938 573.267>
LayerCount: 2
Fore
SplineSet
184.674804688 505.29296875 m 4xd0
 180.24609375 501.18359375 l 5
 155.254882812 524.404296875 l 5
 159.49609375 528.685546875 l 4
 162.154296875 531.369140625 262.623046875 640 382.041015625 640 c 4
 458.799804688 640 506.197265625 609.540039062 506.197265625 555.837890625 c 4xd0
 506.197265625 477.756835938 425.736328125 425.39453125 357.999023438 381.131835938 c 5
 424.736328125 365.216796875 476.702148438 310.454101562 476.702148438 236.157226562 c 4
 476.702148438 83.306640625 323.315429688 -7 168.668945312 -7 c 4
 115.926757812 -7 35 10.37109375 35 47.91796875 c 4
 35 54.46484375 37.857421875 59.2705078125 38.6279296875 60.8115234375 c 4
 44.37109375 72.3115234375 61.3564453125 78 75.2568359375 78 c 4
 89.3955078125 78 101.364257812 68.27734375 111.450195312 58.1923828125 c 4
 124.44140625 45.2001953125 150.4375 29 178.586914062 29 c 4
 279.178710938 29 391.883789062 108.452148438 391.883789062 208.98828125 c 4xe0
 391.883789062 239.25 366.094726562 274.00390625 341.96875 286.78125 c 4
 320.508789062 298.146484375 291.220703125 305.010742188 265.611328125 305.010742188 c 4
 230.598632812 305.010742188 189.508789062 282.499023438 170.668945312 282.499023438 c 4
 159.022460938 282.499023438 149.256835938 289.196289062 149.256835938 300.1171875 c 4
 149.256835938 309.517578125 156.096679688 315.70703125 160.6875 318.33984375 c 5
 169.254882812 323.185546875 398.49609375 449.662109375 398.49609375 531.06640625 c 4
 398.49609375 558.967773438 380.754882812 582 347.28515625 582 c 4
 298.528320312 582 232.047851562 549.243164062 184.674804688 505.29296875 c 4xd0
EndSplineSet
EndChar

StartChar: four
Encoding: 52 52 65
GlifName: four
Width: 480
VWidth: 0
Flags: W
HStem: 0 21G<250.883 308.603> 265 59.7324<157.226 288.558> 273.007 58.2666<390.675 459.311>
LayerCount: 2
Fore
SplineSet
157.225585938 324.732421875 m 5xc0
 205.745117188 324.096679688 273.229492188 322.548828125 301.388671875 322.110351562 c 5
 315.625976562 374.5625 348.947265625 483.111328125 351.345703125 497.953125 c 5
 317.619140625 465.46875 269.46484375 425.985351562 233.682617188 393.44140625 c 4
 206.424804688 368.651367188 178.65234375 343.837890625 157.225585938 324.732421875 c 5xc0
41 283.901367188 m 4
 41 294.369140625 47.8779296875 300.997070312 51.04296875 304.055664062 c 4
 162.486328125 411.6328125 297.817382812 511.66015625 403.442382812 618.177734375 c 5
 403.442382812 618.177734375 431.125976562 642 438.196289062 642 c 4
 441.666992188 642 444.814453125 641.599609375 447.645507812 640.79296875 c 4
 455.887695312 638.486328125 461.364257812 632.303710938 461.364257812 624.77734375 c 4
 461.364257812 623.428710938 461.194335938 622.088867188 460.876953125 620.78125 c 4
 390.674804688 331.2734375 l 5
 401.287109375 331.59375 412.150390625 332.021484375 422.643554688 332.634765625 c 4
 437.872070312 333.524414062 452.201171875 334.811523438 462.96875 336.650390625 c 4
 474.5703125 338.6328125 l 5
 469.383789062 328.25390625 l 4
 464.909179688 319.30078125 459.711914062 312.627929688 459.711914062 302.606445312 c 4
 459.711914062 294.025390625 461.034179688 285.853515625 463.067382812 281.231445312 c 4
 466.6875 273.006835938 l 5
 378.584960938 273.006835938 l 5xa0
 318.466796875 12.078125 l 5
 317.19921875 6.1552734375 313.349609375 0 303.856445312 0 c 4
 251.297851562 0 l 4
 250.46875 0 249.635742188 0.009765625 248.801757812 0.0283203125 c 4
 246.63671875 0.0771484375 234.322265625 0.0791015625 232.18359375 0.1669921875 c 4
 228.633789062 0.3125 227.65234375 2.1279296875 227.65234375 4.8408203125 c 4
 227.65234375 6.59765625 228.064453125 8.73046875 228.45703125 11.0302734375 c 4
 229.036132812 14.419921875 230.778320312 19.9384765625 230.974609375 20.7890625 c 4
 249.860351562 101.696289062 269.844726562 184.709960938 288.557617188 265 c 5
 59.1962890625 265 l 4
 46.763671875 265 41 275.991210938 41 283.901367188 c 4
EndSplineSet
EndChar

StartChar: semicolon
Encoding: 59 59 66
GlifName: semicolon
Width: 325
VWidth: 0
Flags: W
HStem: -84 24<51.2608 84.0775> 348 116<184.057 255.842>
VStem: 103 93.31<-34.4425 71.7805> 163.357 112.902<368.754 443.374>
LayerCount: 2
Fore
SplineSet
232 464 m 0xd0
 258.45262697 464 276.2595368 443.335738631 276.2595368 417.562313213 c 0
 276.2595368 377.035879002 239.296284539 348 208 348 c 0
 181.557398896 348 163.357148836 366.981152867 163.357148836 392.778146554 c 0
 163.357148836 432.737504104 197.847544051 464 232 464 c 0xd0
151 98 m 0
 179.061731857 98 196.310045232 76.086941014 196.310045232 51.9434992596 c 0
 196.310045232 -33.2114577607 128.205724544 -84 71 -84 c 0
 51.26076927 -84 l 1
 41.66076927 -60 l 1
 52 -60 l 0
 66.8309484746 -60 103 -41.8850713833 103 -27 c 0xe0
 103 -7.5564099659 78.41015625 -0.889410776439 78.41015625 26.8505859375 c 0
 78.41015625 67.6981908342 117.064751261 98 151 98 c 0
EndSplineSet
Validated: 1
EndChar

StartChar: colon
Encoding: 58 58 67
GlifName: colon
Width: 294
VWidth: 0
Flags: WO
HStem: -18 116<68.417 139.73> 348 116<152.147 223.887>
VStem: 48.0002 112.573<3.13905 77.5817> 131.736 112.837<368.336 443.544>
LayerCount: 2
Fore
SplineSet
116.313476562 98 m 0xe0
 142.766103532 98 160.573013362 77.335738631 160.573013362 51.5623132131 c 0
 160.573013362 12.0326207265 124.516862115 -18 92.3134765625 -18 c 0
 65.2132744959 -18 48.0002388658 2.47524991649 48.0002388658 27.9925000352 c 0
 48.0002388658 67.6210722289 82.8650884989 98 116.313476562 98 c 0xe0
200.313476562 464 m 0
 226.766103532 464 244.573013362 443.335738631 244.573013362 417.562313213 c 0
 244.573013362 377.299486404 208.635056448 348 177.313476562 348 c 0
 150.783948147 348 131.735773397 367.064744235 131.735773397 393.263915839 c 0xd0
 131.735773397 433.030163333 166.474631925 464 200.313476562 464 c 0
EndSplineSet
EndChar

StartChar: five
Encoding: 53 53 68
GlifName: five
Width: 480
VWidth: 0
Flags: W
HStem: -9 50<77.6422 249.453> 334 82<166.776 319.956> 554.653 56.4443<240.308 497.694>
VStem: 366.816 82.7334<170.816 287.359>
LayerCount: 2
Fore
SplineSet
211.686523438 611.09765625 m 5
 443.392578125 611.09765625 l 6
 460.422851562 611.09765625 479.241210938 611.975585938 491.540039062 614.682617188 c 4
 494.547851562 615.359375 506.155273438 617 511.392578125 617 c 4
 518.520507812 617 527.545898438 614.552734375 527.545898438 604.151367188 c 4
 527.545898438 592.391601562 509.912109375 573.78515625 501.494140625 560.6015625 c 4
 497.694335938 554.653320312 l 5
 240.307617188 554.653320312 l 5
 159.80078125 391.926757812 l 5
 204.043945312 408.118164062 245.518554688 416 283.607421875 416 c 4
 382.735351562 416 449.549804688 362.09375 449.549804688 269.247070312 c 4
 449.549804688 122.903320312 311.279296875 -9 162.10546875 -9 c 4
 114.368164062 -9 58.3447265625 13.369140625 16.3935546875 53.619140625 c 4
 11.896484375 57.931640625 10 63.6259765625 10 68.607421875 c 4
 10 80.0029296875 20.2841796875 91 31.392578125 91 c 4
 39.0966796875 91 42.90625 86.7734375 45.01171875 84.669921875 c 5
 69.822265625 60.08984375 125.59375 41 161.000976562 41 c 4
 270.275390625 41 366.81640625 134.521484375 366.81640625 219.348632812 c 4
 366.81640625 284.006835938 323.858398438 334 245.69140625 334 c 4
 202.866210938 334 137.110351562 315.568359375 74.765625 280.669921875 c 4
 39.755859375 260.974609375 l 5
 211.686523438 611.09765625 l 5
EndSplineSet
EndChar

StartChar: equal
Encoding: 61 61 69
GlifName: equal
Width: 403
VWidth: 0
Flags: W
HStem: 211.4 60.1992<60.7148 326.245> 324.4 60.1992<84.8652 350.396>
VStem: 50.1406 303.092
LayerCount: 2
Fore
SplineSet
83.61328125 324.901367188 m 6
 75.3134765625 328.219726562 74.291015625 337.495117188 74.291015625 344.10546875 c 4
 74.291015625 356.727539062 79.693359375 384.599609375 96.712890625 384.599609375 c 4
 343.462890625 384.599609375 l 4
 353.995117188 384.599609375 353.232421875 372.657226562 353.232421875 370.228515625 c 4
 353.232421875 362.133789062 351.466796875 324.400390625 332.962890625 324.400390625 c 4
 84.865234375 324.400390625 l 5
 83.61328125 324.901367188 l 6
59.462890625 211.901367188 m 2
 51.1630859375 215.219726562 50.140625 224.495117188 50.140625 231.104492188 c 0
 50.140625 243.727539062 55.54296875 271.599609375 72.5625 271.599609375 c 0
 319.3125 271.599609375 l 0
 329.84375 271.599609375 329.083007812 259.658203125 329.083007812 257.228515625 c 0
 329.083007812 249.134765625 327.31640625 211.400390625 308.8125 211.400390625 c 0
 60.71484375 211.400390625 l 1
 59.462890625 211.901367188 l 2
EndSplineSet
Validated: 1
EndChar

StartChar: asterisk
Encoding: 42 42 70
GlifName: asterisk
Width: 383
VWidth: 0
Flags: W
LayerCount: 2
Fore
SplineSet
206.005262203 640.718512124 m 2
 207.768516372 649.536423205 216.344871766 656.625 225.424804688 656.625 c 2
 228.575195312 656.625 l 0
 236.807455303 656.625 244.1367977 650.186796 244.1367977 641.027360084 c 0
 244.1367977 639.955970064 244.070288985 639.118852422 243.862704927 637.874312689 c 1
 223.450239489 533.954894708 l 1
 319.031159548 580.354513008 l 1
 321.884864409 581.781365439 324.546043103 583.125 328.325195312 583.125 c 0
 335.82003549 583.125 345.56274414 577.940484205 345.56274414 567.068847656 c 0
 345.56274414 557.578728673 341.227358508 551.095644308 333.221684808 546.531914124 c 1
 237.347540301 488.047972625 l 1
 305.550282257 430.265718066 l 0
 307.595743894 428.532776229 311.568481445 424.805392433 311.568481445 418.870788577 c 0
 311.568481445 411.821178282 308.193880806 406.521929085 304.98224263 403.233823333 c 0
 301.463557472 399.631359957 295.983059794 394.825195312 288.424804688 394.825195312 c 0
 286.944027989 394.825195312 283.762066828 394.868438537 280.461717762 396.972403393 c 0
 204.496157113 445.400271676 l 1
 175.482152355 338.048633972 l 1
 175.482152355 338.048633972 161.768724133 322.375 155.075195312 322.375 c 0
 151.924804688 322.375 l 0
 143.692544697 322.375 136.3632023 328.813204 136.3632023 337.972639916 c 0
 136.3632023 339.029425949 136.434743158 339.91131705 136.63327593 341.101591132 c 1
 156.10889304 444.044878046 l 1
 58.383514025 396.578438506 l 0
 55.6209041296 395.236604308 52.6156099779 394.825195312 50.0751953125 394.825195312 c 0
 40.4391677238 394.825195312 34.9375 404.157966096 34.9375 411.799804688 c 0
 34.9375 413.850932172 35.1379465428 417.068576907 35.943802909 420.212615034 c 0
 37.7353286413 427.202229369 43.773618169 429.930573761 45.4064898462 430.916762394 c 0
 143.046535228 489.887411655 l 1
 74.9375979218 546.65277716 l 0
 71.861132107 549.222241409 68.6973321023 553.350030188 68.6973321023 559.016264824 c 0
 68.6973321023 572.842109269 80.4473512887 583.125 91.025390625 583.125 c 0
 92.9864102842 583.125 96.3407642863 582.868034051 99.4047213384 581.336767741 c 0
 99.7132256907 581.182587277 l 1
 177.020181379 532.507903152 l 1
 206.005262203 640.718512124 l 2
EndSplineSet
Validated: 1
EndChar

StartChar: numbersign
Encoding: 35 35 71
GlifName: numbersign
Width: 716
VWidth: 0
Flags: W
HStem: 227 59<46.8251 161.271 249.039 342.271 429.039 566.517> 486 59<157.103 280.318 367.04 461.271 546.04 673.23>
LayerCount: 2
Fore
SplineSet
403.154296875 737 m 2
 432.154296875 737 l 0
 435.796961108 737 447.345703125 736.146977372 447.345703125 725.083007812 c 0
 447.345703125 722.484374048 446.762535362 719.812914737 445.523262002 717.095471947 c 0
 367.040162158 545 l 1
 482.653046977 545 l 1
 563.46435664 722.200703119 l 1
 567.549219173 732.4275532 574.161752615 737 583.154296875 737 c 0
 611.154296875 737 l 0
 615.300768187 737 626.308558074 735.646919745 626.308558074 724.719602343 c 0
 626.308558074 722.628525495 625.904982084 720.125267791 624.523262002 717.095471947 c 0
 546.040162158 545 l 1
 668.154296875 545 l 0
 670.628860302 545 683.30859375 545.617972102 683.30859375 534.46875 c 0
 683.30859375 529.116918551 680.620529014 525.206603221 679.374641474 522.789499562 c 0
 673.395507812 501.829101562 l 1
 669.915039062 494.868164062 662.612304688 486 652.154296875 486 c 0
 525.65625 486 l 1
 429.038561624 286 l 1
 562.154296875 286 l 0
 567.483844365 286 576.30859375 283.405925212 576.30859375 274.46875 c 0
 576.30859375 270.162471755 574.496649237 267.971165083 573.379311491 265.798563912 c 0
 563.397460938 240.833984375 l 1
 559.379882812 232.799804688 551.23046875 227 542.154296875 227 c 0
 405.65625 227 l 1
 306.523650537 17.0963240663 l 0
 304.059396328 11.6908632192 299.731167833 3 289.154296875 3 c 0
 259.154296875 3 l 0
 253.343996545 3 243.909179688 5.70374254821 243.909179688 15.2451171875 c 0
 243.909179688 17.8855386338 244.525271037 20.1405240645 245.784943213 22.9036759341 c 0
 342.270507812 227 l 1
 225.676757812 227 l 1
 127.535404173 17.1222457279 l 0
 124.691130457 10.8153779246 119.316849417 3 109.154296875 3 c 0
 78.154296875 3 l 0
 72.0344776294 3 63 6.21678466054 63 16 c 0
 63 19.150266199 63.8832793563 20.925832635 64.7849432131 22.9036759341 c 0
 161.270507812 227 l 1
 53.154296875 227 l 0
 48.2119140625 227 38 229.186523438 38 239.500976562 c 0
 38 244.055664062 39.9287109375 247.259765625 40.931640625 249.206054688 c 0
 49.9121642583 272.168210609 l 1
 53.9273152815 280.198512655 62.0782366732 286 71.154296875 286 c 0
 184.632241572 286 l 1
 280.318359375 486 l 1
 162.154296875 486 l 0
 157.770507812 486 146.962890625 487.611328125 146.962890625 498.165039062 c 0
 146.962890625 502.923828125 148.978515625 506.35546875 149.931640625 508.206054688 c 0
 156.912164258 531.168210609 l 1
 160.927315281 539.198512655 169.078236673 545 178.154296875 545 c 0
 301.653046977 545 l 1
 382.361999583 721.976257524 l 1
 386.984933313 733.185421105 394.429943561 737 403.154296875 737 c 2
345.65625 486 m 1
 249.038561624 286 l 1
 364.652385067 286 l 1
 461.270507812 486 l 1
 345.65625 486 l 1
EndSplineSet
Validated: 1
EndChar

StartChar: six
Encoding: 54 54 72
GlifName: six
Width: 480
VWidth: 0
Flags: W
HStem: -8 41<154.576 278.064> 344.66 67.6484<236.277 345.036>
VStem: 22.2529 93.4941<86.1761 293.65> 372.649 92.6602<162.077 315.26>
LayerCount: 2
Fore
SplineSet
478.955078125 597.1328125 m 4
 285.974609375 543.071289062 115.747070312 386.028320312 115.747070312 171.435546875 c 4
 115.747070312 97.0380859375 144.208007812 33 204.63671875 33 c 4
 302.967773438 33 372.649414062 116.79296875 372.649414062 250.352539062 c 4
 372.649414062 311.661132812 334.765625 344.66015625 286.401367188 344.66015625 c 4
 240.231445312 344.66015625 225.140625 333.766601562 200.408203125 314.190429688 c 4
 199.954101562 313.831054688 l 5
 199.479492188 313.517578125 l 4
 194.780273438 310.418945312 189.41015625 309.079101562 184.399414062 309.079101562 c 4
 176.120117188 309.079101562 165.053710938 313.227539062 165.053710938 325.606445312 c 4
 165.053710938 333.52734375 171.997070312 340.141601562 176.879882812 344.442382812 c 5
 205.502929688 369.473632812 243.676757812 412.30859375 327.493164062 412.30859375 c 4
 390.219726562 412.30859375 465.309570312 373.396484375 465.309570312 271.430664062 c 4
 465.309570312 120.53125 351.286132812 -8 191.749023438 -8 c 4
 84.9306640625 -8 22.2529296875 79.3828125 22.2529296875 185.563476562 c 4
 22.2529296875 457.48828125 282.104492188 598.63671875 482.948242188 636.732421875 c 5
 494.436523438 639.125976562 l 5
 496.067382812 633.947265625 l 6
 497.177734375 630.420898438 497.76953125 626.701171875 497.76953125 623.022460938 c 4
 497.76953125 611.735351562 492.198242188 600.842773438 478.955078125 597.1328125 c 4
EndSplineSet
EndChar

StartChar: nine
Encoding: 57 57 73
GlifName: nine
Width: 480
VWidth: 0
Flags: W
HStem: 246.96 63.04<167.769 292.607> 600 41<245.581 377.621>
VStem: 63.7148 83.8604<329.886 479.314> 412.191 85.8193<349.549 565.412>
LayerCount: 2
Fore
SplineSet
37.4462890625 -6.58984375 m 5
 36.916015625 -5.1884765625 35 -0.0068359375 35 6.95703125 c 4
 35 19.19921875 41.7353515625 30.759765625 55.90625 34.642578125 c 5
 239.912109375 90.265625 412.19140625 256.771484375 412.19140625 480.65625 c 4
 412.19140625 550.860351562 387.798828125 600 317.870117188 600 c 4
 242.772460938 600 147.575195312 529.17578125 147.575195312 399.665039062 c 4
 147.575195312 332.391601562 182 310 218.965820312 310 c 4
 263.991210938 310 306.991210938 328.10546875 329.557617188 347.045898438 c 4
 335.48828125 352.021484375 341.4765625 353.759765625 347.337890625 353.759765625 c 4
 356.080078125 353.759765625 364.895507812 346.846679688 364.895507812 337.3515625 c 4
 364.895507812 328.823242188 360.220703125 322.119140625 357.051757812 318.485351562 c 4
 356.729492188 318.116210938 l 5
 356.327148438 317.729492188 l 4
 327.091796875 289.690429688 285.702148438 246.959960938 199.041992188 246.959960938 c 4
 139.463867188 246.959960938 63.71484375 279.288085938 63.71484375 379.70703125 c 4
 63.71484375 529.379882812 193.678710938 641 324.69140625 641 c 4
 433.586914062 641 498.010742188 583.250976562 498.010742188 472.290039062 c 4
 498.010742188 185.118164062 244.2734375 30.8544921875 52.93359375 -14.587890625 c 5
 41.3720703125 -17.6044921875 l 5
 37.4462890625 -6.58984375 l 5
EndSplineSet
EndChar

StartChar: exclam
Encoding: 33 33 74
GlifName: exclam
Width: 324
VWidth: 0
Flags: W
HStem: -18 116<55.417 126.73>
VStem: 35.0002 112.573<3.13905 77.5817>
LayerCount: 2
Fore
SplineSet
103.313476562 98 m 4
 129.766103532 98 147.573013362 77.335738631 147.573013362 51.5623132131 c 4
 147.573013362 12.0326207265 111.516862115 -18 79.3134765625 -18 c 4
 52.2132744959 -18 35.0002388658 2.47524991649 35.0002388658 27.9925000352 c 4
 35.0002388658 67.6210722289 69.8650884989 98 103.313476562 98 c 4
255.013671875 765.375 m 6
 257.11328125 765.375 l 4
 281.28658519 765.375 292.621849182 748.780014834 292.621849182 728.961763275 c 4
 292.621849182 723.006413998 291.760091758 716.900556264 290.140232171 710.420866813 c 5
 158.876904945 220.021478453 l 4
 154.370242815 203.122281326 144.172574152 189.625 127.963867188 189.625 c 4
 113.807072146 189.625 105.370509551 199.966151208 105.370509551 213.560922693 c 4
 105.370509551 216.608715381 105.731992025 219.860346568 106.394811179 223.174031413 c 5
 200.920063335 713.654671315 l 5
 200.956949268 713.808367468 l 4
 207.672452889 741.79050006 227.325027384 765.375 255.013671875 765.375 c 6
EndSplineSet
Validated: 1
EndChar

StartChar: percent
Encoding: 37 37 75
GlifName: percent
Width: 808
VWidth: 0
Flags: W
HStem: 3.60547 30.2314<503.749 572.795> 264.167 30.207<149.135 217.9> 351.478 30.335<578.751 646.298> 568.94 31.7471<363.834 553.128> 601.554 34.2939<217.065 303.598>
VStem: 57.9766 70.6182<308.3 488.466> 316.862 53.3781<419.475 579.956> 409.086 72.9756<48.9099 226.771> 669.575 52.6191<155.99 336.133>
LayerCount: 2
Fore
SplineSet
409.0859375 122.696289062 m 0
 409.0859375 272.090820312 522.25390625 381.8125 622.83203125 381.8125 c 0
 687.147460938 381.8125 722.194335938 340.40625 722.194335938 270.212890625 c 0
 722.194335938 121.831054688 621.678710938 3.60546875 519.206054688 3.60546875 c 0
 450.670898438 3.60546875 409.0859375 47.677734375 409.0859375 122.696289062 c 0
613.956054688 351.477539062 m 0
 563.315429688 351.477539062 482.061523438 237.782226562 482.061523438 124.478515625 c 0
 482.061523438 69.7548828125 503.373046875 33.8369140625 532.965820312 33.8369140625 c 0
 594.139648438 33.8369140625 669.575195312 146.53125 669.575195312 261.79296875 c 0
 669.575195312 314.778320312 649.169921875 351.477539062 613.956054688 351.477539062 c 0
267.949346972 635.84765625 m 0
 293.724892155 635.84765625 316.078360182 628.948242188 331.422219694 618.037109375 c 1
 393.363632179 609.768554688 428.350133858 600.6875 458.694838074 600.6875 c 0
 601.630117965 600.6875 571.947265625 662.998046875 643.545898438 662.998046875 c 0
 649.80078125 662.998046875 656.947265625 662.90625 661.946289062 657.891601562 c 0
 672.6875 647.354492188 l 0
 674.561523438 645.513671875 678.572265625 642.305664062 678.572265625 636.563476562 c 0
 678.572265625 631.077148438 675.575195312 627.306640625 673.782226562 625.147460938 c 0
 135.329101562 -8.607421875 l 0
 132.228515625 -12.4287109375 127.791992188 -13.904296875 124.124023438 -13.904296875 c 0
 117.872070312 -13.904296875 112.739257812 -10.580078125 110.005859375 -8.76171875 c 1
 105.749023438 -5.0986328125 l 1
 105.435546875 -4.8828125 l 0
 101.55859375 -2.2216796875 99.453125 2.001953125 99.453125 6.0380859375 c 0
 99.453125 11.1279296875 101.963867188 15.0849609375 104.358398438 17.966796875 c 0
 598.455213245 604.985351562 l 1
 567.371009455 587.381835938 528.780834545 568.940429688 453.793761769 568.940429688 c 0
 421.030803148 568.940429688 391.988546341 575.032226562 362.728374243 580.71484375 c 1
 368.22064666 564.478515625 370.240398566 549.689453125 370.240398566 530.774414062 c 0
 370.240398566 382.391601562 266.397709394 264.166992188 163.751953125 264.166992188 c 0
 97.6181640625 264.166992188 57.9765625 307.208007812 57.9765625 380.4296875 c 0
 57.9765625 526.157226562 164.751953125 635.84765625 267.949346972 635.84765625 c 0
216.1875 596.514648438 m 1
 176.243164062 567.5546875 128.594726562 470.422851562 128.594726562 384.203125 c 0
 128.594726562 330.038085938 148.76953125 294.374023438 178.020507812 294.374023438 c 0
 239.193359375 294.374023438 316.862249908 407.064453125 316.862249908 522.329101562 c 0
 316.862249908 556.372070312 306.66796875 589.408203125 292.426757812 600.8671875 c 1
 284.06640625 601.374023438 277.754882812 601.553710938 270.376953125 601.553710938 c 0
 253.18359375 601.553710938 234.908203125 599.935546875 216.1875 596.514648438 c 1
EndSplineSet
Validated: 1
EndChar

StartChar: seven
Encoding: 55 55 76
GlifName: seven
Width: 480
VWidth: 0
Flags: W
HStem: 0 21G<36 128.222> 546 76<145.451 422.607>
LayerCount: 2
Fore
SplineSet
39.0810546875 7.9521484375 m 4
 100.434570312 166.287109375 277.8671875 399.01171875 422.607421875 546 c 5
 166.708984375 546 l 4
 150.581054688 546 143.497070312 527.549804688 142.474609375 526.380859375 c 5
 138.580078125 522 l 5
 132.7421875 522 l 4
 121.880859375 522 118.924804688 534.344726562 118.924804688 534.344726562 c 4
 118.396484375 536.185546875 l 5
 120.30078125 541.598632812 l 5
 147.127929688 604.908203125 l 5
 147.595703125 605.688476562 l 4
 151.720703125 612.565429688 158.401367188 622 169.885742188 622 c 4
 521.7421875 622 l 4
 533.861328125 622 541.98828125 612.625976562 541.98828125 602.450195312 c 4
 541.98828125 588.892578125 530.830078125 578.947265625 528.899414062 576.594726562 c 5
 375.25 395.072265625 190.516601562 163.466796875 128.221679688 3.9013671875 c 4
 126.765625 0 l 5
 36 0 l 5
 39.0810546875 7.9521484375 l 4
EndSplineSet
EndChar

StartChar: eight
Encoding: 56 56 77
GlifName: eight
Width: 480
VWidth: 0
Flags: W
HStem: -8 40<154.587 282.994> 607 36<290.425 406.124>
VStem: 36 91.0381<58.3323 204.361> 146.442 93.2383<426.921 548.165> 363.769 88.5176<113.653 245.611> 429.978 75.3516<468.86 587.746>
LayerCount: 2
Fore
SplineSet
271.05078125 321.533203125 m 5xf8
 178.956054688 259.258789062 127.038085938 220.81640625 127.038085938 127.481445312 c 4
 127.038085938 65.7236328125 158.330078125 32 210.481445312 32 c 4
 295.48828125 32 363.768554688 102.189453125 363.768554688 178.485351562 c 4
 363.768554688 231.1875 320.482421875 283.499023438 271.05078125 321.533203125 c 5xf8
358.469726562 607 m 4
 271.7890625 607 239.680664062 545.618164062 239.680664062 477.454101562 c 4
 239.680664062 436.80859375 270.568359375 416.240234375 307.348632812 387.955078125 c 5
 362.612304688 427.74609375 429.977539062 464.139648438 429.977539062 519.71484375 c 4xf4
 429.977539062 568.466796875 411.333007812 607 358.469726562 607 c 4
372.57421875 643 m 4
 444.38671875 643 505.329101562 597.553710938 505.329101562 532.452148438 c 4xf4
 505.329101562 448.642578125 410.998046875 399.16796875 356.185546875 363.708007812 c 5
 408.8359375 316.57421875 452.286132812 267.015625 452.286132812 194.616210938 c 4xf8
 452.286132812 87.9462890625 342.294921875 -8 200.444335938 -8 c 4
 117.017578125 -8 36 39.6728515625 36 123.051757812 c 4
 36 227.341796875 125.649414062 282.419921875 219.37890625 341.364257812 c 5
 181.1875 372.05078125 146.442382812 405.290039062 146.442382812 464.971679688 c 4
 146.442382812 550.5703125 208.754882812 643 372.57421875 643 c 4
EndSplineSet
EndChar

StartChar: question
Encoding: 63 63 78
GlifName: question
Width: 578
VWidth: 0
Flags: W
HStem: -17 116<149.417 220.73> 743.575 32.7998<290.33 386.609>
VStem: 129 112.573<4.13905 78.5817> 137.209 95.8647<634.039 696.681> 182.062 50.5781<200.474 309.307> 433.215 84.9213<560.893 698.683>
LayerCount: 2
Fore
SplineSet
195.915039062 332.84765625 m 1xcc
 195.931640625 333.521484375 l 1
 196.076171875 334.178710938 l 0
 208.599609375 391.098632812 271.34375 441.690429688 312.837890625 475.088867188 c 1
 388.245117188 535.196289062 433.21484375 554.012695312 433.21484375 633.541992188 c 0
 433.21484375 687.13671875 393.056640625 743.575195312 338.213867188 743.575195312 c 0
 282.4609375 743.575195312 242.7705046 685.045085158 233.073884801 663.712882337 c 1
 220.61213753 634.256502302 192.612331621 616.575195312 172.313476562 616.575195312 c 0
 151.526021435 616.575195312 137.209164339 634.979513892 137.209164339 656.310898962 c 0xd4
 137.209164339 728.309070765 263.41665997 776.375 337.763671875 776.375 c 0
 414.241052745 776.375 518.136179393 725.971516574 518.136179393 626.959236661 c 0
 518.136179393 516.524746333 431.575111221 491.083503973 365.478049905 444.489948346 c 0
 323.260237924 414.938068935 285.575195312 386.833984375 267.696289062 345.694335938 c 0
 240.477539062 283.06640625 234.697274918 204.399212648 232.640625 196.163085938 c 1
 182.0625 201.166992188 l 1
 186.884765625 245.80859375 195.915039062 332.84765625 195.915039062 332.84765625 c 1xcc
197.313476562 99 m 0
 223.766103532 99 241.573013362 78.335738631 241.573013362 52.5623132131 c 0
 241.573013362 13.0326207264 205.516862115 -17 173.313476562 -17 c 0
 146.213274495 -17 129.000238865 3.47524991646 129.000238865 28.9925000352 c 0xe4
 129.000238865 68.621072229 163.865088498 99 197.313476562 99 c 0
EndSplineSet
EndChar

StartChar: quotesingle
Encoding: 39 39 79
GlifName: quotesingle
Width: 141
VWidth: 0
Flags: W
HStem: 489.85 188.301<54.1891 78.0611>
VStem: 46.5924 73.9359<586.563 671.287>
LayerCount: 2
Fore
SplineSet
88.2197265625 678.150390625 m 2
 92.419921875 678.150390625 l 0
 109.874012805 678.150390625 120.528320312 665.955492666 120.528320312 649.44921875 c 0
 120.528320312 642.690389756 117.728399276 634.835819204 115.882761635 629.104315116 c 0
 76.2010216634 505.879871883 l 1
 73.5503795448 494.847983622 65.8102032394 489.849609375 56.7197265625 489.849609375 c 0
 43.0703125 489.849609375 l 0
 34.1098001657 489.849609375 28.4619140625 496.769922185 28.4619140625 504.458007812 c 0
 28.4619140625 505.757239021 28.6112973587 507.274864893 28.7986807639 508.402396072 c 1
 46.5924172992 637.251773966 l 1
 50.0749385551 660.298537355 70.3399074632 678.150390625 88.2197265625 678.150390625 c 2
EndSplineSet
Validated: 1
EndChar

StartChar: quotedbl
Encoding: 34 34 80
GlifName: quotedbl
Width: 268
VWidth: 0
Flags: W
HStem: 489.85 188.301<59.1891 83.0611 172.189 196.061>
VStem: 51.5924 73.9359<586.563 671.287> 164.592 73.9359<586.563 671.287>
LayerCount: 2
Fore
SplineSet
206.219726562 678.150390625 m 2
 210.419921875 678.150390625 l 0
 227.874012805 678.150390625 238.528320312 665.955492666 238.528320312 649.44921875 c 0
 238.528320312 642.690389756 235.728399276 634.835819204 233.882761635 629.104315116 c 0
 194.201021663 505.879871883 l 1
 191.550379544 494.847983622 183.810203239 489.849609375 174.719726562 489.849609375 c 0
 161.0703125 489.849609375 l 0
 152.109800166 489.849609375 146.461914062 496.769922184 146.461914062 504.458007812 c 0
 146.461914062 505.757239028 146.611297359 507.274864891 146.798680763 508.402396069 c 1
 164.592417299 637.251773966 l 1
 168.074938555 660.298537355 188.339907463 678.150390625 206.219726562 678.150390625 c 2
93.2197265625 678.150390625 m 2
 97.419921875 678.150390625 l 0
 114.874012805 678.150390625 125.528320312 665.955492666 125.528320312 649.44921875 c 0
 125.528320312 642.690389756 122.728399276 634.835819204 120.882761635 629.104315116 c 0
 81.2010216634 505.879871883 l 1
 78.5503795448 494.847983622 70.8102032394 489.849609375 61.7197265625 489.849609375 c 0
 48.0703125 489.849609375 l 0
 39.1098001657 489.849609375 33.4619140625 496.769922185 33.4619140625 504.458007812 c 0
 33.4619140625 505.757239021 33.6112973587 507.274864893 33.7986807639 508.402396072 c 1
 51.5924172992 637.251773966 l 1
 55.0749385551 660.298537355 75.3399074632 678.150390625 93.2197265625 678.150390625 c 2
EndSplineSet
Validated: 1
EndChar

StartChar: underscore
Encoding: 95 95 81
GlifName: underscore
Width: 429
VWidth: 0
Flags: W
HStem: -11 56<55.1457 366.066>
VStem: 52.8156 315.519<-11 45>
LayerCount: 2
Fore
SplineSet
65.271484375 -11 m 2
 54.2064427427 -11 52.8156105274 0.679410044496 52.8156105274 5.9855905719 c 0
 52.8156105274 17.9279754289 57.2714606223 45 74.7216796875 45 c 0
 356.12109375 45 l 0
 367.232815383 45 368.335102102 32.8518512753 368.335102102 27.4407281125 c 0
 368.335102102 15.6288823623 363.55076814 -11 346.670898438 -11 c 0
 65.271484375 -11 l 2
EndSplineSet
Validated: 1
EndChar

StartChar: bracketleft
Encoding: 91 91 82
GlifName: bracketleft
Width: 438
VWidth: 0
Flags: W
HStem: -118.15 66.2002<108.702 233.491> 698.95 59.2002<280.084 420.808>
LayerCount: 2
Fore
SplineSet
280.083943877 698.950195312 m 1
 108.702494336 -51.9501953125 l 1
 215.879882812 -51.9501953125 l 2
 236.530048355 -51.9501953125 236.09375 -74.7126413631 236.09375 -78.6455078125 c 0
 236.09375 -92.0832645446 231.301010543 -118.150390625 207.379882812 -118.150390625 c 2
 46.73046875 -118.150390625 l 2
 31.2373493153 -118.150390625 17.0775086738 -108.227260774 17.0775086738 -90.3567797099 c 0
 17.0775086738 -86.5403231573 17.5681792262 -82.9494484111 18.4382328603 -78.8899173201 c 2
 204.287842235 725.41086393 l 2
 208.804577344 746.485227495 224.950443125 758.150390625 246.23046875 758.150390625 c 2
 402.6796875 758.150390625 l 2
 422.553993852 758.150390625 422.141758504 736.561483113 422.141758504 733.501551658 c 0
 422.141758504 721.416766557 419.186692574 698.950195312 395.1796875 698.950195312 c 2
 280.083943877 698.950195312 l 1
EndSplineSet
EndChar

StartChar: bracketright
Encoding: 93 93 83
GlifName: bracketright
Width: 441
VWidth: 0
Flags: W
HStem: -118.15 66.2002<17.5124 158.559> 697.95 60.2002<204.868 331.924>
LayerCount: 2
Fore
SplineSet
331.923907059 697.950195312 m 1
 223.737304688 697.950195312 l 2
 203.324643452 697.950195312 203.815429688 721.045348108 203.815429688 724.381835938 c 0
 203.815429688 736.140444796 205.75726385 758.150390625 230.237304688 758.150390625 c 2
 387.737304688 758.150390625 l 2
 404.116513244 758.150390625 421.460183634 749.712004198 421.460183634 729.399099723 c 0
 421.460183634 725.857596342 421.016734831 722.563030683 420.229841341 718.890373062 c 2
 233.903625116 -87.4687811015 l 2
 229.634154539 -105.481826835 214.463159438 -118.150390625 195.587890625 -118.150390625 c 2
 34.9375 -118.150390625 l 2
 14.5231349882 -118.150390625 15.0156154599 -95.0525741229 15.0156154599 -91.7164212724 c 0
 15.0156154599 -80.106183508 17.8932131636 -51.9501953125 43.4375 -51.9501953125 c 2
 158.559365319 -51.9501953125 l 1
 331.923907059 697.950195312 l 1
EndSplineSet
EndChar

StartChar: bar
Encoding: 124 124 84
GlifName: bar
Width: 314
VWidth: 0
Flags: W
VStem: 80.2139 132.771
LayerCount: 2
Fore
SplineSet
162.367484352 -70.6696092716 m 2
 156.204057536 -92.2473365422 129.145660178 -92.0498046875 118.544921875 -92.0498046875 c 0
 111.719708936 -92.0498046875 80.2138671875 -93.1397141039 80.2138671875 -68.1162109375 c 2
 80.2138671875 -67.8721493221 l 1
 80.2287448586 -67.6285415903 l 1
 130.605179553 757.237724545 l 1
 130.630586161 757.653733613 l 1
 130.69908439 758.064850425 l 2
 134.574160264 781.322515122 165.199659792 780.049804688 174.89453125 780.049804688 c 0
 181.911255188 780.049804688 212.868402824 781.582988314 212.999885176 757.042862197 c 2
 213.001301172 756.778578 l 1
 212.985271332 756.514776586 l 1
 162.870246647 -68.2229796356 l 1
 162.817259943 -69.0949763071 l 1
 162.367484352 -70.6696092716 l 2
EndSplineSet
EndChar

StartChar: asciitilde
Encoding: 126 126 85
GlifName: asciitilde
Width: 540
VWidth: 0
Flags: W
HStem: 222.7 83.2998<294.573 395.339> 294.1 81.2002<134.932 231.765>
LayerCount: 2
Fore
SplineSet
198.1015625 375.299804688 m 0x40
 279.848858529 375.299804688 280.532358648 306 354.551757812 306 c 0
 409.174429898 306 463.920623369 358.5 479.500976562 358.5 c 0
 485.839302391 358.5 495.063280529 354.874891929 495.063280529 345.428140118 c 0
 495.063280529 344.422609105 494.933880097 343.418702879 494.692380169 342.452703171 c 0
 487.357779336 313.113162871 396.757394455 222.700195312 328.301757812 222.700195312 c 0x80
 245.414682271 222.700195312 247.403370717 294.099609375 178.151367188 294.099609375 c 0
 136.076926893 294.099609375 85.3460403276 251.049804688 59.5009765625 251.049804688 c 0
 51.930592599 251.049804688 44.5992170103 256.83651874 44.5992170103 265.939490128 c 0
 44.5992170103 267.782391489 44.8858441208 269.650414484 45.4205645939 271.522184847 c 0
 48.7413180947 283.147911172 133.518849866 375.299804688 198.1015625 375.299804688 c 0x40
EndSplineSet
Validated: 1
EndChar

StartChar: dieresis
Encoding: 168 168 86
GlifName: dieresis
Width: 433
VWidth: 0
Flags: W
HStem: 614.7 110.6<147.115 217.257 365.514 435.657>
VStem: 128.581 107.21<633.356 706.643> 346.981 107.21<633.357 706.644>
LayerCount: 2
Fore
SplineSet
412.135742188 725.299804688 m 0
 437.292178731 725.299804688 454.190744594 706.7532163 454.190744594 682.268358678 c 0
 454.190744594 643.488978006 420.540840309 614.700195312 389.036132812 614.700195312 c 0
 363.879107575 614.700195312 346.980543483 633.247561005 346.980543483 657.732987012 c 0
 346.980543483 696.512234684 380.630905613 725.299804688 412.135742188 725.299804688 c 0
193.735351562 725.299804688 m 0
 218.892376799 725.299804688 235.790940892 706.752438995 235.790940892 682.267012989 c 0
 235.790940892 643.487765316 202.140578761 614.700195312 170.635742188 614.700195312 c 0
 145.479305644 614.700195312 128.58073978 633.246783701 128.58073978 657.731641323 c 0
 128.58073978 696.511021994 162.230644066 725.299804688 193.735351562 725.299804688 c 0
EndSplineSet
Validated: 1
EndChar

StartChar: grave
Encoding: 96 96 93
GlifName: grave
Width: 283
VWidth: 0
Flags: W
HStem: 524.891 226.109
VStem: 55.9996 92.2026<692.065 734.748>
LayerCount: 2
Fore
SplineSet
203.833093029 528.676048485 m 2
 162.236645306 564.185211174 74.9454513801 647.029287997 63.5535776272 664.117098626 c 0
 58.6700477745 671.442393405 55.9996362553 680.024301395 55.9996362553 689.172165856 c 0
 55.9996362553 722.774509758 86.69200767 751 115.377929688 751 c 0
 128.010827251 751 140.617485964 746.26009505 148.202281748 734.882901374 c 0
 159.40174996 718.083699056 208.66022712 602.116235068 230.824700445 549.727479936 c 0
 232.873973999 544.883742446 l 1
 208.267258004 524.890785701 l 1
 203.833093029 528.676048485 l 2
EndSplineSet
Validated: 1
EndChar

StartChar: acute
Encoding: 180 180 94
GlifName: acute
Width: 295
VWidth: 0
Flags: W
HStem: 524.975 225.928
VStem: 20.378 225.993
LayerCount: 2
Fore
SplineSet
41.8429087942 524.975369707 m 1
 20.3780020451 546.440276456 l 1
 23.7210521755 551.246898139 l 0
 59.9345634004 603.314513491 142.253079835 719.543290846 158.490844952 735.77998832 c 0
 168.550290008 745.838771963 181.725310308 750.903593683 194.869635556 750.903593683 c 0
 208.013694135 750.903593683 221.188667119 745.838757501 231.247460376 735.779964244 c 0
 241.306581427 725.721406728 246.371459964 712.546750691 246.371459964 699.402576757 c 0
 246.371459964 686.258030048 241.306314739 673.082601052 231.246622468 663.022908782 c 0
 215.04647282 646.822759133 99.5362742307 563.78154442 46.6246134336 528.191678276 c 0
 41.8429087942 524.975369707 l 1
EndSplineSet
Validated: 1
EndChar

StartChar: less
Encoding: 60 60 114
GlifName: less
Width: 513
VWidth: 0
Flags: W
LayerCount: 2
Fore
SplineSet
164.085468036 313.146090518 m 1
 381.823191014 154.968910596 l 1
 363.560853934 72.1796491654 l 1
 41.2939851649 300.885168937 l 1
 45.7390623634 324.592247329 l 1
 474.344153956 553.45904381 l 1
 455.099454134 471.348324572 l 1
 164.085468036 313.146090518 l 1
EndSplineSet
Validated: 1
EndChar

StartChar: greater
Encoding: 62 62 115
GlifName: greater
Width: 509
VWidth: 0
Flags: W
LayerCount: 2
Fore
SplineSet
345.914531964 314.853909482 m 1
 128.183900421 473.025937778 l 1
 145.422727178 551.832002949 l 1
 467.706014835 323.114831063 l 1
 463.260937637 299.407752671 l 1
 34.6400157738 70.5325031327 l 1
 54.9037617849 156.65342368 l 1
 345.914531964 314.853909482 l 1
EndSplineSet
Validated: 1
EndChar

StartChar: asciicircum
Encoding: 94 94 116
GlifName: asciicircum
Width: 458
VWidth: 0
Flags: W
HStem: 547.434 223.851
LayerCount: 2
Fore
SplineSet
431.369898243 571.723266802 m 2
 424.126358473 558.443256747 413.018698435 551.027278683 402.23877909 547.434343597 c 0
 398.311237808 546.125298471 l 1
 273.269384107 661.788819317 l 1
 95.4587843033 546.368599287 l 1
 92.2612209102 547.434343597 l 0
 80.0718550399 551.497045637 72.775390625 561.926655253 72.775390625 575.075195312 c 0
 72.775390625 578.279473132 l 1
 296.313921053 771.285505933 l 1
 433.449144075 575.535271215 l 1
 431.369898243 571.723266802 l 2
EndSplineSet
Validated: 1
EndChar

StartChar: divide
Encoding: 247 247 137
GlifName: divide
Width: 368
VWidth: 0
Flags: W
HStem: 142.1 89.6006<125.884 189.612> 267.95 60.2002<55.29 320.82> 363.35 88.5508<174.586 238.947>
VStem: 114.522 86.8125<153.412 220.239> 163.873 86.8115<374.662 440.917>
LayerCount: 2
Fore
SplineSet
163.873046875 398.27734375 m 0xe8
 163.873046875 429.361328125 190.723632812 451.900390625 216.237304688 451.900390625 c 0
 235.873046875 451.900390625 250.684570312 437.383789062 250.684570312 417.487304688 c 0
 250.684570312 386.715820312 222.686523438 363.349609375 198.387695312 363.349609375 c 0
 177.828125 363.349609375 163.873046875 378.657226562 163.873046875 398.27734375 c 0xe8
114.522460938 177.02734375 m 4xf0
 114.522460938 207.87109375 141.227539062 231.700195312 166.887695312 231.700195312 c 4
 186.805664062 231.700195312 201.334960938 216.2109375 201.334960938 196.3046875 c 4
 201.334960938 165.5 173.38671875 142.099609375 149.037109375 142.099609375 c 4
 128.478515625 142.099609375 114.522460938 157.407226562 114.522460938 177.02734375 c 4xf0
55.2900390625 267.950195312 m 1
 54.0380859375 268.451171875 l 2
 45.73828125 271.770507812 44.7158203125 281.044921875 44.7158203125 287.655273438 c 0
 44.7158203125 300.276367188 50.1181640625 328.150390625 67.1376953125 328.150390625 c 0
 313.887695312 328.150390625 l 0
 324.418945312 328.150390625 323.658203125 316.208984375 323.658203125 313.780273438 c 0
 323.658203125 305.685546875 321.890625 267.950195312 303.387695312 267.950195312 c 0
 55.2900390625 267.950195312 l 1
EndSplineSet
Validated: 1
EndChar

StartChar: dollar
Encoding: 36 36 142
GlifName: dollar
Width: 536
VWidth: 0
Flags: W
HStem: 568.509 29.7607<401.795 424.905>
VStem: 40.6455 64.2988<89.7909 176.82> 141.646 80.113<429.479 529.158> 351.49 78.1559<128.652 239.504> 362.56 55.1804<613.764 671> 430.904 57.7607<498.714 564.059>
LayerCount: 2
Fore
SplineSet
287.834401177 274.633789062 m 1xf4
 260.325808571 196.603515625 234.422311405 121.497070312 215.486792154 67.431640625 c 1
 302.916853752 73.080078125 351.489575541 118.680664062 351.489575541 175 c 0
 351.489575541 227.486328125 329.670538457 245.694335938 287.834401177 274.633789062 c 1xf4
416.361328125 645.594726562 m 0
 412.142578125 631.526367188 406.376953125 612.69921875 401.794921875 598.26953125 c 1
 453.967773438 590.54296875 488.665039062 574.578125 488.665039062 530.0859375 c 0
 488.665039062 499.333984375 458.815429688 495.481445312 450.645507812 495.481445312 c 0
 439.717773438 495.481445312 426.196289062 503.5078125 426.196289062 516.647460938 c 0
 426.196289062 525.34375 430.904296875 533.76171875 430.904296875 538.170898438 c 0
 430.904296875 549.079101562 427.155273438 564.013671875 392.833007812 568.508789062 c 1
 371.16015625 505.681640625 344.227382479 432.19921875 319.559379518 364.5390625 c 1
 385.333984375 317.423828125 429.645507812 279.463867188 429.645507812 207.073242188 c 0xf4
 429.645507812 84.0380859375 307.062041516 38.8798828125 201.494296756 37.4013671875 c 1
 188.4315631 0.646484375 178.815648873 -25.7060546875 178.486881771 -26.6083984375 c 0
 178.194760683 -27.4111328125 l 1
 177.698468943 -28.1240234375 l 0
 168.785111166 -40.9404296875 154.9453125 -47 142.645507812 -47 c 0
 133.581054688 -47 124.942382812 -44.5771484375 119.1796875 -37.3740234375 c 0
 116.694335938 -34.2685546875 l 1
 118.090820312 -30.544921875 l 0
 125.9609375 -9.5625 134.484375 22.9453125 141.491210938 44.673828125 c 1
 77.5654296875 58.8134765625 40.6455078125 98.9375 40.6455078125 128.973632812 c 0
 40.6455078125 149.5703125 51.3916015625 183.96484375 86.6455078125 183.96484375 c 0
 102.672851562 183.96484375 109.12890625 173.350585938 109.12890625 161.760742188 c 0
 109.12890625 149.67578125 104.944335938 135.685546875 104.944335938 122.743164062 c 0
 104.944335938 104.208984375 111.810546875 86.7587890625 157.208007812 81.4892578125 c 1
 187.187692662 162.217773438 216.201912953 240.708984375 241.892863235 313.360351562 c 1
 185.155409396 353.546875 141.645507812 404.426757812 141.645507812 466.922851562 c 0
 141.645507812 543.612304688 234.57203655 610.55078125 341.704042618 612.844726562 c 1
 348.53067162 632.4375 356.645146279 653.534179688 362.559813033 671 c 0
 362.671845134 671 l 1
 362.818429193 671 l 0
 367.868250003 673.549804688 382.482421875 675 393.645507812 675 c 0
 407.2890625 675 417.740234375 665.356445312 417.740234375 653.125 c 0xec
 417.740234375 650.177734375 416.8984375 647.390625 416.361328125 645.594726562 c 0
273.751861287 399.087890625 m 1
 293.265340539 456.397460938 314.796444651 519.549804688 333.709976293 576.67578125 c 1
 262.338198287 571.87890625 221.758495793 521.442382812 221.758495793 491 c 0
 221.758495793 452.400390625 240.03543381 426.438476562 273.751861287 399.087890625 c 1
EndSplineSet
Validated: 1
EndChar

StartChar: cent
Encoding: 162 162 143
GlifName: cent
Width: 505
VWidth: 0
Flags: W
HStem: 63.6811 55.9693<229.535 319.322> 468.95 120.035<381.258 428.668> 561.96 36.3164<247.705 298.061>
VStem: 29.4105 91.7334<175.561 389.995>
LayerCount: 2
Fore
SplineSet
393.818981651 177.964762983 m 1xd0
 407.325303159 144.19660373 l 1
 403.520415672 140.935231476 l 0
 337.994405648 84.7693890559 285.250436172 64.7338115583 213.071968908 63.6811367519 c 1
 168.962092663 -82.2998046875 l 1
 103.906853396 -82.2998046875 l 1
 150.742828543 70.9811185187 l 1
 78.1402930614 91.8437169628 29.4105295843 154.124986775 29.4105295843 253.74883243 c 0
 29.4105295843 464.059555071 161.22855633 591.618861059 308.649867336 598.276846866 c 1xb0
 339.151889005 700.299804688 l 1
 404.155523797 700.299804688 l 1
 370.975390656 588.98494261 l 1
 415.123289727 576.608878312 478.238636661 552.668463057 478.238636661 509.034498058 c 0
 478.238636661 480.612995662 445.413535087 468.950195312 423.115234375 468.950195312 c 0
 375.995647065 468.950195312 371.562048887 516.223489984 355.792324555 539.440246095 c 1
 229.534703079 120.584605938 l 1
 234.952945464 119.943249774 238.527620093 119.650390626 243.565429688 119.650390625 c 0
 281.629129667 119.650390625 330.750012908 134.751423315 386.608845954 173.024551511 c 0
 393.818981651 177.964762983 l 1xd0
298.061469164 561.960442328 m 1
 205.903494497 553.193678273 121.143916492 421.668052631 121.143916492 274.276173026 c 0
 121.143916492 216.552390562 137.144264102 167.886669608 171.371928966 141.671925556 c 1
 298.061469164 561.960442328 l 1
EndSplineSet
Validated: 1
EndChar

StartChar: cedilla
Encoding: 184 184 145
GlifName: cedilla
Width: 292
VWidth: 0
Flags: W
HStem: -163.4 40.25<83.1141 154.829>
VStem: 160.345 63.6373<-118.819 -60.7833>
LayerCount: 2
Fore
SplineSet
174.422937826 35.400390625 m 1
 233.874342887 35.400390625 l 1
 187.640014779 -25.8870443103 l 1
 212.808143771 -32.2319744639 223.98227868 -52.8979334979 223.98227868 -73.2746065487 c 0
 223.98227868 -138.048865673 162.464482501 -163.400390625 124.275390625 -163.400390625 c 0
 87.5645571131 -163.400390625 63.683293471 -147.469258096 52.9138143506 -125.930299857 c 0
 50.8663876796 -121.835446515 l 1
 75.9151004729 -91.7779230338 l 1
 80.9583102502 -100.351192036 l 0
 89.9670127611 -115.665651159 107.577017779 -123.150390625 121.125 -123.150390625 c 0
 141.303818988 -123.150390625 160.344970845 -106.916369102 160.344970845 -86.2086455881 c 0
 160.344970845 -71.0731619344 149.924968774 -60.5 135.825195312 -60.5 c 0
 129.028375943 -60.5 118.644323975 -61.7299254114 112.235569308 -65.7356764974 c 0
 97 -63 l 5
 174.422937826 35.400390625 l 1
EndSplineSet
Validated: 1
EndChar

StartChar: braceleft
Encoding: 123 123 147
GlifName: braceleft
Width: 369
VWidth: 0
Flags: W
HStem: -132.175 45.75<108.139 145.212> 741.425 45.75<294.382 346.813>
VStem: 20.7222 83.3769<-84.0961 51.291> 101.682 81.3223<168.493 287.913>
LayerCount: 2
Fore
SplineSet
334.515625 741.424804688 m 2xd0
 314.7623412 741.424804688 277.626714543 722.739291161 264.097421652 662.821026297 c 0
 249.687612536 599.007388128 235.094367166 473.509025849 224.191044894 424.444075625 c 0
 212.612522438 374.822495829 191.457440475 342.41052518 163.993025256 325.665909483 c 1
 177.62135983 311.779751788 183.004165688 293.168874561 183.004165688 270.249431518 c 0xd0
 183.004165688 256.584038028 180.95068414 241.077234256 176.941044894 223.893294375 c 0
 166.053088669 174.89749136 122.005453377 49.1562339507 107.64722634 -14.4289737027 c 0
 105.15014105 -25.4872809898 104.099054877 -35.0258151617 104.099054877 -43.0986747964 c 0
 104.099054877 -77.8583581832 121.30695108 -86.424804688 136.065429688 -86.424804688 c 2
 144.604264669 -86.424804688 l 1
 154.362933218 -86.424804688 l 1
 152.448872657 -95.9939208448 l 1
 146.498134808 -125.743920845 l 1
 145.211798543 -132.174804688 l 1
 138.65352682 -132.174804688 l 1
 132.915039062 -132.174804688 l 2
 110.652253797 -132.174804688 20.7221568929 -126.501073173 20.7221568929 -40.1368836709 c 0xe0
 20.7221568929 -29.9071346236 22.0666999403 -18.7208284501 24.842456688 -6.73491015662 c 0
 46.3237279267 87.7830828706 81.0075104012 154.106506328 99.392738961 235.816944471 c 0
 101.022753451 242.948340769 101.68188546 249.04282595 101.68188546 254.249556877 c 0
 101.68188546 294.150553809 51.578970165 287.081959025 51.578970165 326.277784736 c 0
 51.578970165 327.909376956 51.7383689152 329.457814479 52.1238714593 331.288884341 c 0
 61.6124872818 371.61274391 127.370150922 360.86742964 142.442057059 425.865955731 c 0
 160.869255702 507.762923723 159.870027362 574.159565332 181.298089146 668.443435768 c 0
 206.930377471 779.12550969 310.179191951 787.174804688 337.665039062 787.174804688 c 2
 346.203354897 787.174804688 l 1
 355.961430137 787.174804688 l 1
 354.048056421 777.606156225 l 1
 348.099163193 747.856156225 l 1
 346.813132147 741.424804688 l 1
 340.254461669 741.424804688 l 1
 334.515625 741.424804688 l 2xd0
EndSplineSet
EndChar

StartChar: braceright
Encoding: 125 125 148
GlifName: braceright
Width: 372
VWidth: 0
Flags: W
HStem: -132.175 45.75<22.7523 75.1838> 741.425 45.75<224.354 261.426>
VStem: 186.561 81.3571<367.403 486.506> 265.466 83.3769<604.119 738.406>
LayerCount: 2
Fore
SplineSet
217.116557032 750.993920844 m 1xd0
 223.067294879 780.743920844 l 1
 224.353631144 787.174804688 l 1
 230.911902867 787.174804688 l 1
 236.650390625 787.174804688 l 2
 258.91317589 787.174804688 348.843272794 781.501073173 348.843272794 695.13688367 c 0xd0
 348.843272794 684.907134623 347.498729747 673.72082845 344.722973 661.734910156 c 0
 323.241974003 567.218114999 288.55746693 500.891090654 270.173177317 419.184825519 c 0
 268.549538195 412.182781527 267.918371527 406.371871222 267.918371527 401.254955123 c 0
 267.918371527 361.265644993 319.033533909 367.756780573 319.033533909 329.572513839 c 0
 319.033533909 327.832538905 318.815694672 326.140212617 318.491443451 324.76223916 c 0
 309.747763635 283.221626377 242.006499384 294.249226452 227.134131767 229.181861674 c 0
 208.681727373 147.17287044 209.702734926 80.8726982481 188.267340541 -13.4434357681 c 0
 162.635052217 -124.12550969 59.3862377357 -132.174804688 31.900390625 -132.174804688 c 2
 23.36207479 -132.174804688 l 1
 13.60399955 -132.174804688 l 1
 15.5173732661 -122.606156225 l 1
 21.4662664952 -92.8561562248 l 1
 22.752297541 -86.424804688 l 1
 29.3109680191 -86.424804688 l 1
 35.0498046875 -86.424804688 l 2
 54.8030884864 -86.424804688 91.9387151436 -67.7392911611 105.468008035 -7.82102629716 c 0
 119.877817193 55.9926120483 134.471062443 181.490973795 145.374384857 230.555924645 c 0
 156.9623627 280.218026995 178.209621527 313.266358002 205.538346719 330.194632837 c 1
 191.981713371 343.865439873 186.561264 362.220845006 186.561264 384.929361503 c 0xe0
 186.561264 398.500930855 188.617040514 413.932601183 192.624384794 431.106705625 c 0
 203.512341019 480.10250864 247.55997631 605.843766049 261.918203348 669.428973703 c 0
 264.415288638 680.487280989 265.466374811 690.02581516 265.466374811 698.098674795 c 0
 265.466374811 732.858358184 248.258478607 741.424804688 233.5 741.424804688 c 2
 224.96116502 741.424804688 l 1
 215.202496471 741.424804688 l 1
 217.116557032 750.993920844 l 1xd0
EndSplineSet
EndChar

StartChar: ampersand
Encoding: 38 38 149
GlifName: ampersand
Width: 1023
VWidth: 0
Flags: W
HStem: -17.4961 76.0225<336.468 551.296> 323.402 74.8779<783.135 880.006> 461.088 57.6025<249.486 339.209>
VStem: 133.594 61.3584<228.151 375.592> 450.812 73.4219<546.652 699.893> 727.502 46.368<238.284 347.617>
LayerCount: 2
Fore
SplineSet
194.952148438 302.627929688 m 0
 194.952148438 282.15022744 203.048999716 238.350078443 209.343541561 227.136820206 c 1
 244.775942292 251.033141947 450.811523438 447.439727619 450.811523438 615.608398438 c 0
 450.811523438 666.235736482 465.586747274 710.734375 494.919921875 710.734375 c 0
 521.684885393 710.734375 524.233398438 674.090097687 524.233398438 653.694335938 c 0
 524.233398438 420.688572409 236.067068561 208.828279066 231.945195891 183.299702281 c 1
 232.314602226 163.803968352 293.6484375 58.5263671875 440.098632812 58.5263671875 c 4
 599.615234375 58.5263671875 727.501908463 177.980956624 727.501908463 346.213459113 c 0
 727.501908463 376.292042281 722.667760146 397.107457569 645.958884407 425.921375315 c 1
 643.476808132 415.575646242 639.4831643 398.746600309 629.010793916 383.816822638 c 0
 617.981913702 368.095482687 593.023526072 351.909179688 573.66796875 351.909179688 c 0
 566.813587234 351.909179688 555.205078125 354.83652033 555.205078125 367.392578125 c 0
 555.205078125 414.433428144 627.409613489 476.485351562 669.047851562 476.485351562 c 0
 743.098091194 476.485351562 769.785801062 398.280273438 853.887695312 398.280273438 c 0
 869.598591796 398.280273438 883.902061548 404.802015807 898.271139727 411.665121992 c 0
 904.182887905 414.488751663 l 1
 915.774813462 393.850772255 l 1
 911.845442973 390.097976056 l 0
 902.433184467 381.108676614 876.8197403 323.40234375 844.833984375 323.40234375 c 0
 814.864795433 323.40234375 785.516206923 343.292409104 773.869858488 347.788541053 c 1
 771.556106657 186.225231431 687.624864777 -17.49609375 449.811523438 -17.49609375 c 4
 245.067375648 -17.49609375 133.59375 135.713601294 133.59375 265.622070312 c 0
 133.59375 390.417499593 214.497759532 518.690429688 325.182617188 518.690429688 c 0
 353.236290344 518.690429688 387.900390625 496.950597291 387.900390625 467.079101562 c 0
 387.900390625 443.140262733 372.669676826 415.047851562 340.662109375 415.047851562 c 0
 320.864899575 415.047851562 313.042669211 430.459463269 307.164861646 444.491660181 c 0
 301.898728593 457.073458015 297.897628868 461.087890625 286.11328125 461.087890625 c 0
 235.269463428 461.087890625 194.952148438 372.462326998 194.952148438 302.627929688 c 0
EndSplineSet
Validated: 1
EndChar

StartChar: ae
Encoding: 230 230 150
GlifName: ae
Width: 801
VWidth: 0
Flags: W
HStem: -11.0029 40.25<108.214 255.056> -10.4502 48.6504<486.668 638.974> 467.247 44.6504<220.92 346.483 580.69 733.302>
VStem: 7 89.2188<41.3272 146.019> 739.392 89.2188<354.246 462.165>
LayerCount: 2
Fore
SplineSet
114.3046875 425.331054688 m 0xb8
 193.05859375 509.393554688 223.596679688 511.897460938 289.250976562 511.897460938 c 0
 354.5390625 511.897460938 419.733030931 474.581054688 451.518197617 425.928710938 c 1
 503.045100804 477.346679688 563.551757812 512.450195312 681.887695312 512.450195312 c 0
 772.15234375 512.450195312 828.610351562 486.767578125 828.610351562 427.643554688 c 0
 828.610351562 247.065429688 540.461914062 243.323242188 457.6953125 224.775390625 c 1
 453.477539062 202.130859375 447.341796875 179.196289062 447.341796875 159.791015625 c 0
 447.341796875 77.74609375 492.215820312 38.2001953125 549.67578125 38.2001953125 c 0
 600.178710938 38.2001953125 666.852539062 67.1162109375 723.924804688 105.958007812 c 1
 736.520507812 73.1748046875 l 1
 672.858398438 18.03515625 620.840820312 -10.4501953125 534.029296875 -10.4501953125 c 3x78
 452.869140625 -10.4501953125 392.03515625 25.583984375 369.576171875 73.525390625 c 1
 306.298828125 16.88671875 226.501953125 -11.0029296875 152.697265625 -11.0029296875 c 0
 68.5224609375 -11.0029296875 7 14.4541015625 7 73.8037109375 c 0
 7 254.540039062 306.497070312 258.188476562 389.11328125 276.657226562 c 1
 392.377929688 298.140625 393.393554688 321.323242188 393.393554688 341.65625 c 0
 393.393554688 422.787109375 340.537109375 467.247070312 277.685546875 467.247070312 c 0
 184.78125 467.247070312 220.15625 377.36328125 142.491210938 377.36328125 c 0
 125.5234375 377.36328125 105.096679688 386.549804688 105.096679688 404.640625 c 0
 105.096679688 411.228515625 107.954101562 418.411132812 114.3046875 425.331054688 c 0xb8
666.973632812 472.200195312 m 0
 599.75 472.200195312 487.147460938 412.302734375 458.546875 265.61328125 c 1
 561.395507812 285.112304688 739.391601562 287.73046875 739.391601562 418.133789062 c 0
 739.391601562 460.702148438 713.987304688 472.200195312 666.973632812 472.200195312 c 0
363.159179688 139.446289062 m 1
 364.51953125 150.203125 371.846679688 200.890625 377.25390625 235.870117188 c 1
 274.0546875 216.3046875 96.21875 213.727539062 96.21875 86.3134765625 c 0
 96.21875 43.46484375 124.104492188 29.2470703125 170.63671875 29.2470703125 c 0xb8
 222.223632812 29.2470703125 307.103515625 57.349609375 363.159179688 139.446289062 c 1
EndSplineSet
EndChar

StartChar: germandbls
Encoding: 223 223 151
GlifName: germandbls
Width: 537
VWidth: 0
Flags: W
HStem: -190.4 62.2998<-212.707 -87.4211> -9 50<204.308 336.157> 692 43<267.383 366.175>
VStem: 127.829 75.9834<45.83 123.07> 213.258 87.4697<387.672 456.379> 382.637 71.9961<107.135 213.323> 385.647 55.5469<578.922 673.771>
LayerCount: 2
Fore
SplineSet
-85.90234375 -120.439453125 m 0xfa
 -30.060546875 -93.943359375 -15.6318359375 -58.2890625 1.8583984375 8.1025390625 c 1
 47.6005859375 226.653320312 l 1
 111.526367188 504.533203125 l 1
 139.397460938 621.7109375 194.26171875 735 322.642578125 735 c 0
 386.119140625 735 441.194335938 716.041992188 441.194335938 655.889648438 c 0xfa
 441.194335938 530.07421875 300.727539062 505.54296875 300.727539062 431.110351562 c 0
 300.727539062 397.404296875 332.72265625 380.607421875 383.059570312 328.7265625 c 1
 424.362304688 286.719726562 454.6328125 254.375976562 454.6328125 200.043945312 c 0
 454.6328125 90.4482421875 371.704101562 -9 253.40234375 -9 c 0
 193.422851562 -9 159.077148438 29.4462890625 147.88671875 43.552734375 c 0
 141.97265625 51.0107421875 127.829101562 65.2236328125 127.829101562 88.1279296875 c 0
 127.829101562 106.94921875 141.463867188 132 165.978515625 132 c 0
 191.859375 132 202.034179688 77.2646484375 203.8125 53.1142578125 c 1
 207.693359375 48.9228515625 233.377929688 41 278.323242188 41 c 0
 323.725585938 41 382.63671875 84.5419921875 382.63671875 153.465820312 c 0xfc
 382.63671875 201.987304688 340.420898438 241.505859375 301.203125 276.055664062 c 1
 260.750976562 312.49609375 213.2578125 347.826171875 213.2578125 396.126953125 c 0
 213.2578125 459.296875 273.47265625 492.0390625 309.71484375 521.326171875 c 0
 347.232421875 552.692382812 385.647460938 584.38671875 385.647460938 626.647460938 c 0
 385.647460938 661.116210938 355.130859375 692 319.55078125 692 c 0
 248.4609375 692 222.904296875 610.630859375 197.755859375 505.693359375 c 0
 89.603515625 44.97265625 l 1
 87.4287109375 31.82421875 82.43359375 20.4150390625 79.001953125 6.505859375 c 0
 65.7646484375 -47.1455078125 47.9384765625 -74.455078125 -2.4150390625 -117.2578125 c 1
 -35.7314453125 -145.272460938 -107.923828125 -190.400390625 -181.900390625 -190.400390625 c 0
 -202.8515625 -190.400390625 -223.724609375 -185.985351562 -244.486328125 -177.243164062 c 1
 -252.248046875 -173.91796875 -255.547851562 -167.243164062 -255.547851562 -161.025390625 c 0
 -255.547851562 -126.7890625 -209.885742188 -102.900390625 -185.05078125 -102.900390625 c 0
 -152.154296875 -102.900390625 -136.14453125 -128.100585938 -112.978515625 -128.100585938 c 0
 -106.051757812 -128.100585938 -96.0654296875 -125.369140625 -85.90234375 -120.439453125 c 0xfa
EndSplineSet
EndChar

StartChar: uniFB02
Encoding: 64258 64258 152
GlifName: uniF_B_02
Width: 670
VWidth: 0
Flags: W
HStem: -179.2 44.1504<-43.6373 32.3274> -9.65039 79.3506<457.642 554.528> 437.351 51.9854<135.855 163.844 280.693 416.886> 726.775 42.0498<398.287 504.79> 753.851 20G<655.707 664.881>
VStem: 419.355 103.291<36.2959 158.733>
LayerCount: 2
Fore
SplineSet
-155.012695312 -97.6181640625 m 0xf4
 -155.012695312 -95.6123046875 -154.891601562 -93.337890625 -154.012695312 -90.703125 c 0
 -147.952148438 -66.462890625 -118.392578125 -57.849609375 -101.75 -57.849609375 c 0
 -31.1572265625 -57.849609375 -65.2099609375 -135.049804688 -14.4208984375 -135.049804688 c 0
 39.958984375 -135.049804688 64.1552734375 -72.6748046875 86.8740234375 30.0703125 c 2
 163.843698143 437.350585938 l 1
 136.526761936 436.044921875 134.771819265 434.69140625 118.541106618 432.110351562 c 2
 102.015563603 429.483398438 l 1
 109.951915774 443.520507812 l 1
 133.529319854 485.22265625 l 1
 135.854869599 489.3359375 l 1
 140.764697781 489.3359375 l 1
 178.810852067 489.3359375 l 1
 183.404790568 507.174804688 189.266299089 531.723632812 191.942837369 541.465820312 c 0
 241.068195443 705.359375 342.185986505 768.825195312 467.308384835 768.825195312 c 0xf4
 491.837469255 768.825195312 525.652707467 762.451171875 551.253811153 748.4921875 c 1
 648.90234375 772.387695312 l 2
 650.505859375 772.80078125 653.663085938 773.850585938 657.75 773.850585938 c 0xec
 672.012695312 773.850585938 675.956054688 760.19140625 675.956054688 754.08984375 c 0
 675.956054688 748.786132812 674.842773438 743.725585938 673.409179688 737.59765625 c 2
 536.720703125 139.364257812 l 2
 531.258789062 117.078125 522.646484375 85.83984375 522.646484375 78.3046875 c 0
 522.646484375 70.9248046875 525.325195312 69.7001953125 525.899414062 69.7001953125 c 0
 540.921875 69.7001953125 559.37890625 76.96875 580.68359375 92.8203125 c 2
 586.88671875 97.4736328125 l 1
 591.731445312 91.4189453125 l 1
 607.321289062 71.9326171875 l 1
 610.549804688 67.8974609375 l 1
 608.198242188 63.294921875 l 2
 586.672851562 21.158203125 524.916015625 -9.650390625 476.146484375 -9.650390625 c 0
 439.13671875 -9.650390625 419.35546875 17.8837890625 419.35546875 54.7080078125 c 0
 419.35546875 81.53515625 428.888671875 113.3046875 438.666992188 151.715820312 c 2
 550.382356764 643.9296875 l 1
 532.101871077 676.837890625 505.700513533 726.775390625 450.181147189 726.775390625 c 0
 393.774281266 726.775390625 319.81096886 645.44921875 290.527494038 527.63671875 c 2
 280.692795309 492.779296875 l 1
 396.817382812 492.779296875 l 6
 413.044921875 492.779296875 436.064453125 488.950195312 436.064453125 468.244140625 c 4
 436.064453125 457.47265625 428.208984375 448.916015625 424.95703125 444.366210938 c 6
 419.334960938 436.588867188 l 5
 416.885742188 433.201171875 l 5
 412.567382812 433.201171875 l 6
 403.1953125 433.201171875 318.004882146 436.543945312 267.56381848 437.141601562 c 1
 184.426757812 18.404296875 l 2
 151.124023438 -120.50390625 94.744140625 -179.200195312 -31.3544921875 -179.200195312 c 0
 -71.341796875 -179.200195312 -122.048828125 -165.051757812 -150.668945312 -112.583007812 c 2
 -150.932617188 -112.099609375 l 1
 -151.126953125 -111.584960938 l 2
 -151.251953125 -111.25390625 -155.012695312 -103.8125 -155.012695312 -97.6181640625 c 0xf4
EndSplineSet
LCarets2: 1 0
Ligature2: "'liga' fl" f l
EndChar

